<ttFont>
    <TTGlyph name="A" xMin="10" yMin="-4" xMax="856" yMax="1536">
      <contour>
        <pt x="750" y="1206" on="1"/>
        <pt x="610" y="1202" on="0"/>
        <pt x="608" y="1202" on="1"/>
        <pt x="593" y="1202" on="0"/>
        <pt x="596" y="1184" on="1"/>
        <pt x="596" y="1179" on="0"/>
        <pt x="596" y="1174" on="0"/>
        <pt x="608" y="1106" on="0"/>
        <pt x="627" y="996" on="0"/>
        <pt x="652" y="856" on="0"/>
        <pt x="678" y="710" on="0"/>
        <pt x="704" y="568" on="0"/>
        <pt x="714" y="512" on="1"/>
        <pt x="740" y="366" on="0"/>
        <pt x="754" y="336" on="0"/>
        <pt x="774" y="336" on="1"/>
        <pt x="852" y="336" on="1"/>
        <pt x="856" y="-4" on="1"/>
        <pt x="489" y="4" on="1"/>
        <pt x="485" y="338" on="1"/>
        <pt x="606" y="338" on="1"/>
        <pt x="631" y="338" on="0"/>
        <pt x="655" y="377" on="0"/>
        <pt x="652" y="398" on="0"/>
        <pt x="643" y="453" on="0"/>
        <pt x="628" y="542" on="0"/>
        <pt x="609" y="657" on="0"/>
        <pt x="598" y="719" on="1"/>
        <pt x="317" y="719" on="1"/>
        <pt x="250" y="393" on="1"/>
        <pt x="242" y="359" on="0"/>
        <pt x="250" y="332" on="0"/>
        <pt x="268" y="332" on="1"/>
        <pt x="383" y="332" on="1"/>
        <pt x="379" y="-2" on="1"/>
        <pt x="10" y="-2" on="1"/>
        <pt x="18" y="336" on="1"/>
        <pt x="102" y="336" on="1"/>
        <pt x="154" y="336" on="0"/>
        <pt x="162" y="371" on="1"/>
        <pt x="167" y="391" on="0"/>
        <pt x="203" y="556" on="0"/>
        <pt x="234" y="695" on="0"/>
        <pt x="266" y="840" on="0"/>
        <pt x="297" y="980" on="0"/>
        <pt x="322" y="1093" on="0"/>
        <pt x="338" y="1168" on="0"/>
        <pt x="340" y="1179" on="1"/>
        <pt x="345" y="1200" on="0"/>
        <pt x="319" y="1200" on="1"/>
        <pt x="199" y="1200" on="1"/>
        <pt x="195" y="1536" on="1"/>
        <pt x="748" y="1532" on="1"/>
      </contour>
      <contour>
        <pt x="332" y="791" on="1"/>
        <pt x="586" y="793" on="1"/>
        <pt x="573" y="867" on="0"/>
        <pt x="562" y="937" on="1"/>
        <pt x="521" y="1182" on="0"/>
        <pt x="508" y="1202" on="0"/>
        <pt x="496" y="1202" on="1"/>
        <pt x="436" y="1202" on="1"/>
        <pt x="418" y="1202" on="0"/>
        <pt x="414" y="1182" on="1"/>
      </contour>
    </TTGlyph>
    <TTGlyph name="AE" xMin="0" yMin="-6" xMax="1196" yMax="1537">
      <contour>
        <pt x="596" y="344" on="1"/>
        <pt x="639" y="344" on="0"/>
        <pt x="639" y="422" on="1"/>
        <pt x="639" y="719" on="1"/>
        <pt x="348" y="719" on="1"/>
        <pt x="231" y="401" on="1"/>
        <pt x="208" y="340" on="0"/>
        <pt x="250" y="340" on="1"/>
        <pt x="373" y="340" on="1"/>
        <pt x="369" y="-2" on="1"/>
        <pt x="0" y="-2" on="1"/>
        <pt x="8" y="344" on="1"/>
        <pt x="84" y="344" on="1"/>
        <pt x="127" y="344" on="0"/>
        <pt x="143" y="379" on="1"/>
        <pt x="159" y="406" on="0"/>
        <pt x="408" y="1110" on="0"/>
        <pt x="433" y="1184" on="0"/>
        <pt x="428" y="1204" on="0"/>
        <pt x="414" y="1204" on="1"/>
        <pt x="289" y="1204" on="1"/>
        <pt x="287" y="1536" on="1"/>
        <pt x="480" y="1537" on="1"/>
        <pt x="630" y="1537" on="1"/>
        <pt x="978" y="1536" on="1"/>
        <pt x="1155" y="1536" on="1"/>
        <pt x="1149" y="1024" on="1"/>
        <pt x="1075" y="1022" on="1"/>
        <pt x="1076" y="1029" on="1"/>
        <pt x="1077" y="1114" on="1"/>
        <pt x="1077" y="1195" on="0"/>
        <pt x="954" y="1208" on="1"/>
        <pt x="916" y="1212" on="0"/>
        <pt x="811" y="1212" on="0"/>
        <pt x="748" y="1196" on="0"/>
        <pt x="733" y="1185" on="1"/>
        <pt x="713" y="1170" on="0"/>
        <pt x="713" y="1137" on="1"/>
        <pt x="713" y="827" on="1"/>
        <pt x="856" y="827" on="1"/>
        <pt x="873" y="827" on="0"/>
        <pt x="903" y="852" on="0"/>
        <pt x="906" y="899" on="0"/>
        <pt x="906" y="923" on="1"/>
        <pt x="906" y="969" on="1"/>
        <pt x="906" y="995" on="0"/>
        <pt x="905" y="1022" on="1"/>
        <pt x="979" y="1026" on="1"/>
        <pt x="985" y="526" on="1"/>
        <pt x="913" y="526" on="1"/>
        <pt x="913" y="593" on="1"/>
        <pt x="912" y="621" on="0"/>
        <pt x="911" y="650" on="1"/>
        <pt x="909" y="710" on="0"/>
        <pt x="886" y="742" on="0"/>
        <pt x="876" y="748" on="1"/>
        <pt x="859" y="758" on="0"/>
        <pt x="845" y="758" on="1"/>
        <pt x="812" y="758" on="0"/>
        <pt x="742" y="755" on="0"/>
        <pt x="713" y="754" on="1"/>
        <pt x="712" y="682" on="0"/>
        <pt x="712" y="619" on="1"/>
        <pt x="711" y="510" on="1"/>
        <pt x="711" y="428" on="1"/>
        <pt x="711" y="382" on="0"/>
        <pt x="730" y="364" on="1"/>
        <pt x="757" y="340" on="0"/>
        <pt x="782" y="340" on="1"/>
        <pt x="1053" y="340" on="1"/>
        <pt x="1124" y="340" on="0"/>
        <pt x="1124" y="428" on="1"/>
        <pt x="1123" y="509" on="1"/>
        <pt x="1122" y="531" on="0"/>
        <pt x="1122" y="553" on="1"/>
        <pt x="1196" y="555" on="1"/>
        <pt x="1184" y="-6" on="1"/>
        <pt x="1011" y="4" on="0"/>
        <pt x="947" y="4" on="1"/>
        <pt x="852" y="4" on="1"/>
        <pt x="803" y="4" on="1"/>
        <pt x="616" y="2" on="1"/>
        <pt x="543" y="1" on="0"/>
        <pt x="465" y="0" on="1"/>
        <pt x="465" y="344" on="1"/>
      </contour>
      <contour>
        <pt x="639" y="1155" on="1"/>
        <pt x="639" y="1210" on="0"/>
        <pt x="586" y="1210" on="1"/>
        <pt x="521" y="1210" on="0"/>
        <pt x="508" y="1178" on="1"/>
        <pt x="505" y="1170" on="0"/>
        <pt x="504" y="1167" on="1"/>
        <pt x="371" y="791" on="1"/>
        <pt x="639" y="793" on="1"/>
      </contour>
    </TTGlyph>
    <TTGlyph name="AEacute" xMin="0" yMin="-6" xMax="1196" yMax="1984">
      <component glyphName="AE" x="0" y="0" flags="0x1204"/>
      <component glyphName="acute" x="401" y="483" flags="0x1004"/>
    </TTGlyph>
    <TTGlyph name="Aacute" xMin="10" yMin="-4" xMax="856" yMax="1982">
      <component glyphName="A" x="0" y="0" flags="0x1204"/>
      <component glyphName="acute" x="125" y="481" flags="0x1004"/>
    </TTGlyph>
    <TTGlyph name="Abreve" xMin="10" yMin="-4" xMax="856" yMax="1935">
      <component glyphName="A" x="0" y="0" flags="0x1204"/>
      <component glyphName="breve" x="43" y="481" flags="0x1004"/>
    </TTGlyph>
    <TTGlyph name="Acircumflex" xMin="10" yMin="-4" xMax="856" yMax="1974">
      <component glyphName="A" x="0" y="0" flags="0x1204"/>
      <component glyphName="circumflex" x="31" y="481" flags="0x1004"/>
    </TTGlyph>
    <TTGlyph name="Adieresis" xMin="10" yMin="-4" xMax="856" yMax="1855">
      <component glyphName="A" x="0" y="0" flags="0x1204"/>
      <component glyphName="dieresis" x="29" y="481" flags="0x1004"/>
    </TTGlyph>
    <TTGlyph name="Agrave" xMin="10" yMin="-4" xMax="856" yMax="1982">
      <component glyphName="A" x="0" y="0" flags="0x1204"/>
      <component glyphName="grave" x="-56" y="481" flags="0x1004"/>
    </TTGlyph>
    <TTGlyph name="Amacron" xMin="10" yMin="-4" xMax="856" yMax="1804">
      <component glyphName="A" x="0" y="0" flags="0x1204"/>
      <component glyphName="macron" x="37" y="481" flags="0x1004"/>
    </TTGlyph>
    <TTGlyph name="Aogonek" xMin="10" yMin="-446" xMax="897" yMax="1536">
      <contour>
        <pt x="694" y="-365" on="1"/>
        <pt x="803" y="-365" on="0"/>
        <pt x="895" y="-287" on="1"/>
        <pt x="897" y="-381" on="1"/>
        <pt x="818" y="-446" on="0"/>
        <pt x="589" y="-446" on="0"/>
        <pt x="477" y="-350" on="0"/>
        <pt x="477" y="-266" on="1"/>
        <pt x="477" y="-151" on="0"/>
        <pt x="638" y="-51" on="1"/>
        <pt x="684" y="-22" on="0"/>
        <pt x="735" y="0" on="1"/>
        <pt x="489" y="4" on="1"/>
        <pt x="485" y="338" on="1"/>
        <pt x="606" y="338" on="1"/>
        <pt x="631" y="338" on="0"/>
        <pt x="655" y="377" on="0"/>
        <pt x="652" y="398" on="0"/>
        <pt x="643" y="453" on="0"/>
        <pt x="628" y="542" on="0"/>
        <pt x="609" y="657" on="0"/>
        <pt x="598" y="719" on="1"/>
        <pt x="317" y="719" on="1"/>
        <pt x="250" y="393" on="1"/>
        <pt x="242" y="359" on="0"/>
        <pt x="250" y="332" on="0"/>
        <pt x="268" y="332" on="1"/>
        <pt x="383" y="332" on="1"/>
        <pt x="379" y="-2" on="1"/>
        <pt x="10" y="-2" on="1"/>
        <pt x="18" y="336" on="1"/>
        <pt x="102" y="336" on="1"/>
        <pt x="154" y="336" on="0"/>
        <pt x="162" y="371" on="1"/>
        <pt x="167" y="391" on="0"/>
        <pt x="203" y="556" on="0"/>
        <pt x="234" y="695" on="0"/>
        <pt x="266" y="840" on="0"/>
        <pt x="297" y="980" on="0"/>
        <pt x="322" y="1093" on="0"/>
        <pt x="338" y="1168" on="0"/>
        <pt x="340" y="1179" on="1"/>
        <pt x="345" y="1200" on="0"/>
        <pt x="319" y="1200" on="1"/>
        <pt x="199" y="1200" on="1"/>
        <pt x="195" y="1536" on="1"/>
        <pt x="748" y="1532" on="1"/>
        <pt x="750" y="1206" on="1"/>
        <pt x="610" y="1202" on="0"/>
        <pt x="608" y="1202" on="1"/>
        <pt x="593" y="1202" on="0"/>
        <pt x="596" y="1184" on="1"/>
        <pt x="596" y="1179" on="0"/>
        <pt x="596" y="1174" on="0"/>
        <pt x="608" y="1106" on="0"/>
        <pt x="627" y="996" on="0"/>
        <pt x="652" y="856" on="0"/>
        <pt x="678" y="710" on="0"/>
        <pt x="704" y="568" on="0"/>
        <pt x="714" y="512" on="1"/>
        <pt x="740" y="366" on="0"/>
        <pt x="754" y="336" on="0"/>
        <pt x="774" y="336" on="1"/>
        <pt x="852" y="336" on="1"/>
        <pt x="856" y="-4" on="1"/>
        <pt x="559" y="-116" on="0"/>
        <pt x="559" y="-260" on="1"/>
        <pt x="559" y="-333" on="0"/>
        <pt x="630" y="-356" on="1"/>
        <pt x="656" y="-365" on="0"/>
      </contour>
      <contour>
        <pt x="332" y="791" on="1"/>
        <pt x="586" y="793" on="1"/>
        <pt x="573" y="867" on="0"/>
        <pt x="562" y="937" on="1"/>
        <pt x="521" y="1182" on="0"/>
        <pt x="508" y="1202" on="0"/>
        <pt x="496" y="1202" on="1"/>
        <pt x="436" y="1202" on="1"/>
        <pt x="418" y="1202" on="0"/>
        <pt x="414" y="1182" on="1"/>
      </contour>
    </TTGlyph>
    <TTGlyph name="Aring" xMin="10" yMin="-4" xMax="856" yMax="1986">
      <component glyphName="A" x="0" y="0" flags="0x1204"/>
      <component glyphName="ring" x="31" y="481" flags="0x1004"/>
    </TTGlyph>
    <TTGlyph name="Atilde" xMin="10" yMin="-4" xMax="856" yMax="1962">
      <component glyphName="A" x="0" y="0" flags="0x1204"/>
      <component glyphName="tilde" x="35" y="481" flags="0x1004"/>
    </TTGlyph>
    <TTGlyph name="B" xMin="49" yMin="0" xMax="834" yMax="1536">
      <contour>
        <pt x="147" y="1204" on="1"/>
        <pt x="138" y="1204" on="0"/>
        <pt x="66" y="1196" on="1"/>
        <pt x="49" y="1524" on="1"/>
        <pt x="329" y="1536" on="0"/>
        <pt x="467" y="1536" on="0"/>
        <pt x="583" y="1503" on="0"/>
        <pt x="634" y="1460" on="1"/>
        <pt x="754" y="1357" on="0"/>
        <pt x="754" y="1147" on="1"/>
        <pt x="754" y="915" on="0"/>
        <pt x="656" y="836" on="1"/>
        <pt x="632" y="816" on="0"/>
        <pt x="614" y="801" on="1"/>
        <pt x="834" y="737" on="0"/>
        <pt x="834" y="401" on="1"/>
        <pt x="834" y="105" on="0"/>
        <pt x="634" y="26" on="1"/>
        <pt x="567" y="0" on="0"/>
        <pt x="479" y="0" on="1"/>
        <pt x="72" y="0" on="1"/>
        <pt x="70" y="340" on="1"/>
        <pt x="172" y="340" on="1"/>
        <pt x="211" y="340" on="0"/>
        <pt x="220" y="388" on="1"/>
        <pt x="223" y="401" on="0"/>
        <pt x="223" y="410" on="1"/>
        <pt x="223" y="1096" on="1"/>
        <pt x="223" y="1204" on="0"/>
      </contour>
      <contour>
        <pt x="297" y="418" on="1"/>
        <pt x="297" y="376" on="0"/>
        <pt x="317" y="361" on="1"/>
        <pt x="345" y="340" on="0"/>
        <pt x="376" y="340" on="1"/>
        <pt x="455" y="340" on="1"/>
        <pt x="608" y="340" on="0"/>
        <pt x="672" y="366" on="0"/>
        <pt x="692" y="390" on="1"/>
        <pt x="731" y="439" on="0"/>
        <pt x="731" y="543" on="1"/>
        <pt x="731" y="633" on="0"/>
        <pt x="676" y="693" on="1"/>
        <pt x="623" y="752" on="0"/>
        <pt x="535" y="752" on="1"/>
        <pt x="340" y="752" on="1"/>
        <pt x="309" y="752" on="0"/>
        <pt x="304" y="740" on="1"/>
        <pt x="297" y="726" on="0"/>
        <pt x="297" y="696" on="1"/>
      </contour>
      <contour>
        <pt x="299" y="860" on="1"/>
        <pt x="300" y="838" on="0"/>
        <pt x="311" y="823" on="0"/>
        <pt x="334" y="823" on="1"/>
        <pt x="502" y="823" on="1"/>
        <pt x="605" y="823" on="0"/>
        <pt x="650" y="926" on="1"/>
        <pt x="668" y="966" on="0"/>
        <pt x="668" y="1072" on="0"/>
        <pt x="643" y="1131" on="0"/>
        <pt x="603" y="1170" on="0"/>
        <pt x="555" y="1191" on="0"/>
        <pt x="533" y="1196" on="1"/>
        <pt x="503" y="1204" on="0"/>
        <pt x="467" y="1204" on="1"/>
        <pt x="360" y="1204" on="1"/>
        <pt x="333" y="1204" on="0"/>
        <pt x="300" y="1179" on="0"/>
        <pt x="297" y="1141" on="1"/>
      </contour>
    </TTGlyph>
    <TTGlyph name="C" xMin="72" yMin="0" xMax="729" yMax="1536">
      <contour>
        <pt x="76" y="330" on="1"/>
        <pt x="72" y="1168" on="1"/>
        <pt x="72" y="1270" on="1"/>
        <pt x="72" y="1458" on="0"/>
        <pt x="234" y="1517" on="1"/>
        <pt x="287" y="1536" on="0"/>
        <pt x="348" y="1536" on="1"/>
        <pt x="453" y="1536" on="1"/>
        <pt x="544" y="1536" on="0"/>
        <pt x="605" y="1484" on="1"/>
        <pt x="639" y="1454" on="0"/>
        <pt x="655" y="1423" on="1"/>
        <pt x="651" y="1532" on="1"/>
        <pt x="729" y="1532" on="1"/>
        <pt x="725" y="948" on="1"/>
        <pt x="655" y="944" on="1"/>
        <pt x="655" y="1059" on="1"/>
        <pt x="655" y="1124" on="0"/>
        <pt x="579" y="1200" on="0"/>
        <pt x="508" y="1200" on="1"/>
        <pt x="307" y="1202" on="1"/>
        <pt x="196" y="1202" on="0"/>
        <pt x="158" y="1113" on="1"/>
        <pt x="145" y="1084" on="0"/>
        <pt x="145" y="1047" on="1"/>
        <pt x="150" y="492" on="1"/>
        <pt x="150" y="366" on="0"/>
        <pt x="238" y="347" on="1"/>
        <pt x="262" y="342" on="0"/>
        <pt x="285" y="342" on="1"/>
        <pt x="522" y="342" on="1"/>
        <pt x="585" y="342" on="0"/>
        <pt x="655" y="405" on="0"/>
        <pt x="655" y="453" on="1"/>
        <pt x="656" y="526" on="1"/>
        <pt x="656" y="563" on="0"/>
        <pt x="651" y="643" on="1"/>
        <pt x="723" y="649" on="1"/>
        <pt x="723" y="597" on="0"/>
        <pt x="724" y="536" on="1"/>
        <pt x="725" y="276" on="1"/>
        <pt x="725" y="69" on="0"/>
        <pt x="604" y="18" on="1"/>
        <pt x="566" y="2" on="0"/>
        <pt x="528" y="2" on="1"/>
        <pt x="474" y="2" on="1"/>
        <pt x="430" y="1" on="1"/>
        <pt x="368" y="0" on="1"/>
        <pt x="301" y="0" on="1"/>
        <pt x="76" y="0" on="0"/>
        <pt x="76" y="256" on="1"/>
      </contour>
    </TTGlyph>
    <TTGlyph name="Cacute" xMin="72" yMin="0" xMax="729" yMax="1982">
      <component glyphName="C" x="0" y="0" flags="0x1204"/>
      <component glyphName="acute" x="55" y="481" flags="0x1004"/>
    </TTGlyph>
    <TTGlyph name="Ccaron" xMin="72" yMin="0" xMax="729" yMax="1974">
      <component glyphName="C" x="0" y="0" flags="0x1204"/>
      <component glyphName="caron" x="-15" y="481" flags="0x1004"/>
    </TTGlyph>
    <TTGlyph name="Ccedilla" xMin="72" yMin="-473" xMax="729" yMax="1536">
      <contour>
        <pt x="76" y="330" on="1"/>
        <pt x="72" y="1168" on="1"/>
        <pt x="72" y="1270" on="1"/>
        <pt x="72" y="1458" on="0"/>
        <pt x="234" y="1517" on="1"/>
        <pt x="287" y="1536" on="0"/>
        <pt x="348" y="1536" on="1"/>
        <pt x="453" y="1536" on="1"/>
        <pt x="544" y="1536" on="0"/>
        <pt x="605" y="1484" on="1"/>
        <pt x="639" y="1454" on="0"/>
        <pt x="655" y="1423" on="1"/>
        <pt x="651" y="1532" on="1"/>
        <pt x="729" y="1532" on="1"/>
        <pt x="725" y="948" on="1"/>
        <pt x="655" y="944" on="1"/>
        <pt x="655" y="1059" on="1"/>
        <pt x="655" y="1124" on="0"/>
        <pt x="579" y="1200" on="0"/>
        <pt x="508" y="1200" on="1"/>
        <pt x="307" y="1202" on="1"/>
        <pt x="196" y="1202" on="0"/>
        <pt x="158" y="1113" on="1"/>
        <pt x="145" y="1084" on="0"/>
        <pt x="145" y="1047" on="1"/>
        <pt x="150" y="492" on="1"/>
        <pt x="150" y="366" on="0"/>
        <pt x="238" y="347" on="1"/>
        <pt x="262" y="342" on="0"/>
        <pt x="285" y="342" on="1"/>
        <pt x="522" y="342" on="1"/>
        <pt x="585" y="342" on="0"/>
        <pt x="655" y="405" on="0"/>
        <pt x="655" y="453" on="1"/>
        <pt x="656" y="526" on="1"/>
        <pt x="656" y="563" on="0"/>
        <pt x="651" y="643" on="1"/>
        <pt x="723" y="649" on="1"/>
        <pt x="723" y="597" on="0"/>
        <pt x="724" y="536" on="1"/>
        <pt x="725" y="276" on="1"/>
        <pt x="725" y="69" on="0"/>
        <pt x="604" y="18" on="1"/>
        <pt x="566" y="2" on="0"/>
        <pt x="520" y="2" on="1"/>
        <pt x="450" y="1" on="1"/>
        <pt x="416" y="0" on="1"/>
        <pt x="416" y="-121" on="1"/>
        <pt x="448" y="-117" on="0"/>
        <pt x="506" y="-117" on="0"/>
        <pt x="571" y="-136" on="0"/>
        <pt x="596" y="-155" on="1"/>
        <pt x="655" y="-199" on="0"/>
        <pt x="655" y="-312" on="0"/>
        <pt x="626" y="-387" on="0"/>
        <pt x="596" y="-414" on="1"/>
        <pt x="534" y="-473" on="0"/>
        <pt x="271" y="-473" on="0"/>
        <pt x="141" y="-416" on="1"/>
        <pt x="143" y="-328" on="1"/>
        <pt x="292" y="-391" on="0"/>
        <pt x="395" y="-391" on="1"/>
        <pt x="573" y="-391" on="0"/>
        <pt x="573" y="-281" on="1"/>
        <pt x="573" y="-202" on="0"/>
        <pt x="476" y="-196" on="1"/>
        <pt x="450" y="-195" on="0"/>
        <pt x="412" y="-195" on="0"/>
        <pt x="336" y="-203" on="1"/>
        <pt x="334" y="0" on="1"/>
        <pt x="301" y="0" on="1"/>
        <pt x="76" y="0" on="0"/>
        <pt x="76" y="256" on="1"/>
      </contour>
    </TTGlyph>
    <TTGlyph name="Ccircumflex" xMin="72" yMin="0" xMax="729" yMax="1974">
      <component glyphName="C" x="0" y="0" flags="0x1204"/>
      <component glyphName="circumflex" x="-38" y="481" flags="0x1004"/>
    </TTGlyph>
    <TTGlyph name="Cdotaccent" xMin="72" yMin="0" xMax="729" yMax="1896">
      <component glyphName="C" x="0" y="0" flags="0x1204"/>
      <component glyphName="dotaccent" x="-36" y="481" flags="0x1004"/>
    </TTGlyph>
    <TTGlyph name="D" xMin="51" yMin="0" xMax="760" yMax="1536">
      <contour>
        <pt x="223" y="473" on="1"/>
        <pt x="219" y="1041" on="1"/>
        <pt x="219" y="1090" on="1"/>
        <pt x="219" y="1148" on="0"/>
        <pt x="180" y="1196" on="0"/>
        <pt x="133" y="1196" on="1"/>
        <pt x="51" y="1196" on="1"/>
        <pt x="51" y="1534" on="1"/>
        <pt x="130" y="1534" on="0"/>
        <pt x="212" y="1535" on="1"/>
        <pt x="520" y="1536" on="1"/>
        <pt x="721" y="1536" on="0"/>
        <pt x="750" y="1396" on="1"/>
        <pt x="760" y="1351" on="0"/>
        <pt x="760" y="1296" on="1"/>
        <pt x="760" y="256" on="1"/>
        <pt x="760" y="31" on="0"/>
        <pt x="623" y="7" on="1"/>
        <pt x="583" y="0" on="0"/>
        <pt x="539" y="0" on="1"/>
        <pt x="61" y="0" on="1"/>
        <pt x="61" y="332" on="1"/>
        <pt x="168" y="332" on="1"/>
        <pt x="204" y="332" on="0"/>
        <pt x="212" y="349" on="1"/>
        <pt x="223" y="373" on="0"/>
        <pt x="223" y="408" on="1"/>
      </contour>
      <contour>
        <pt x="295" y="771" on="1"/>
        <pt x="297" y="424" on="1"/>
        <pt x="297" y="379" on="1"/>
        <pt x="297" y="335" on="0"/>
        <pt x="330" y="330" on="1"/>
        <pt x="339" y="328" on="0"/>
        <pt x="348" y="328" on="1"/>
        <pt x="612" y="328" on="1"/>
        <pt x="679" y="328" on="0"/>
        <pt x="684" y="382" on="1"/>
        <pt x="686" y="398" on="0"/>
        <pt x="686" y="416" on="1"/>
        <pt x="686" y="1120" on="1"/>
        <pt x="686" y="1199" on="0"/>
        <pt x="628" y="1208" on="1"/>
        <pt x="611" y="1210" on="0"/>
        <pt x="590" y="1210" on="1"/>
        <pt x="352" y="1210" on="1"/>
        <pt x="315" y="1210" on="0"/>
        <pt x="293" y="1163" on="0"/>
        <pt x="293" y="1130" on="1"/>
        <pt x="294" y="931" on="0"/>
      </contour>
    </TTGlyph>
    <TTGlyph name="Dcaron" xMin="51" yMin="0" xMax="760" yMax="1974">
      <component glyphName="D" x="0" y="0" flags="0x1204"/>
      <component glyphName="caron" x="-26" y="481" flags="0x1004"/>
    </TTGlyph>
    <TTGlyph name="Dcroat" xMin="51" yMin="0" xMax="760" yMax="1536">
      <contour>
        <pt x="220" y="366" on="0"/>
        <pt x="223" y="405" on="0"/>
        <pt x="223" y="534" on="0"/>
        <pt x="219" y="762" on="1"/>
        <pt x="70" y="762" on="1"/>
        <pt x="68" y="834" on="1"/>
        <pt x="219" y="834" on="1"/>
        <pt x="219" y="1090" on="1"/>
        <pt x="219" y="1148" on="0"/>
        <pt x="180" y="1196" on="0"/>
        <pt x="133" y="1196" on="1"/>
        <pt x="51" y="1196" on="1"/>
        <pt x="51" y="1534" on="1"/>
        <pt x="130" y="1534" on="0"/>
        <pt x="212" y="1535" on="1"/>
        <pt x="520" y="1536" on="1"/>
        <pt x="721" y="1536" on="0"/>
        <pt x="750" y="1396" on="1"/>
        <pt x="760" y="1351" on="0"/>
        <pt x="760" y="1296" on="1"/>
        <pt x="760" y="256" on="1"/>
        <pt x="760" y="31" on="0"/>
        <pt x="623" y="7" on="1"/>
        <pt x="583" y="0" on="0"/>
        <pt x="539" y="0" on="1"/>
        <pt x="61" y="0" on="1"/>
        <pt x="61" y="332" on="1"/>
        <pt x="168" y="332" on="1"/>
        <pt x="204" y="332" on="0"/>
      </contour>
      <contour>
        <pt x="296" y="510" on="1"/>
        <pt x="297" y="379" on="1"/>
        <pt x="297" y="335" on="0"/>
        <pt x="330" y="330" on="1"/>
        <pt x="339" y="328" on="0"/>
        <pt x="348" y="328" on="1"/>
        <pt x="612" y="328" on="1"/>
        <pt x="679" y="328" on="0"/>
        <pt x="684" y="382" on="1"/>
        <pt x="686" y="398" on="0"/>
        <pt x="686" y="416" on="1"/>
        <pt x="686" y="1120" on="1"/>
        <pt x="686" y="1199" on="0"/>
        <pt x="628" y="1208" on="1"/>
        <pt x="611" y="1210" on="0"/>
        <pt x="590" y="1210" on="1"/>
        <pt x="352" y="1210" on="1"/>
        <pt x="315" y="1210" on="0"/>
        <pt x="293" y="1163" on="0"/>
        <pt x="293" y="1130" on="1"/>
        <pt x="293" y="1041" on="1"/>
        <pt x="293" y="952" on="0"/>
        <pt x="295" y="834" on="1"/>
        <pt x="498" y="834" on="1"/>
        <pt x="498" y="762" on="1"/>
        <pt x="295" y="762" on="1"/>
      </contour>
    </TTGlyph>
    <TTGlyph name="E" xMin="35" yMin="-6" xMax="780" yMax="1536">
      <contour>
        <pt x="180" y="344" on="1"/>
        <pt x="223" y="344" on="0"/>
        <pt x="223" y="422" on="1"/>
        <pt x="223" y="1116" on="1"/>
        <pt x="223" y="1185" on="0"/>
        <pt x="182" y="1197" on="1"/>
        <pt x="157" y="1204" on="0"/>
        <pt x="92" y="1204" on="1"/>
        <pt x="35" y="1204" on="1"/>
        <pt x="35" y="1532" on="1"/>
        <pt x="125" y="1533" on="0"/>
        <pt x="207" y="1534" on="1"/>
        <pt x="411" y="1536" on="1"/>
        <pt x="739" y="1536" on="1"/>
        <pt x="733" y="1024" on="1"/>
        <pt x="659" y="1022" on="1"/>
        <pt x="662" y="1043" on="0"/>
        <pt x="662" y="1145" on="0"/>
        <pt x="632" y="1183" on="0"/>
        <pt x="605" y="1194" on="1"/>
        <pt x="557" y="1212" on="0"/>
        <pt x="395" y="1212" on="0"/>
        <pt x="332" y="1196" on="0"/>
        <pt x="317" y="1185" on="1"/>
        <pt x="297" y="1170" on="0"/>
        <pt x="297" y="1137" on="1"/>
        <pt x="297" y="827" on="1"/>
        <pt x="440" y="827" on="1"/>
        <pt x="457" y="827" on="0"/>
        <pt x="487" y="852" on="0"/>
        <pt x="490" y="899" on="0"/>
        <pt x="490" y="923" on="1"/>
        <pt x="490" y="923" on="0"/>
        <pt x="490" y="969" on="1"/>
        <pt x="490" y="995" on="0"/>
        <pt x="489" y="1022" on="1"/>
        <pt x="563" y="1026" on="1"/>
        <pt x="569" y="526" on="1"/>
        <pt x="498" y="526" on="1"/>
        <pt x="498" y="593" on="1"/>
        <pt x="497" y="621" on="0"/>
        <pt x="496" y="650" on="1"/>
        <pt x="494" y="710" on="0"/>
        <pt x="471" y="742" on="0"/>
        <pt x="460" y="748" on="1"/>
        <pt x="443" y="758" on="0"/>
        <pt x="428" y="758" on="1"/>
        <pt x="396" y="758" on="0"/>
        <pt x="326" y="755" on="0"/>
        <pt x="297" y="754" on="1"/>
        <pt x="296" y="682" on="0"/>
        <pt x="296" y="619" on="1"/>
        <pt x="295" y="510" on="1"/>
        <pt x="295" y="428" on="1"/>
        <pt x="295" y="381" on="0"/>
        <pt x="314" y="364" on="1"/>
        <pt x="342" y="340" on="0"/>
        <pt x="367" y="340" on="1"/>
        <pt x="637" y="340" on="1"/>
        <pt x="709" y="340" on="0"/>
        <pt x="709" y="428" on="1"/>
        <pt x="708" y="509" on="1"/>
        <pt x="707" y="531" on="0"/>
        <pt x="707" y="553" on="1"/>
        <pt x="780" y="555" on="1"/>
        <pt x="768" y="-6" on="1"/>
        <pt x="595" y="4" on="0"/>
        <pt x="531" y="4" on="1"/>
        <pt x="436" y="4" on="1"/>
        <pt x="387" y="4" on="1"/>
        <pt x="200" y="2" on="1"/>
        <pt x="127" y="1" on="0"/>
        <pt x="49" y="0" on="1"/>
        <pt x="49" y="344" on="1"/>
      </contour>
    </TTGlyph>
    <TTGlyph name="Eacute" xMin="35" yMin="-6" xMax="780" yMax="1982">
      <component glyphName="E" x="0" y="0" flags="0x1204"/>
      <component glyphName="acute" x="43" y="481" flags="0x1004"/>
    </TTGlyph>
    <TTGlyph name="Ebreve" xMin="35" yMin="-6" xMax="780" yMax="1935">
      <component glyphName="E" x="0" y="0" flags="0x1204"/>
      <component glyphName="breve" x="-38" y="481" flags="0x1004"/>
    </TTGlyph>
    <TTGlyph name="Ecaron" xMin="35" yMin="-6" xMax="780" yMax="1974">
      <component glyphName="E" x="0" y="0" flags="0x1204"/>
      <component glyphName="caron" x="-28" y="481" flags="0x1004"/>
    </TTGlyph>
    <TTGlyph name="Ecircumflex" xMin="35" yMin="-6" xMax="780" yMax="1974">
      <component glyphName="E" x="0" y="0" flags="0x1204"/>
      <component glyphName="circumflex" x="-50" y="481" flags="0x1004"/>
    </TTGlyph>
    <TTGlyph name="Edieresis" xMin="35" yMin="-6" xMax="780" yMax="1855">
      <component glyphName="E" x="0" y="0" flags="0x1204"/>
      <component glyphName="dieresis" x="-52" y="481" flags="0x1004"/>
    </TTGlyph>
    <TTGlyph name="Edotaccent" xMin="35" yMin="-6" xMax="780" yMax="1896">
      <component glyphName="E" x="0" y="0" flags="0x1204"/>
      <component glyphName="dotaccent" x="-48" y="481" flags="0x1004"/>
    </TTGlyph>
    <TTGlyph name="Egrave" xMin="35" yMin="-6" xMax="780" yMax="1982">
      <component glyphName="E" x="0" y="0" flags="0x1204"/>
      <component glyphName="grave" x="-138" y="481" flags="0x1004"/>
    </TTGlyph>
    <TTGlyph name="Emacron" xMin="35" yMin="-6" xMax="780" yMax="1804">
      <component glyphName="E" x="0" y="0" flags="0x1204"/>
      <component glyphName="macron" x="-44" y="481" flags="0x1004"/>
    </TTGlyph>
    <TTGlyph name="Eng" xMin="55" yMin="-485" xMax="901" yMax="1536">
      <contour>
        <pt x="586" y="-180" on="1"/>
        <pt x="662" y="-180" on="0"/>
        <pt x="662" y="-90" on="1"/>
        <pt x="662" y="104" on="1"/>
        <pt x="317" y="1204" on="1"/>
        <pt x="314" y="1219" on="0"/>
        <pt x="302" y="1218" on="1"/>
        <pt x="291" y="1216" on="0"/>
        <pt x="291" y="1204" on="1"/>
        <pt x="291" y="412" on="1"/>
        <pt x="291" y="346" on="0"/>
        <pt x="342" y="346" on="1"/>
        <pt x="446" y="346" on="1"/>
        <pt x="459" y="-2" on="1"/>
        <pt x="55" y="2" on="1"/>
        <pt x="55" y="334" on="1"/>
        <pt x="83" y="334" on="0"/>
        <pt x="108" y="335" on="1"/>
        <pt x="178" y="336" on="1"/>
        <pt x="215" y="336" on="0"/>
        <pt x="215" y="391" on="1"/>
        <pt x="215" y="1178" on="1"/>
        <pt x="215" y="1195" on="0"/>
        <pt x="202" y="1204" on="0"/>
        <pt x="180" y="1204" on="1"/>
        <pt x="59" y="1204" on="1"/>
        <pt x="59" y="1536" on="1"/>
        <pt x="260" y="1536" on="1"/>
        <pt x="293" y="1536" on="0"/>
        <pt x="303" y="1509" on="0"/>
        <pt x="307" y="1497" on="1"/>
        <pt x="666" y="352" on="1"/>
        <pt x="678" y="970" on="0"/>
        <pt x="678" y="1165" on="1"/>
        <pt x="678" y="1210" on="0"/>
        <pt x="623" y="1210" on="1"/>
        <pt x="555" y="1209" on="1"/>
        <pt x="538" y="1208" on="0"/>
        <pt x="524" y="1208" on="1"/>
        <pt x="510" y="1532" on="1"/>
        <pt x="662" y="1536" on="0"/>
        <pt x="696" y="1536" on="1"/>
        <pt x="901" y="1536" on="1"/>
        <pt x="889" y="1210" on="1"/>
        <pt x="870" y="1210" on="0"/>
        <pt x="853" y="1211" on="1"/>
        <pt x="799" y="1212" on="1"/>
        <pt x="752" y="1212" on="0"/>
        <pt x="752" y="1161" on="1"/>
        <pt x="735" y="-285" on="1"/>
        <pt x="735" y="-435" on="0"/>
        <pt x="632" y="-474" on="1"/>
        <pt x="602" y="-485" on="0"/>
        <pt x="567" y="-485" on="1"/>
        <pt x="519" y="-484" on="1"/>
        <pt x="459" y="-483" on="1"/>
        <pt x="412" y="-483" on="0"/>
        <pt x="387" y="-457" on="1"/>
        <pt x="342" y="-410" on="0"/>
        <pt x="342" y="-362" on="1"/>
        <pt x="342" y="-74" on="1"/>
        <pt x="414" y="-74" on="1"/>
        <pt x="414" y="-135" on="1"/>
        <pt x="414" y="-176" on="0"/>
        <pt x="461" y="-180" on="1"/>
        <pt x="489" y="-182" on="0"/>
        <pt x="561" y="-180" on="0"/>
      </contour>
    </TTGlyph>
    <TTGlyph name="Eogonek" xMin="35" yMin="-446" xMax="780" yMax="1536">
      <contour>
        <pt x="180" y="344" on="1"/>
        <pt x="223" y="344" on="0"/>
        <pt x="223" y="422" on="1"/>
        <pt x="223" y="1116" on="1"/>
        <pt x="223" y="1185" on="0"/>
        <pt x="182" y="1197" on="1"/>
        <pt x="157" y="1204" on="0"/>
        <pt x="92" y="1204" on="1"/>
        <pt x="35" y="1204" on="1"/>
        <pt x="35" y="1532" on="1"/>
        <pt x="125" y="1533" on="0"/>
        <pt x="207" y="1534" on="1"/>
        <pt x="411" y="1536" on="1"/>
        <pt x="739" y="1536" on="1"/>
        <pt x="733" y="1024" on="1"/>
        <pt x="659" y="1022" on="1"/>
        <pt x="662" y="1043" on="0"/>
        <pt x="662" y="1145" on="0"/>
        <pt x="632" y="1183" on="0"/>
        <pt x="605" y="1194" on="1"/>
        <pt x="557" y="1212" on="0"/>
        <pt x="395" y="1212" on="0"/>
        <pt x="332" y="1196" on="0"/>
        <pt x="317" y="1185" on="1"/>
        <pt x="297" y="1170" on="0"/>
        <pt x="297" y="1137" on="1"/>
        <pt x="297" y="827" on="1"/>
        <pt x="440" y="827" on="1"/>
        <pt x="457" y="827" on="0"/>
        <pt x="487" y="852" on="0"/>
        <pt x="490" y="899" on="0"/>
        <pt x="490" y="923" on="1"/>
        <pt x="490" y="923" on="0"/>
        <pt x="490" y="969" on="1"/>
        <pt x="490" y="995" on="0"/>
        <pt x="489" y="1022" on="1"/>
        <pt x="563" y="1026" on="1"/>
        <pt x="569" y="526" on="1"/>
        <pt x="498" y="526" on="1"/>
        <pt x="498" y="593" on="1"/>
        <pt x="497" y="621" on="0"/>
        <pt x="496" y="650" on="1"/>
        <pt x="494" y="710" on="0"/>
        <pt x="471" y="742" on="0"/>
        <pt x="460" y="748" on="1"/>
        <pt x="443" y="758" on="0"/>
        <pt x="428" y="758" on="1"/>
        <pt x="396" y="758" on="0"/>
        <pt x="326" y="755" on="0"/>
        <pt x="297" y="754" on="1"/>
        <pt x="296" y="682" on="0"/>
        <pt x="296" y="619" on="1"/>
        <pt x="295" y="510" on="1"/>
        <pt x="295" y="428" on="1"/>
        <pt x="295" y="381" on="0"/>
        <pt x="314" y="364" on="1"/>
        <pt x="342" y="340" on="0"/>
        <pt x="367" y="340" on="1"/>
        <pt x="637" y="340" on="1"/>
        <pt x="709" y="340" on="0"/>
        <pt x="709" y="428" on="1"/>
        <pt x="708" y="509" on="1"/>
        <pt x="707" y="531" on="0"/>
        <pt x="707" y="553" on="1"/>
        <pt x="780" y="555" on="1"/>
        <pt x="766" y="2" on="1"/>
        <pt x="637" y="2" on="0"/>
        <pt x="536" y="-89" on="1"/>
        <pt x="442" y="-173" on="0"/>
        <pt x="442" y="-260" on="1"/>
        <pt x="442" y="-365" on="0"/>
        <pt x="578" y="-365" on="1"/>
        <pt x="686" y="-365" on="0"/>
        <pt x="778" y="-287" on="1"/>
        <pt x="780" y="-381" on="1"/>
        <pt x="701" y="-446" on="0"/>
        <pt x="472" y="-446" on="0"/>
        <pt x="360" y="-350" on="0"/>
        <pt x="360" y="-266" on="1"/>
        <pt x="360" y="-173" on="0"/>
        <pt x="433" y="-94" on="1"/>
        <pt x="494" y="-28" on="0"/>
        <pt x="580" y="4" on="1"/>
        <pt x="484" y="4" on="0"/>
        <pt x="387" y="4" on="1"/>
        <pt x="200" y="2" on="1"/>
        <pt x="127" y="1" on="0"/>
        <pt x="49" y="0" on="1"/>
        <pt x="49" y="344" on="1"/>
      </contour>
    </TTGlyph>
    <TTGlyph name="Eth" xMin="51" yMin="0" xMax="760" yMax="1536">
      <contour>
        <pt x="220" y="366" on="0"/>
        <pt x="223" y="405" on="0"/>
        <pt x="223" y="534" on="0"/>
        <pt x="219" y="762" on="1"/>
        <pt x="70" y="762" on="1"/>
        <pt x="68" y="834" on="1"/>
        <pt x="219" y="834" on="1"/>
        <pt x="219" y="1090" on="1"/>
        <pt x="219" y="1148" on="0"/>
        <pt x="180" y="1196" on="0"/>
        <pt x="133" y="1196" on="1"/>
        <pt x="51" y="1196" on="1"/>
        <pt x="51" y="1534" on="1"/>
        <pt x="130" y="1534" on="0"/>
        <pt x="212" y="1535" on="1"/>
        <pt x="520" y="1536" on="1"/>
        <pt x="721" y="1536" on="0"/>
        <pt x="750" y="1396" on="1"/>
        <pt x="760" y="1351" on="0"/>
        <pt x="760" y="1296" on="1"/>
        <pt x="760" y="256" on="1"/>
        <pt x="760" y="31" on="0"/>
        <pt x="623" y="7" on="1"/>
        <pt x="583" y="0" on="0"/>
        <pt x="539" y="0" on="1"/>
        <pt x="61" y="0" on="1"/>
        <pt x="61" y="332" on="1"/>
        <pt x="168" y="332" on="1"/>
        <pt x="204" y="332" on="0"/>
      </contour>
      <contour>
        <pt x="296" y="510" on="1"/>
        <pt x="297" y="379" on="1"/>
        <pt x="297" y="335" on="0"/>
        <pt x="330" y="330" on="1"/>
        <pt x="339" y="328" on="0"/>
        <pt x="348" y="328" on="1"/>
        <pt x="612" y="328" on="1"/>
        <pt x="679" y="328" on="0"/>
        <pt x="684" y="382" on="1"/>
        <pt x="686" y="398" on="0"/>
        <pt x="686" y="416" on="1"/>
        <pt x="686" y="1120" on="1"/>
        <pt x="686" y="1199" on="0"/>
        <pt x="628" y="1208" on="1"/>
        <pt x="611" y="1210" on="0"/>
        <pt x="590" y="1210" on="1"/>
        <pt x="352" y="1210" on="1"/>
        <pt x="315" y="1210" on="0"/>
        <pt x="293" y="1163" on="0"/>
        <pt x="293" y="1130" on="1"/>
        <pt x="293" y="1041" on="1"/>
        <pt x="293" y="952" on="0"/>
        <pt x="295" y="834" on="1"/>
        <pt x="498" y="834" on="1"/>
        <pt x="498" y="762" on="1"/>
        <pt x="295" y="762" on="1"/>
      </contour>
    </TTGlyph>
    <TTGlyph name="Euro" xMin="0" yMin="0" xMax="696" yMax="1378">
      <contour>
        <pt x="473" y="1042" on="1"/>
        <pt x="334" y="1044" on="1"/>
        <pt x="223" y="1044" on="0"/>
        <pt x="184" y="955" on="1"/>
        <pt x="172" y="926" on="0"/>
        <pt x="172" y="889" on="1"/>
        <pt x="172" y="838" on="1"/>
        <pt x="481" y="840" on="1"/>
        <pt x="483" y="764" on="1"/>
        <pt x="174" y="762" on="1"/>
        <pt x="174" y="653" on="1"/>
        <pt x="455" y="655" on="1"/>
        <pt x="453" y="580" on="1"/>
        <pt x="176" y="578" on="1"/>
        <pt x="176" y="492" on="1"/>
        <pt x="176" y="366" on="0"/>
        <pt x="265" y="347" on="1"/>
        <pt x="289" y="342" on="0"/>
        <pt x="311" y="342" on="1"/>
        <pt x="487" y="342" on="1"/>
        <pt x="550" y="342" on="0"/>
        <pt x="621" y="405" on="0"/>
        <pt x="621" y="453" on="1"/>
        <pt x="622" y="484" on="1"/>
        <pt x="622" y="486" on="1"/>
        <pt x="616" y="561" on="1"/>
        <pt x="688" y="561" on="1"/>
        <pt x="688" y="533" on="0"/>
        <pt x="689" y="492" on="1"/>
        <pt x="690" y="276" on="1"/>
        <pt x="690" y="69" on="0"/>
        <pt x="569" y="18" on="1"/>
        <pt x="531" y="2" on="0"/>
        <pt x="493" y="2" on="1"/>
        <pt x="444" y="2" on="1"/>
        <pt x="391" y="0" on="1"/>
        <pt x="328" y="0" on="1"/>
        <pt x="102" y="0" on="0"/>
        <pt x="102" y="256" on="1"/>
        <pt x="100" y="578" on="1"/>
        <pt x="2" y="578" on="1"/>
        <pt x="2" y="653" on="1"/>
        <pt x="100" y="653" on="1"/>
        <pt x="98" y="762" on="1"/>
        <pt x="0" y="762" on="1"/>
        <pt x="2" y="838" on="1"/>
        <pt x="98" y="838" on="1"/>
        <pt x="98" y="1112" on="1"/>
        <pt x="98" y="1264" on="0"/>
        <pt x="170" y="1330" on="1"/>
        <pt x="224" y="1378" on="0"/>
        <pt x="313" y="1378" on="1"/>
        <pt x="461" y="1378" on="1"/>
        <pt x="573" y="1378" on="0"/>
        <pt x="699" y="1251" on="0"/>
        <pt x="696" y="1126" on="1"/>
        <pt x="690" y="852" on="1"/>
        <pt x="621" y="852" on="1"/>
        <pt x="621" y="901" on="1"/>
        <pt x="621" y="966" on="0"/>
        <pt x="544" y="1042" on="0"/>
      </contour>
    </TTGlyph>
    <TTGlyph name="F" xMin="35" yMin="-2" xMax="735" yMax="1536">
      <contour>
        <pt x="231" y="1180" on="1"/>
        <pt x="231" y="1202" on="0"/>
        <pt x="212" y="1202" on="1"/>
        <pt x="203" y="1202" on="0"/>
        <pt x="35" y="1198" on="1"/>
        <pt x="41" y="1530" on="1"/>
        <pt x="123" y="1531" on="0"/>
        <pt x="197" y="1533" on="1"/>
        <pt x="422" y="1536" on="1"/>
        <pt x="729" y="1536" on="1"/>
        <pt x="735" y="1284" on="0"/>
        <pt x="735" y="1274" on="1"/>
        <pt x="734" y="1056" on="1"/>
        <pt x="733" y="992" on="0"/>
        <pt x="733" y="924" on="1"/>
        <pt x="666" y="930" on="1"/>
        <pt x="666" y="950" on="0"/>
        <pt x="668" y="997" on="0"/>
        <pt x="669" y="1055" on="0"/>
        <pt x="671" y="1152" on="0"/>
        <pt x="604" y="1206" on="0"/>
        <pt x="547" y="1206" on="1"/>
        <pt x="476" y="1205" on="1"/>
        <pt x="384" y="1203" on="1"/>
        <pt x="332" y="1202" on="1"/>
        <pt x="307" y="1202" on="0"/>
        <pt x="307" y="1180" on="1"/>
        <pt x="295" y="840" on="1"/>
        <pt x="295" y="827" on="0"/>
        <pt x="315" y="827" on="1"/>
        <pt x="446" y="831" on="1"/>
        <pt x="483" y="831" on="0"/>
        <pt x="483" y="881" on="1"/>
        <pt x="483" y="904" on="0"/>
        <pt x="486" y="961" on="0"/>
        <pt x="487" y="985" on="1"/>
        <pt x="559" y="987" on="1"/>
        <pt x="541" y="582" on="1"/>
        <pt x="471" y="575" on="1"/>
        <pt x="479" y="735" on="0"/>
        <pt x="479" y="737" on="1"/>
        <pt x="479" y="760" on="0"/>
        <pt x="446" y="760" on="1"/>
        <pt x="384" y="759" on="1"/>
        <pt x="309" y="758" on="1"/>
        <pt x="295" y="758" on="0"/>
        <pt x="295" y="737" on="1"/>
        <pt x="287" y="399" on="1"/>
        <pt x="287" y="344" on="0"/>
        <pt x="350" y="344" on="1"/>
        <pt x="498" y="338" on="1"/>
        <pt x="496" y="-2" on="1"/>
        <pt x="43" y="2" on="1"/>
        <pt x="49" y="344" on="1"/>
        <pt x="81" y="345" on="0"/>
        <pt x="106" y="346" on="1"/>
        <pt x="154" y="348" on="0"/>
        <pt x="176" y="348" on="1"/>
        <pt x="219" y="348" on="0"/>
        <pt x="219" y="383" on="1"/>
      </contour>
    </TTGlyph>
    <TTGlyph name="G" xMin="72" yMin="-8" xMax="754" yMax="1548">
      <contour>
        <pt x="721" y="682" on="1"/>
        <pt x="680" y="682" on="0"/>
        <pt x="680" y="633" on="1"/>
        <pt x="680" y="0" on="1"/>
        <pt x="606" y="0" on="1"/>
        <pt x="607" y="9" on="0"/>
        <pt x="607" y="22" on="1"/>
        <pt x="607" y="78" on="1"/>
        <pt x="607" y="92" on="0"/>
        <pt x="608" y="102" on="1"/>
        <pt x="602" y="90" on="0"/>
        <pt x="583" y="53" on="0"/>
        <pt x="558" y="35" on="1"/>
        <pt x="497" y="-8" on="0"/>
        <pt x="269" y="-8" on="0"/>
        <pt x="161" y="10" on="0"/>
        <pt x="129" y="36" on="1"/>
        <pt x="72" y="84" on="0"/>
        <pt x="72" y="242" on="1"/>
        <pt x="72" y="1292" on="1"/>
        <pt x="72" y="1447" on="0"/>
        <pt x="146" y="1500" on="1"/>
        <pt x="210" y="1548" on="0"/>
        <pt x="375" y="1548" on="1"/>
        <pt x="514" y="1548" on="0"/>
        <pt x="579" y="1480" on="1"/>
        <pt x="594" y="1465" on="0"/>
        <pt x="602" y="1456" on="1"/>
        <pt x="602" y="1536" on="1"/>
        <pt x="674" y="1534" on="1"/>
        <pt x="674" y="1008" on="1"/>
        <pt x="604" y="1008" on="1"/>
        <pt x="604" y="1147" on="1"/>
        <pt x="604" y="1221" on="0"/>
        <pt x="518" y="1221" on="1"/>
        <pt x="240" y="1221" on="1"/>
        <pt x="157" y="1221" on="0"/>
        <pt x="148" y="1170" on="1"/>
        <pt x="145" y="1157" on="0"/>
        <pt x="145" y="1145" on="1"/>
        <pt x="145" y="424" on="1"/>
        <pt x="145" y="376" on="0"/>
        <pt x="164" y="362" on="1"/>
        <pt x="191" y="344" on="0"/>
        <pt x="236" y="344" on="1"/>
        <pt x="539" y="344" on="1"/>
        <pt x="610" y="344" on="0"/>
        <pt x="610" y="416" on="1"/>
        <pt x="610" y="631" on="1"/>
        <pt x="610" y="666" on="0"/>
        <pt x="600" y="675" on="1"/>
        <pt x="585" y="686" on="0"/>
        <pt x="543" y="686" on="1"/>
        <pt x="395" y="686" on="1"/>
        <pt x="395" y="760" on="1"/>
        <pt x="754" y="760" on="1"/>
        <pt x="754" y="682" on="1"/>
      </contour>
    </TTGlyph>
    <TTGlyph name="Gbreve" xMin="72" yMin="-8" xMax="754" yMax="1935">
      <component glyphName="G" x="0" y="0" flags="0x1204"/>
      <component glyphName="breve" x="-56" y="481" flags="0x1004"/>
    </TTGlyph>
    <TTGlyph name="Gcircumflex" xMin="72" yMin="-8" xMax="754" yMax="1974">
      <component glyphName="G" x="0" y="0" flags="0x1204"/>
      <component glyphName="circumflex" x="-69" y="481" flags="0x1004"/>
    </TTGlyph>
    <TTGlyph name="Gcommaaccent" xMin="72" yMin="-461" xMax="754" yMax="1548">
      <component glyphName="G" x="0" y="0" flags="0x1204"/>
      <component glyphName="commaaccent" x="-67" y="0" flags="0x1004"/>
    </TTGlyph>
    <TTGlyph name="Gdotaccent" xMin="72" yMin="-8" xMax="754" yMax="1896">
      <component glyphName="G" x="0" y="0" flags="0x1204"/>
      <component glyphName="dotaccent" x="-67" y="481" flags="0x1004"/>
    </TTGlyph>
    <TTGlyph name="H" xMin="37" yMin="-16" xMax="895" yMax="1538">
      <contour>
        <pt x="199" y="1200" on="1"/>
        <pt x="37" y="1204" on="1"/>
        <pt x="37" y="1530" on="1"/>
        <pt x="446" y="1538" on="1"/>
        <pt x="453" y="1208" on="1"/>
        <pt x="332" y="1208" on="1"/>
        <pt x="315" y="1208" on="0"/>
        <pt x="309" y="1185" on="0"/>
        <pt x="309" y="1174" on="1"/>
        <pt x="301" y="887" on="1"/>
        <pt x="301" y="860" on="0"/>
        <pt x="319" y="860" on="1"/>
        <pt x="393" y="859" on="0"/>
        <pt x="455" y="859" on="1"/>
        <pt x="554" y="858" on="1"/>
        <pt x="582" y="858" on="0"/>
        <pt x="610" y="858" on="1"/>
        <pt x="645" y="858" on="0"/>
        <pt x="645" y="899" on="1"/>
        <pt x="644" y="973" on="0"/>
        <pt x="644" y="1033" on="1"/>
        <pt x="643" y="1128" on="1"/>
        <pt x="643" y="1174" on="0"/>
        <pt x="640" y="1185" on="1"/>
        <pt x="636" y="1204" on="0"/>
        <pt x="604" y="1204" on="1"/>
        <pt x="516" y="1204" on="1"/>
        <pt x="520" y="1522" on="1"/>
        <pt x="895" y="1534" on="1"/>
        <pt x="887" y="1208" on="1"/>
        <pt x="854" y="1205" on="0"/>
        <pt x="829" y="1202" on="1"/>
        <pt x="764" y="1196" on="0"/>
        <pt x="756" y="1196" on="1"/>
        <pt x="723" y="1196" on="0"/>
        <pt x="723" y="1169" on="1"/>
        <pt x="715" y="381" on="1"/>
        <pt x="715" y="372" on="0"/>
        <pt x="717" y="352" on="0"/>
        <pt x="731" y="352" on="1"/>
        <pt x="887" y="352" on="1"/>
        <pt x="895" y="0" on="1"/>
        <pt x="528" y="4" on="1"/>
        <pt x="516" y="340" on="1"/>
        <pt x="540" y="341" on="0"/>
        <pt x="579" y="345" on="0"/>
        <pt x="613" y="347" on="0"/>
        <pt x="622" y="348" on="1"/>
        <pt x="639" y="351" on="0"/>
        <pt x="639" y="381" on="1"/>
        <pt x="639" y="758" on="1"/>
        <pt x="639" y="784" on="0"/>
        <pt x="608" y="784" on="1"/>
        <pt x="406" y="787" on="1"/>
        <pt x="326" y="788" on="1"/>
        <pt x="303" y="788" on="0"/>
        <pt x="303" y="768" on="1"/>
        <pt x="300" y="472" on="1"/>
        <pt x="299" y="360" on="1"/>
        <pt x="299" y="336" on="0"/>
        <pt x="324" y="336" on="1"/>
        <pt x="451" y="336" on="1"/>
        <pt x="442" y="8" on="1"/>
        <pt x="57" y="-16" on="1"/>
        <pt x="41" y="336" on="1"/>
        <pt x="185" y="332" on="0"/>
        <pt x="213" y="332" on="0"/>
        <pt x="219" y="353" on="0"/>
        <pt x="219" y="369" on="1"/>
        <pt x="227" y="1165" on="1"/>
        <pt x="227" y="1200" on="0"/>
      </contour>
    </TTGlyph>
    <TTGlyph name="Hbar" xMin="37" yMin="-16" xMax="895" yMax="1538">
      <contour>
        <pt x="213" y="332" on="0"/>
        <pt x="219" y="353" on="0"/>
        <pt x="219" y="643" on="0"/>
        <pt x="225" y="991" on="1"/>
        <pt x="70" y="991" on="1"/>
        <pt x="68" y="1063" on="1"/>
        <pt x="227" y="1063" on="1"/>
        <pt x="227" y="1165" on="1"/>
        <pt x="227" y="1200" on="0"/>
        <pt x="199" y="1200" on="1"/>
        <pt x="37" y="1204" on="1"/>
        <pt x="37" y="1530" on="1"/>
        <pt x="446" y="1538" on="1"/>
        <pt x="453" y="1208" on="1"/>
        <pt x="332" y="1208" on="1"/>
        <pt x="315" y="1208" on="0"/>
        <pt x="309" y="1185" on="0"/>
        <pt x="309" y="1173" on="1"/>
        <pt x="309" y="1173" on="0"/>
        <pt x="309" y="1130" on="1"/>
        <pt x="309" y="1100" on="0"/>
        <pt x="307" y="1063" on="1"/>
        <pt x="645" y="1063" on="1"/>
        <pt x="643" y="1108" on="0"/>
        <pt x="643" y="1174" on="0"/>
        <pt x="640" y="1185" on="1"/>
        <pt x="636" y="1204" on="0"/>
        <pt x="604" y="1204" on="1"/>
        <pt x="516" y="1204" on="1"/>
        <pt x="520" y="1522" on="1"/>
        <pt x="895" y="1534" on="1"/>
        <pt x="887" y="1208" on="1"/>
        <pt x="854" y="1205" on="0"/>
        <pt x="829" y="1202" on="1"/>
        <pt x="764" y="1196" on="0"/>
        <pt x="756" y="1196" on="1"/>
        <pt x="723" y="1196" on="0"/>
        <pt x="723" y="1169" on="1"/>
        <pt x="723" y="1135" on="1"/>
        <pt x="723" y="1106" on="0"/>
        <pt x="721" y="1063" on="1"/>
        <pt x="874" y="1063" on="1"/>
        <pt x="874" y="991" on="1"/>
        <pt x="721" y="991" on="1"/>
        <pt x="720" y="933" on="0"/>
        <pt x="719" y="799" on="0"/>
        <pt x="718" y="665" on="0"/>
        <pt x="717" y="540" on="0"/>
        <pt x="716" y="443" on="0"/>
        <pt x="715" y="383" on="0"/>
        <pt x="715" y="372" on="0"/>
        <pt x="717" y="352" on="0"/>
        <pt x="731" y="352" on="1"/>
        <pt x="887" y="352" on="1"/>
        <pt x="895" y="0" on="1"/>
        <pt x="528" y="4" on="1"/>
        <pt x="516" y="340" on="1"/>
        <pt x="540" y="341" on="0"/>
        <pt x="579" y="345" on="0"/>
        <pt x="613" y="347" on="0"/>
        <pt x="622" y="348" on="1"/>
        <pt x="639" y="351" on="0"/>
        <pt x="639" y="381" on="1"/>
        <pt x="639" y="758" on="1"/>
        <pt x="639" y="784" on="0"/>
        <pt x="608" y="784" on="1"/>
        <pt x="406" y="787" on="1"/>
        <pt x="326" y="788" on="1"/>
        <pt x="303" y="788" on="0"/>
        <pt x="303" y="768" on="1"/>
        <pt x="300" y="472" on="1"/>
        <pt x="299" y="360" on="1"/>
        <pt x="299" y="336" on="0"/>
        <pt x="324" y="336" on="1"/>
        <pt x="451" y="336" on="1"/>
        <pt x="442" y="8" on="1"/>
        <pt x="57" y="-16" on="1"/>
        <pt x="41" y="336" on="1"/>
        <pt x="185" y="332" on="0"/>
      </contour>
      <contour>
        <pt x="455" y="859" on="1"/>
        <pt x="554" y="858" on="1"/>
        <pt x="582" y="858" on="0"/>
        <pt x="610" y="858" on="1"/>
        <pt x="645" y="858" on="0"/>
        <pt x="645" y="899" on="1"/>
        <pt x="645" y="991" on="1"/>
        <pt x="303" y="991" on="1"/>
        <pt x="301" y="953" on="0"/>
        <pt x="301" y="924" on="1"/>
        <pt x="301" y="887" on="1"/>
        <pt x="301" y="860" on="0"/>
        <pt x="319" y="860" on="1"/>
        <pt x="393" y="859" on="0"/>
      </contour>
    </TTGlyph>
    <TTGlyph name="Hcircumflex" xMin="37" yMin="-16" xMax="895" yMax="1974">
      <component glyphName="H" x="0" y="0" flags="0x1204"/>
      <component glyphName="circumflex" x="47" y="481" flags="0x1004"/>
    </TTGlyph>
    <TTGlyph name="I" xMin="51" yMin="-8" xMax="475" yMax="1536">
      <contour>
        <pt x="225" y="1155" on="1"/>
        <pt x="225" y="1198" on="0"/>
        <pt x="186" y="1198" on="1"/>
        <pt x="70" y="1198" on="1"/>
        <pt x="70" y="1474" on="0"/>
        <pt x="76" y="1528" on="1"/>
        <pt x="114" y="1530" on="0"/>
        <pt x="150" y="1532" on="1"/>
        <pt x="222" y="1536" on="0"/>
        <pt x="295" y="1536" on="1"/>
        <pt x="359" y="1536" on="0"/>
        <pt x="475" y="1532" on="1"/>
        <pt x="457" y="1204" on="1"/>
        <pt x="437" y="1203" on="0"/>
        <pt x="401" y="1202" on="0"/>
        <pt x="384" y="1202" on="1"/>
        <pt x="354" y="1202" on="1"/>
        <pt x="330" y="1202" on="0"/>
        <pt x="301" y="1168" on="0"/>
        <pt x="301" y="1137" on="1"/>
        <pt x="301" y="1137" on="0"/>
        <pt x="293" y="395" on="1"/>
        <pt x="293" y="348" on="0"/>
        <pt x="332" y="348" on="1"/>
        <pt x="469" y="348" on="1"/>
        <pt x="457" y="4" on="1"/>
        <pt x="350" y="1" on="0"/>
        <pt x="227" y="-3" on="0"/>
        <pt x="155" y="-5" on="0"/>
        <pt x="126" y="-6" on="1"/>
        <pt x="66" y="-8" on="0"/>
        <pt x="51" y="-8" on="1"/>
        <pt x="53" y="132" on="1"/>
        <pt x="53" y="354" on="1"/>
        <pt x="184" y="354" on="1"/>
        <pt x="219" y="354" on="0"/>
        <pt x="219" y="395" on="1"/>
        <pt x="224" y="1021" on="1"/>
      </contour>
    </TTGlyph>
    <TTGlyph name="IJ" xMin="51" yMin="-8" xMax="1159" yMax="1536">
      <component glyphName="I" x="0" y="0" flags="0x1004"/>
      <component glyphName="J" x="518" y="0" flags="0x1004"/>
    </TTGlyph>
    <TTGlyph name="Iacute" xMin="51" yMin="-8" xMax="527" yMax="1982">
      <component glyphName="I" x="0" y="0" flags="0x1204"/>
      <component glyphName="acute" x="-65" y="481" flags="0x1004"/>
    </TTGlyph>
    <TTGlyph name="Ibreve" xMin="-1" yMin="-8" xMax="575" yMax="1935">
      <component glyphName="I" x="0" y="0" flags="0x1204"/>
      <component glyphName="breve" x="-146" y="481" flags="0x1004"/>
    </TTGlyph>
    <TTGlyph name="Icircumflex" xMin="-14" yMin="-8" xMax="562" yMax="1974">
      <component glyphName="I" x="0" y="0" flags="0x1204"/>
      <component glyphName="circumflex" x="-159" y="481" flags="0x1004"/>
    </TTGlyph>
    <TTGlyph name="Idieresis" xMin="17" yMin="-8" xMax="529" yMax="1855">
      <component glyphName="I" x="0" y="0" flags="0x1204"/>
      <component glyphName="dieresis" x="-161" y="481" flags="0x1004"/>
    </TTGlyph>
    <TTGlyph name="Idotaccent" xMin="51" yMin="-8" xMax="475" yMax="1896">
      <component glyphName="I" x="0" y="0" flags="0x1204"/>
      <component glyphName="dotaccent" x="-157" y="481" flags="0x1004"/>
    </TTGlyph>
    <TTGlyph name="Igrave" xMin="27" yMin="-8" xMax="475" yMax="1982">
      <component glyphName="I" x="0" y="0" flags="0x1204"/>
      <component glyphName="grave" x="-247" y="481" flags="0x1004"/>
    </TTGlyph>
    <TTGlyph name="Imacron" xMin="31" yMin="-8" xMax="531" yMax="1804">
      <component glyphName="I" x="0" y="0" flags="0x1204"/>
      <component glyphName="macron" x="-153" y="481" flags="0x1004"/>
    </TTGlyph>
    <TTGlyph name="Iogonek" xMin="51" yMin="-446" xMax="475" yMax="1536">
      <contour>
        <pt x="225" y="1155" on="1"/>
        <pt x="225" y="1198" on="0"/>
        <pt x="186" y="1198" on="1"/>
        <pt x="70" y="1198" on="1"/>
        <pt x="70" y="1474" on="0"/>
        <pt x="76" y="1528" on="1"/>
        <pt x="114" y="1530" on="0"/>
        <pt x="150" y="1532" on="1"/>
        <pt x="222" y="1536" on="0"/>
        <pt x="295" y="1536" on="1"/>
        <pt x="359" y="1536" on="0"/>
        <pt x="475" y="1532" on="1"/>
        <pt x="457" y="1204" on="1"/>
        <pt x="437" y="1203" on="0"/>
        <pt x="401" y="1202" on="0"/>
        <pt x="384" y="1202" on="1"/>
        <pt x="354" y="1202" on="1"/>
        <pt x="330" y="1202" on="0"/>
        <pt x="301" y="1168" on="0"/>
        <pt x="301" y="1137" on="1"/>
        <pt x="301" y="1137" on="0"/>
        <pt x="293" y="395" on="1"/>
        <pt x="293" y="348" on="0"/>
        <pt x="332" y="348" on="1"/>
        <pt x="469" y="348" on="1"/>
        <pt x="457" y="4" on="1"/>
        <pt x="443" y="4" on="0"/>
        <pt x="411" y="2" on="0"/>
        <pt x="371" y="1" on="0"/>
        <pt x="348" y="0" on="1"/>
        <pt x="249" y="-70" on="0"/>
        <pt x="211" y="-112" on="1"/>
        <pt x="137" y="-194" on="0"/>
        <pt x="137" y="-260" on="1"/>
        <pt x="137" y="-333" on="0"/>
        <pt x="208" y="-356" on="1"/>
        <pt x="234" y="-365" on="0"/>
        <pt x="272" y="-365" on="1"/>
        <pt x="381" y="-365" on="0"/>
        <pt x="473" y="-287" on="1"/>
        <pt x="475" y="-381" on="1"/>
        <pt x="396" y="-446" on="0"/>
        <pt x="167" y="-446" on="0"/>
        <pt x="55" y="-350" on="0"/>
        <pt x="55" y="-266" on="1"/>
        <pt x="55" y="-128" on="0"/>
        <pt x="229" y="-2" on="1"/>
        <pt x="133" y="-8" on="0"/>
        <pt x="51" y="-8" on="1"/>
        <pt x="53" y="132" on="1"/>
        <pt x="53" y="354" on="1"/>
        <pt x="184" y="354" on="1"/>
        <pt x="219" y="354" on="0"/>
        <pt x="219" y="395" on="1"/>
        <pt x="224" y="1021" on="1"/>
      </contour>
    </TTGlyph>
    <TTGlyph name="Itilde" xMin="7" yMin="-8" xMax="550" yMax="1962">
      <component glyphName="I" x="0" y="0" flags="0x1204"/>
      <component glyphName="tilde" x="-155" y="481" flags="0x1004"/>
    </TTGlyph>
    <TTGlyph name="J" xMin="20" yMin="-8" xMax="641" yMax="1536">
      <contour>
        <pt x="387" y="385" on="1"/>
        <pt x="395" y="1153" on="1"/>
        <pt x="395" y="1190" on="0"/>
        <pt x="366" y="1198" on="1"/>
        <pt x="359" y="1200" on="0"/>
        <pt x="354" y="1200" on="1"/>
        <pt x="324" y="1200" on="1"/>
        <pt x="299" y="1200" on="0"/>
        <pt x="237" y="1201" on="0"/>
        <pt x="195" y="1202" on="1"/>
        <pt x="188" y="1536" on="1"/>
        <pt x="641" y="1532" on="1"/>
        <pt x="635" y="1202" on="1"/>
        <pt x="606" y="1202" on="0"/>
        <pt x="580" y="1203" on="1"/>
        <pt x="506" y="1204" on="1"/>
        <pt x="471" y="1204" on="0"/>
        <pt x="471" y="1161" on="1"/>
        <pt x="471" y="1155" on="0"/>
        <pt x="469" y="1063" on="0"/>
        <pt x="467" y="913" on="0"/>
        <pt x="463" y="720" on="0"/>
        <pt x="462" y="614" on="1"/>
        <pt x="459" y="298" on="0"/>
        <pt x="459" y="147" on="0"/>
        <pt x="441" y="82" on="0"/>
        <pt x="411" y="37" on="0"/>
        <pt x="374" y="11" on="0"/>
        <pt x="356" y="4" on="1"/>
        <pt x="327" y="-8" on="0"/>
        <pt x="291" y="-8" on="1"/>
        <pt x="141" y="-6" on="1"/>
        <pt x="96" y="-6" on="0"/>
        <pt x="69" y="20" on="1"/>
        <pt x="20" y="66" on="0"/>
        <pt x="20" y="139" on="0"/>
        <pt x="31" y="524" on="1"/>
        <pt x="100" y="522" on="1"/>
        <pt x="96" y="386" on="0"/>
        <pt x="96" y="358" on="0"/>
        <pt x="120" y="334" on="0"/>
        <pt x="157" y="331" on="0"/>
        <pt x="212" y="332" on="0"/>
        <pt x="242" y="332" on="1"/>
        <pt x="309" y="334" on="0"/>
        <pt x="364" y="339" on="0"/>
        <pt x="387" y="370" on="0"/>
      </contour>
    </TTGlyph>
    <TTGlyph name="Jcircumflex" xMin="20" yMin="-8" xMax="704" yMax="1974">
      <component glyphName="J" x="0" y="0" flags="0x1204"/>
      <component glyphName="circumflex" x="-17" y="481" flags="0x1004"/>
    </TTGlyph>
    <TTGlyph name="K" xMin="47" yMin="-4" xMax="856" yMax="1536">
      <contour>
        <pt x="170" y="1204" on="1"/>
        <pt x="155" y="1204" on="0"/>
        <pt x="51" y="1196" on="1"/>
        <pt x="55" y="1528" on="1"/>
        <pt x="414" y="1536" on="1"/>
        <pt x="414" y="1204" on="1"/>
        <pt x="324" y="1204" on="1"/>
        <pt x="301" y="1204" on="0"/>
        <pt x="281" y="1183" on="0"/>
        <pt x="281" y="1157" on="1"/>
        <pt x="281" y="788" on="1"/>
        <pt x="395" y="926" on="0"/>
        <pt x="537" y="1153" on="1"/>
        <pt x="562" y="1200" on="0"/>
        <pt x="522" y="1200" on="1"/>
        <pt x="492" y="1200" on="1"/>
        <pt x="489" y="1536" on="1"/>
        <pt x="817" y="1534" on="1"/>
        <pt x="807" y="1200" on="1"/>
        <pt x="731" y="1200" on="1"/>
        <pt x="655" y="1200" on="0"/>
        <pt x="614" y="1148" on="1"/>
        <pt x="601" y="1132" on="0"/>
        <pt x="575" y="1094" on="1"/>
        <pt x="534" y="1034" on="1"/>
        <pt x="499" y="982" on="0"/>
        <pt x="457" y="918" on="1"/>
        <pt x="640" y="412" on="0"/>
        <pt x="663" y="360" on="0"/>
        <pt x="689" y="352" on="0"/>
        <pt x="705" y="352" on="1"/>
        <pt x="856" y="346" on="1"/>
        <pt x="846" y="2" on="1"/>
        <pt x="535" y="-4" on="1"/>
        <pt x="528" y="346" on="1"/>
        <pt x="573" y="346" on="1"/>
        <pt x="585" y="346" on="0"/>
        <pt x="575" y="375" on="0"/>
        <pt x="549" y="451" on="0"/>
        <pt x="516" y="546" on="0"/>
        <pt x="480" y="649" on="0"/>
        <pt x="464" y="694" on="1"/>
        <pt x="415" y="835" on="0"/>
        <pt x="403" y="840" on="1"/>
        <pt x="399" y="841" on="0"/>
        <pt x="395" y="836" on="1"/>
        <pt x="382" y="817" on="0"/>
        <pt x="312" y="730" on="0"/>
        <pt x="285" y="694" on="1"/>
        <pt x="295" y="391" on="1"/>
        <pt x="295" y="350" on="0"/>
        <pt x="352" y="350" on="1"/>
        <pt x="434" y="350" on="1"/>
        <pt x="438" y="2" on="1"/>
        <pt x="278" y="-2" on="0"/>
        <pt x="51" y="-2" on="1"/>
        <pt x="47" y="344" on="1"/>
        <pt x="167" y="348" on="0"/>
        <pt x="195" y="348" on="0"/>
        <pt x="221" y="375" on="0"/>
        <pt x="221" y="401" on="1"/>
        <pt x="207" y="1176" on="1"/>
        <pt x="207" y="1204" on="0"/>
      </contour>
    </TTGlyph>
    <TTGlyph name="Kcommaaccent" xMin="47" yMin="-461" xMax="856" yMax="1536">
      <component glyphName="K" x="0" y="0" flags="0x1204"/>
      <component glyphName="commaaccent" x="23" y="0" flags="0x1004"/>
    </TTGlyph>
    <TTGlyph name="L" xMin="41" yMin="-4" xMax="750" yMax="1536">
      <contour>
        <pt x="193" y="346" on="1"/>
        <pt x="213" y="346" on="0"/>
        <pt x="213" y="383" on="1"/>
        <pt x="213" y="1180" on="1"/>
        <pt x="213" y="1194" on="0"/>
        <pt x="200" y="1198" on="0"/>
        <pt x="180" y="1198" on="1"/>
        <pt x="47" y="1198" on="1"/>
        <pt x="41" y="1536" on="1"/>
        <pt x="455" y="1534" on="1"/>
        <pt x="451" y="1200" on="1"/>
        <pt x="315" y="1200" on="1"/>
        <pt x="294" y="1200" on="0"/>
        <pt x="289" y="1178" on="0"/>
        <pt x="289" y="1167" on="1"/>
        <pt x="284" y="532" on="1"/>
        <pt x="283" y="395" on="1"/>
        <pt x="283" y="363" on="0"/>
        <pt x="309" y="346" on="0"/>
        <pt x="332" y="346" on="1"/>
        <pt x="417" y="347" on="1"/>
        <pt x="548" y="349" on="1"/>
        <pt x="548" y="349" on="0"/>
        <pt x="631" y="350" on="1"/>
        <pt x="684" y="350" on="0"/>
        <pt x="684" y="403" on="1"/>
        <pt x="681" y="518" on="1"/>
        <pt x="679" y="562" on="0"/>
        <pt x="678" y="616" on="1"/>
        <pt x="750" y="616" on="1"/>
        <pt x="748" y="0" on="1"/>
        <pt x="55" y="-4" on="1"/>
        <pt x="55" y="346" on="1"/>
      </contour>
    </TTGlyph>
    <TTGlyph name="Lacute" xMin="41" yMin="-4" xMax="750" yMax="1982">
      <component glyphName="L" x="0" y="0" flags="0x1204"/>
      <component glyphName="acute" x="-91" y="481" flags="0x1004"/>
    </TTGlyph>
    <TTGlyph name="Lcaron" xMin="41" yMin="-4" xMax="750" yMax="1536">
      <component glyphName="L" x="0" y="0" flags="0x1204"/>
      <component glyphName="commaaccent" x="205" y="1638" flags="0x1004"/>
    </TTGlyph>
    <TTGlyph name="Lcommaaccent" xMin="41" yMin="-461" xMax="750" yMax="1536">
      <component glyphName="L" x="0" y="0" flags="0x1204"/>
      <component glyphName="commaaccent" x="-38" y="0" flags="0x1004"/>
    </TTGlyph>
    <TTGlyph name="Ldot" xMin="41" yMin="-4" xMax="754" yMax="1536">
      <component glyphName="L" x="0" y="0" flags="0x1204"/>
      <component glyphName="dotaccent" x="211" y="-566" flags="0x1004"/>
    </TTGlyph>
    <TTGlyph name="Lslash" xMin="41" yMin="-4" xMax="750" yMax="1536">
      <contour>
        <pt x="193" y="346" on="1"/>
        <pt x="213" y="346" on="0"/>
        <pt x="213" y="383" on="1"/>
        <pt x="213" y="700" on="1"/>
        <pt x="72" y="655" on="1"/>
        <pt x="47" y="723" on="1"/>
        <pt x="213" y="776" on="1"/>
        <pt x="213" y="1180" on="1"/>
        <pt x="213" y="1194" on="0"/>
        <pt x="200" y="1198" on="0"/>
        <pt x="180" y="1198" on="1"/>
        <pt x="47" y="1198" on="1"/>
        <pt x="41" y="1536" on="1"/>
        <pt x="455" y="1534" on="1"/>
        <pt x="451" y="1200" on="1"/>
        <pt x="315" y="1200" on="1"/>
        <pt x="294" y="1200" on="0"/>
        <pt x="289" y="1178" on="0"/>
        <pt x="289" y="1164" on="0"/>
        <pt x="288" y="1100" on="0"/>
        <pt x="287" y="998" on="0"/>
        <pt x="286" y="869" on="0"/>
        <pt x="285" y="801" on="1"/>
        <pt x="510" y="874" on="1"/>
        <pt x="532" y="807" on="1"/>
        <pt x="285" y="725" on="1"/>
        <pt x="283" y="603" on="0"/>
        <pt x="283" y="532" on="1"/>
        <pt x="283" y="395" on="1"/>
        <pt x="283" y="363" on="0"/>
        <pt x="309" y="346" on="0"/>
        <pt x="332" y="346" on="1"/>
        <pt x="417" y="347" on="1"/>
        <pt x="548" y="349" on="1"/>
        <pt x="548" y="349" on="0"/>
        <pt x="631" y="350" on="1"/>
        <pt x="684" y="350" on="0"/>
        <pt x="684" y="403" on="1"/>
        <pt x="681" y="518" on="1"/>
        <pt x="679" y="562" on="0"/>
        <pt x="678" y="616" on="1"/>
        <pt x="750" y="616" on="1"/>
        <pt x="748" y="0" on="1"/>
        <pt x="55" y="-4" on="1"/>
        <pt x="55" y="346" on="1"/>
      </contour>
    </TTGlyph>
    <TTGlyph name="M" xMin="55" yMin="-6" xMax="1122" yMax="1536">
      <contour>
        <pt x="219" y="397" on="1"/>
        <pt x="231" y="1143" on="1"/>
        <pt x="231" y="1175" on="0"/>
        <pt x="203" y="1200" on="0"/>
        <pt x="172" y="1200" on="1"/>
        <pt x="94" y="1200" on="1"/>
        <pt x="94" y="1536" on="1"/>
        <pt x="303" y="1536" on="1"/>
        <pt x="320" y="1536" on="0"/>
        <pt x="385" y="1531" on="0"/>
        <pt x="457" y="1525" on="0"/>
        <pt x="500" y="1522" on="1"/>
        <pt x="502" y="1198" on="1"/>
        <pt x="436" y="1198" on="1"/>
        <pt x="594" y="358" on="1"/>
        <pt x="780" y="1194" on="1"/>
        <pt x="723" y="1194" on="1"/>
        <pt x="731" y="1528" on="1"/>
        <pt x="768" y="1530" on="0"/>
        <pt x="802" y="1532" on="1"/>
        <pt x="868" y="1536" on="0"/>
        <pt x="928" y="1536" on="1"/>
        <pt x="1122" y="1530" on="1"/>
        <pt x="1100" y="1198" on="1"/>
        <pt x="1081" y="1198" on="0"/>
        <pt x="1063" y="1199" on="1"/>
        <pt x="1063" y="1199" on="0"/>
        <pt x="1010" y="1200" on="1"/>
        <pt x="991" y="1200" on="0"/>
        <pt x="969" y="1173" on="0"/>
        <pt x="969" y="1153" on="1"/>
        <pt x="954" y="395" on="1"/>
        <pt x="954" y="346" on="0"/>
        <pt x="1008" y="346" on="1"/>
        <pt x="1104" y="346" on="1"/>
        <pt x="1096" y="0" on="1"/>
        <pt x="735" y="2" on="1"/>
        <pt x="741" y="344" on="1"/>
        <pt x="827" y="344" on="1"/>
        <pt x="877" y="344" on="0"/>
        <pt x="877" y="403" on="1"/>
        <pt x="877" y="431" on="0"/>
        <pt x="895" y="1198" on="1"/>
        <pt x="860" y="1196" on="1"/>
        <pt x="623" y="180" on="1"/>
        <pt x="557" y="178" on="1"/>
        <pt x="358" y="1196" on="1"/>
        <pt x="309" y="1196" on="1"/>
        <pt x="294" y="560" on="0"/>
        <pt x="294" y="404" on="0"/>
        <pt x="296" y="384" on="0"/>
        <pt x="297" y="364" on="0"/>
        <pt x="301" y="357" on="1"/>
        <pt x="310" y="342" on="0"/>
        <pt x="338" y="342" on="0"/>
        <pt x="442" y="338" on="1"/>
        <pt x="424" y="-6" on="1"/>
        <pt x="55" y="2" on="1"/>
        <pt x="55" y="344" on="1"/>
        <pt x="182" y="344" on="1"/>
        <pt x="205" y="344" on="0"/>
        <pt x="219" y="368" on="0"/>
      </contour>
    </TTGlyph>
    <TTGlyph name="N" xMin="55" yMin="-12" xMax="901" yMax="1536">
      <contour>
        <pt x="108" y="335" on="1"/>
        <pt x="178" y="336" on="1"/>
        <pt x="215" y="336" on="0"/>
        <pt x="215" y="391" on="1"/>
        <pt x="215" y="1178" on="1"/>
        <pt x="215" y="1195" on="0"/>
        <pt x="202" y="1204" on="0"/>
        <pt x="180" y="1204" on="1"/>
        <pt x="59" y="1204" on="1"/>
        <pt x="59" y="1536" on="1"/>
        <pt x="260" y="1536" on="1"/>
        <pt x="293" y="1536" on="0"/>
        <pt x="303" y="1509" on="0"/>
        <pt x="307" y="1497" on="1"/>
        <pt x="659" y="369" on="1"/>
        <pt x="670" y="373" on="1"/>
        <pt x="672" y="584" on="0"/>
        <pt x="675" y="826" on="0"/>
        <pt x="676" y="967" on="0"/>
        <pt x="677" y="1081" on="0"/>
        <pt x="678" y="1157" on="0"/>
        <pt x="678" y="1165" on="1"/>
        <pt x="678" y="1210" on="0"/>
        <pt x="623" y="1210" on="1"/>
        <pt x="555" y="1209" on="1"/>
        <pt x="538" y="1208" on="0"/>
        <pt x="524" y="1208" on="1"/>
        <pt x="510" y="1532" on="1"/>
        <pt x="662" y="1536" on="0"/>
        <pt x="696" y="1536" on="1"/>
        <pt x="901" y="1536" on="1"/>
        <pt x="889" y="1210" on="1"/>
        <pt x="870" y="1210" on="0"/>
        <pt x="853" y="1211" on="1"/>
        <pt x="799" y="1212" on="1"/>
        <pt x="752" y="1212" on="0"/>
        <pt x="752" y="1161" on="1"/>
        <pt x="735" y="12" on="1"/>
        <pt x="735" y="-12" on="0"/>
        <pt x="719" y="-12" on="1"/>
        <pt x="700" y="-12" on="0"/>
        <pt x="692" y="12" on="1"/>
        <pt x="317" y="1204" on="1"/>
        <pt x="314" y="1219" on="0"/>
        <pt x="302" y="1218" on="1"/>
        <pt x="291" y="1216" on="0"/>
        <pt x="291" y="1204" on="1"/>
        <pt x="291" y="412" on="1"/>
        <pt x="291" y="346" on="0"/>
        <pt x="342" y="346" on="1"/>
        <pt x="446" y="346" on="1"/>
        <pt x="459" y="-2" on="1"/>
        <pt x="55" y="2" on="1"/>
        <pt x="55" y="334" on="1"/>
        <pt x="83" y="334" on="0"/>
      </contour>
    </TTGlyph>
    <TTGlyph name="Nacute" xMin="55" yMin="-12" xMax="901" yMax="1982">
      <component glyphName="N" x="0" y="0" flags="0x1204"/>
      <component glyphName="acute" x="141" y="481" flags="0x1004"/>
    </TTGlyph>
    <TTGlyph name="Ncaron" xMin="55" yMin="-12" xMax="901" yMax="1974">
      <component glyphName="N" x="0" y="0" flags="0x1204"/>
      <component glyphName="caron" x="70" y="481" flags="0x1004"/>
    </TTGlyph>
    <TTGlyph name="Ncommaaccent" xMin="55" yMin="-461" xMax="901" yMax="1536">
      <component glyphName="N" x="0" y="0" flags="0x1204"/>
      <component glyphName="commaaccent" x="59" y="0" flags="0x1004"/>
    </TTGlyph>
    <TTGlyph name="Ntilde" xMin="55" yMin="-12" xMax="901" yMax="1962">
      <component glyphName="N" x="0" y="0" flags="0x1204"/>
      <component glyphName="tilde" x="51" y="481" flags="0x1004"/>
    </TTGlyph>
    <TTGlyph name="O" xMin="72" yMin="0" xMax="729" yMax="1536">
      <contour>
        <pt x="76" y="284" on="1"/>
        <pt x="72" y="1248" on="1"/>
        <pt x="72" y="1329" on="1"/>
        <pt x="72" y="1421" on="0"/>
        <pt x="130" y="1478" on="1"/>
        <pt x="186" y="1532" on="0"/>
        <pt x="323" y="1533" on="0"/>
        <pt x="376" y="1534" on="1"/>
        <pt x="500" y="1536" on="1"/>
        <pt x="524" y="1536" on="1"/>
        <pt x="622" y="1536" on="0"/>
        <pt x="678" y="1446" on="1"/>
        <pt x="723" y="1374" on="0"/>
        <pt x="723" y="1294" on="1"/>
        <pt x="728" y="443" on="1"/>
        <pt x="729" y="229" on="1"/>
        <pt x="729" y="72" on="0"/>
        <pt x="594" y="20" on="1"/>
        <pt x="553" y="4" on="0"/>
        <pt x="504" y="4" on="1"/>
        <pt x="262" y="0" on="1"/>
        <pt x="169" y="0" on="0"/>
        <pt x="117" y="80" on="1"/>
        <pt x="76" y="142" on="0"/>
        <pt x="76" y="219" on="1"/>
      </contour>
      <contour>
        <pt x="319" y="338" on="1"/>
        <pt x="530" y="342" on="1"/>
        <pt x="611" y="342" on="0"/>
        <pt x="639" y="418" on="1"/>
        <pt x="649" y="446" on="0"/>
        <pt x="649" y="487" on="1"/>
        <pt x="649" y="1044" on="1"/>
        <pt x="649" y="1190" on="0"/>
        <pt x="498" y="1190" on="1"/>
        <pt x="307" y="1190" on="1"/>
        <pt x="193" y="1190" on="0"/>
        <pt x="159" y="1101" on="1"/>
        <pt x="147" y="1070" on="0"/>
        <pt x="147" y="1039" on="1"/>
        <pt x="147" y="970" on="1"/>
        <pt x="150" y="572" on="1"/>
        <pt x="150" y="496" on="1"/>
        <pt x="150" y="412" on="0"/>
        <pt x="205" y="371" on="1"/>
        <pt x="249" y="338" on="0"/>
      </contour>
    </TTGlyph>
    <TTGlyph name="OE" xMin="72" yMin="-6" xMax="1214" yMax="1536">
      <contour>
        <pt x="1202" y="-6" on="1"/>
        <pt x="1029" y="4" on="0"/>
        <pt x="965" y="4" on="1"/>
        <pt x="840" y="4" on="1"/>
        <pt x="777" y="4" on="0"/>
        <pt x="657" y="0" on="1"/>
        <pt x="657" y="96" on="1"/>
        <pt x="607" y="0" on="0"/>
        <pt x="483" y="0" on="1"/>
        <pt x="262" y="0" on="1"/>
        <pt x="169" y="0" on="0"/>
        <pt x="117" y="80" on="1"/>
        <pt x="76" y="142" on="0"/>
        <pt x="76" y="219" on="1"/>
        <pt x="76" y="284" on="1"/>
        <pt x="72" y="1248" on="1"/>
        <pt x="72" y="1329" on="1"/>
        <pt x="72" y="1420" on="0"/>
        <pt x="130" y="1476" on="1"/>
        <pt x="184" y="1528" on="0"/>
        <pt x="262" y="1528" on="1"/>
        <pt x="486" y="1536" on="0"/>
        <pt x="504" y="1536" on="1"/>
        <pt x="611" y="1536" on="0"/>
        <pt x="657" y="1423" on="1"/>
        <pt x="657" y="1532" on="1"/>
        <pt x="809" y="1536" on="0"/>
        <pt x="895" y="1536" on="1"/>
        <pt x="1174" y="1536" on="1"/>
        <pt x="1167" y="1024" on="1"/>
        <pt x="1094" y="1022" on="1"/>
        <pt x="1095" y="1029" on="1"/>
        <pt x="1096" y="1114" on="1"/>
        <pt x="1096" y="1195" on="0"/>
        <pt x="974" y="1208" on="1"/>
        <pt x="935" y="1212" on="0"/>
        <pt x="887" y="1212" on="1"/>
        <pt x="719" y="1212" on="0"/>
        <pt x="719" y="1137" on="1"/>
        <pt x="719" y="827" on="1"/>
        <pt x="874" y="827" on="1"/>
        <pt x="891" y="827" on="0"/>
        <pt x="922" y="852" on="0"/>
        <pt x="925" y="899" on="0"/>
        <pt x="925" y="923" on="1"/>
        <pt x="925" y="969" on="1"/>
        <pt x="925" y="995" on="0"/>
        <pt x="924" y="1022" on="1"/>
        <pt x="997" y="1026" on="1"/>
        <pt x="1004" y="526" on="1"/>
        <pt x="932" y="526" on="1"/>
        <pt x="932" y="593" on="1"/>
        <pt x="931" y="621" on="0"/>
        <pt x="930" y="650" on="1"/>
        <pt x="928" y="710" on="0"/>
        <pt x="905" y="742" on="0"/>
        <pt x="895" y="748" on="1"/>
        <pt x="878" y="758" on="0"/>
        <pt x="856" y="758" on="1"/>
        <pt x="828" y="758" on="0"/>
        <pt x="752" y="755" on="0"/>
        <pt x="719" y="754" on="1"/>
        <pt x="718" y="682" on="0"/>
        <pt x="718" y="619" on="1"/>
        <pt x="717" y="510" on="1"/>
        <pt x="717" y="428" on="1"/>
        <pt x="717" y="382" on="0"/>
        <pt x="736" y="364" on="1"/>
        <pt x="763" y="340" on="0"/>
        <pt x="788" y="340" on="1"/>
        <pt x="1071" y="340" on="1"/>
        <pt x="1143" y="340" on="0"/>
        <pt x="1143" y="428" on="1"/>
        <pt x="1142" y="509" on="1"/>
        <pt x="1141" y="531" on="0"/>
        <pt x="1141" y="553" on="1"/>
        <pt x="1214" y="555" on="1"/>
      </contour>
      <contour>
        <pt x="319" y="338" on="1"/>
        <pt x="530" y="342" on="1"/>
        <pt x="611" y="342" on="0"/>
        <pt x="639" y="418" on="1"/>
        <pt x="649" y="446" on="0"/>
        <pt x="649" y="487" on="1"/>
        <pt x="649" y="1055" on="1"/>
        <pt x="649" y="1200" on="0"/>
        <pt x="498" y="1200" on="1"/>
        <pt x="307" y="1200" on="1"/>
        <pt x="193" y="1200" on="0"/>
        <pt x="159" y="1111" on="1"/>
        <pt x="147" y="1080" on="0"/>
        <pt x="147" y="1049" on="1"/>
        <pt x="147" y="980" on="1"/>
        <pt x="150" y="574" on="1"/>
        <pt x="150" y="496" on="1"/>
        <pt x="150" y="412" on="0"/>
        <pt x="205" y="371" on="1"/>
        <pt x="249" y="338" on="0"/>
      </contour>
    </TTGlyph>
    <TTGlyph name="Oacute" xMin="72" yMin="0" xMax="729" yMax="1982">
      <component glyphName="O" x="0" y="0" flags="0x1204"/>
      <component glyphName="acute" x="57" y="481" flags="0x1004"/>
    </TTGlyph>
    <TTGlyph name="Obreve" xMin="72" yMin="0" xMax="729" yMax="1935">
      <component glyphName="O" x="0" y="0" flags="0x1204"/>
      <component glyphName="breve" x="-24" y="481" flags="0x1004"/>
    </TTGlyph>
    <TTGlyph name="Ocircumflex" xMin="72" yMin="0" xMax="729" yMax="1974">
      <component glyphName="O" x="0" y="0" flags="0x1204"/>
      <component glyphName="circumflex" x="-36" y="481" flags="0x1004"/>
    </TTGlyph>
    <TTGlyph name="Odieresis" xMin="72" yMin="0" xMax="729" yMax="1855">
      <component glyphName="O" x="0" y="0" flags="0x1204"/>
      <component glyphName="dieresis" x="-38" y="481" flags="0x1004"/>
    </TTGlyph>
    <TTGlyph name="Ograve" xMin="72" yMin="0" xMax="729" yMax="1982">
      <component glyphName="O" x="0" y="0" flags="0x1204"/>
      <component glyphName="grave" x="-124" y="481" flags="0x1004"/>
    </TTGlyph>
    <TTGlyph name="Ohungarumlaut" xMin="72" yMin="0" xMax="758" yMax="1982">
      <component glyphName="O" x="0" y="0" flags="0x1204"/>
      <component glyphName="hungarumlaut" x="23" y="481" flags="0x1004"/>
    </TTGlyph>
    <TTGlyph name="Omacron" xMin="72" yMin="0" xMax="729" yMax="1804">
      <component glyphName="O" x="0" y="0" flags="0x1204"/>
      <component glyphName="macron" x="-30" y="481" flags="0x1004"/>
    </TTGlyph>
    <TTGlyph name="Oslash" xMin="33" yMin="-203" xMax="750" yMax="1690">
      <contour>
        <pt x="504" y="4" on="1"/>
        <pt x="262" y="0" on="1"/>
        <pt x="214" y="0" on="0"/>
        <pt x="180" y="18" on="1"/>
        <pt x="104" y="-203" on="1"/>
        <pt x="33" y="-180" on="1"/>
        <pt x="119" y="74" on="1"/>
        <pt x="76" y="138" on="0"/>
        <pt x="76" y="219" on="1"/>
        <pt x="76" y="284" on="1"/>
        <pt x="72" y="1248" on="1"/>
        <pt x="72" y="1329" on="1"/>
        <pt x="72" y="1421" on="0"/>
        <pt x="130" y="1480" on="1"/>
        <pt x="185" y="1534" on="0"/>
        <pt x="323" y="1534" on="0"/>
        <pt x="398" y="1535" on="0"/>
        <pt x="421" y="1535" on="1"/>
        <pt x="500" y="1536" on="1"/>
        <pt x="524" y="1536" on="1"/>
        <pt x="576" y="1536" on="0"/>
        <pt x="614" y="1509" on="1"/>
        <pt x="678" y="1690" on="1"/>
        <pt x="750" y="1665" on="1"/>
        <pt x="676" y="1450" on="1"/>
        <pt x="723" y="1376" on="0"/>
        <pt x="723" y="1294" on="1"/>
        <pt x="728" y="443" on="1"/>
        <pt x="729" y="229" on="1"/>
        <pt x="729" y="72" on="0"/>
        <pt x="594" y="20" on="1"/>
        <pt x="553" y="4" on="0"/>
      </contour>
      <contour>
        <pt x="319" y="338" on="1"/>
        <pt x="530" y="342" on="1"/>
        <pt x="611" y="342" on="0"/>
        <pt x="639" y="418" on="1"/>
        <pt x="649" y="446" on="0"/>
        <pt x="649" y="487" on="1"/>
        <pt x="649" y="1044" on="1"/>
        <pt x="649" y="1138" on="0"/>
        <pt x="580" y="1174" on="1"/>
        <pt x="291" y="338" on="1"/>
      </contour>
      <contour>
        <pt x="147" y="970" on="1"/>
        <pt x="150" y="572" on="1"/>
        <pt x="150" y="496" on="1"/>
        <pt x="150" y="398" on="0"/>
        <pt x="219" y="360" on="1"/>
        <pt x="504" y="1190" on="1"/>
        <pt x="307" y="1190" on="1"/>
        <pt x="193" y="1190" on="0"/>
        <pt x="159" y="1101" on="1"/>
        <pt x="147" y="1070" on="0"/>
        <pt x="147" y="1039" on="1"/>
      </contour>
    </TTGlyph>
    <TTGlyph name="Oslashacute" xMin="33" yMin="-203" xMax="750" yMax="1982">
      <component glyphName="Oslash" x="0" y="0" flags="0x1204"/>
      <component glyphName="acute" x="61" y="481" flags="0x1004"/>
    </TTGlyph>
    <TTGlyph name="Otilde" xMin="72" yMin="0" xMax="729" yMax="1962">
      <component glyphName="O" x="0" y="0" flags="0x1204"/>
      <component glyphName="tilde" x="-32" y="481" flags="0x1004"/>
    </TTGlyph>
    <TTGlyph name="P" xMin="41" yMin="0" xMax="790" yMax="1536">
      <contour>
        <pt x="229" y="1178" on="1"/>
        <pt x="226" y="1200" on="0"/>
        <pt x="201" y="1200" on="1"/>
        <pt x="41" y="1200" on="1"/>
        <pt x="41" y="1536" on="1"/>
        <pt x="461" y="1536" on="1"/>
        <pt x="555" y="1536" on="0"/>
        <pt x="648" y="1468" on="1"/>
        <pt x="731" y="1406" on="0"/>
        <pt x="770" y="1272" on="1"/>
        <pt x="790" y="1202" on="0"/>
        <pt x="790" y="1104" on="1"/>
        <pt x="790" y="927" on="0"/>
        <pt x="724" y="825" on="1"/>
        <pt x="675" y="750" on="0"/>
        <pt x="592" y="719" on="1"/>
        <pt x="546" y="702" on="0"/>
        <pt x="497" y="702" on="1"/>
        <pt x="319" y="702" on="1"/>
        <pt x="307" y="702" on="0"/>
        <pt x="305" y="691" on="0"/>
        <pt x="305" y="688" on="1"/>
        <pt x="305" y="661" on="1"/>
        <pt x="303" y="392" on="1"/>
        <pt x="303" y="392" on="0"/>
        <pt x="303" y="362" on="1"/>
        <pt x="303" y="350" on="0"/>
        <pt x="314" y="346" on="0"/>
        <pt x="324" y="346" on="1"/>
        <pt x="477" y="346" on="1"/>
        <pt x="483" y="0" on="1"/>
        <pt x="51" y="0" on="1"/>
        <pt x="59" y="344" on="1"/>
        <pt x="97" y="344" on="0"/>
        <pt x="128" y="345" on="1"/>
        <pt x="128" y="345" on="0"/>
        <pt x="203" y="346" on="1"/>
        <pt x="219" y="346" on="0"/>
        <pt x="219" y="365" on="1"/>
      </contour>
      <contour>
        <pt x="299" y="811" on="1"/>
        <pt x="299" y="778" on="0"/>
        <pt x="340" y="778" on="1"/>
        <pt x="506" y="778" on="1"/>
        <pt x="608" y="778" on="0"/>
        <pt x="658" y="888" on="1"/>
        <pt x="678" y="933" on="0"/>
        <pt x="678" y="1075" on="0"/>
        <pt x="627" y="1152" on="0"/>
        <pt x="592" y="1172" on="1"/>
        <pt x="539" y="1202" on="0"/>
        <pt x="469" y="1202" on="1"/>
        <pt x="344" y="1202" on="1"/>
        <pt x="315" y="1202" on="0"/>
        <pt x="305" y="1187" on="0"/>
        <pt x="305" y="1167" on="0"/>
        <pt x="304" y="1120" on="0"/>
        <pt x="303" y="1046" on="0"/>
        <pt x="301" y="958" on="0"/>
        <pt x="300" y="879" on="0"/>
        <pt x="299" y="819" on="0"/>
      </contour>
    </TTGlyph>
    <TTGlyph name="Q" xMin="61" yMin="-324" xMax="723" yMax="1536">
      <contour>
        <pt x="66" y="225" on="1"/>
        <pt x="61" y="1249" on="1"/>
        <pt x="61" y="1482" on="0"/>
        <pt x="218" y="1525" on="1"/>
        <pt x="259" y="1536" on="0"/>
        <pt x="326" y="1536" on="1"/>
        <pt x="471" y="1536" on="1"/>
        <pt x="628" y="1536" on="0"/>
        <pt x="686" y="1421" on="1"/>
        <pt x="707" y="1381" on="0"/>
        <pt x="707" y="1325" on="1"/>
        <pt x="707" y="238" on="1"/>
        <pt x="707" y="56" on="0"/>
        <pt x="618" y="14" on="1"/>
        <pt x="592" y="3" on="0"/>
        <pt x="538" y="5" on="0"/>
        <pt x="522" y="2" on="0"/>
        <pt x="522" y="-8" on="1"/>
        <pt x="522" y="-41" on="0"/>
        <pt x="623" y="-41" on="1"/>
        <pt x="664" y="-41" on="0"/>
        <pt x="715" y="-35" on="1"/>
        <pt x="723" y="-319" on="1"/>
        <pt x="711" y="-324" on="0"/>
        <pt x="570" y="-324" on="0"/>
        <pt x="497" y="-276" on="0"/>
        <pt x="479" y="-236" on="1"/>
        <pt x="453" y="-177" on="0"/>
        <pt x="453" y="-29" on="1"/>
        <pt x="453" y="0" on="0"/>
        <pt x="414" y="0" on="1"/>
        <pt x="221" y="0" on="1"/>
        <pt x="139" y="0" on="0"/>
        <pt x="96" y="85" on="1"/>
        <pt x="66" y="146" on="0"/>
      </contour>
      <contour>
        <pt x="135" y="612" on="1"/>
        <pt x="195" y="676" on="0"/>
        <pt x="326" y="676" on="1"/>
        <pt x="445" y="676" on="0"/>
        <pt x="492" y="585" on="1"/>
        <pt x="508" y="554" on="0"/>
        <pt x="508" y="512" on="1"/>
        <pt x="508" y="342" on="1"/>
        <pt x="574" y="340" on="0"/>
        <pt x="613" y="378" on="1"/>
        <pt x="633" y="398" on="0"/>
        <pt x="633" y="436" on="1"/>
        <pt x="633" y="1051" on="1"/>
        <pt x="633" y="1169" on="0"/>
        <pt x="542" y="1191" on="1"/>
        <pt x="513" y="1198" on="0"/>
        <pt x="477" y="1198" on="1"/>
        <pt x="272" y="1198" on="1"/>
        <pt x="203" y="1198" on="0"/>
        <pt x="135" y="1127" on="0"/>
        <pt x="135" y="1067" on="1"/>
      </contour>
      <contour>
        <pt x="438" y="485" on="1"/>
        <pt x="438" y="606" on="0"/>
        <pt x="322" y="606" on="1"/>
        <pt x="200" y="606" on="0"/>
        <pt x="152" y="542" on="1"/>
        <pt x="135" y="520" on="0"/>
        <pt x="135" y="446" on="0"/>
        <pt x="148" y="389" on="0"/>
        <pt x="163" y="372" on="1"/>
        <pt x="192" y="338" on="0"/>
        <pt x="260" y="338" on="1"/>
        <pt x="434" y="338" on="1"/>
        <pt x="438" y="430" on="0"/>
      </contour>
    </TTGlyph>
    <TTGlyph name="R" xMin="51" yMin="-16" xMax="825" yMax="1536">
      <contour>
        <pt x="221" y="1169" on="1"/>
        <pt x="221" y="1200" on="0"/>
        <pt x="176" y="1200" on="1"/>
        <pt x="150" y="1200" on="1"/>
        <pt x="130" y="1200" on="0"/>
        <pt x="82" y="1201" on="0"/>
        <pt x="51" y="1202" on="1"/>
        <pt x="51" y="1534" on="1"/>
        <pt x="138" y="1534" on="0"/>
        <pt x="249" y="1535" on="0"/>
        <pt x="284" y="1535" on="1"/>
        <pt x="414" y="1536" on="1"/>
        <pt x="465" y="1536" on="1"/>
        <pt x="715" y="1536" on="0"/>
        <pt x="780" y="1289" on="1"/>
        <pt x="797" y="1224" on="0"/>
        <pt x="797" y="1066" on="0"/>
        <pt x="771" y="966" on="0"/>
        <pt x="728" y="894" on="0"/>
        <pt x="674" y="849" on="0"/>
        <pt x="646" y="836" on="1"/>
        <pt x="598" y="812" on="0"/>
        <pt x="545" y="807" on="1"/>
        <pt x="545" y="801" on="1"/>
        <pt x="594" y="787" on="0"/>
        <pt x="655" y="700" on="0"/>
        <pt x="655" y="635" on="1"/>
        <pt x="655" y="369" on="1"/>
        <pt x="655" y="340" on="0"/>
        <pt x="685" y="313" on="0"/>
        <pt x="725" y="313" on="0"/>
        <pt x="754" y="348" on="0"/>
        <pt x="754" y="367" on="1"/>
        <pt x="754" y="367" on="0"/>
        <pt x="754" y="414" on="1"/>
        <pt x="754" y="442" on="0"/>
        <pt x="755" y="504" on="0"/>
        <pt x="756" y="543" on="1"/>
        <pt x="825" y="545" on="1"/>
        <pt x="825" y="178" on="1"/>
        <pt x="825" y="49" on="0"/>
        <pt x="769" y="4" on="1"/>
        <pt x="744" y="-16" on="0"/>
        <pt x="700" y="-16" on="1"/>
        <pt x="589" y="-16" on="0"/>
        <pt x="578" y="113" on="1"/>
        <pt x="575" y="149" on="0"/>
        <pt x="575" y="184" on="1"/>
        <pt x="582" y="627" on="1"/>
        <pt x="582" y="713" on="0"/>
        <pt x="521" y="756" on="1"/>
        <pt x="477" y="786" on="0"/>
        <pt x="428" y="786" on="1"/>
        <pt x="324" y="786" on="1"/>
        <pt x="305" y="786" on="0"/>
        <pt x="305" y="768" on="1"/>
        <pt x="305" y="738" on="1"/>
        <pt x="303" y="421" on="1"/>
        <pt x="303" y="385" on="1"/>
        <pt x="303" y="344" on="0"/>
        <pt x="338" y="344" on="1"/>
        <pt x="461" y="344" on="1"/>
        <pt x="459" y="4" on="1"/>
        <pt x="53" y="-2" on="1"/>
        <pt x="53" y="344" on="1"/>
        <pt x="182" y="344" on="1"/>
        <pt x="225" y="344" on="0"/>
        <pt x="225" y="395" on="1"/>
        <pt x="225" y="434" on="1"/>
        <pt x="221" y="1130" on="1"/>
      </contour>
      <contour>
        <pt x="328" y="1202" on="1"/>
        <pt x="301" y="1202" on="0"/>
        <pt x="301" y="1169" on="1"/>
        <pt x="301" y="1160" on="0"/>
        <pt x="300" y="1081" on="0"/>
        <pt x="300" y="1024" on="1"/>
        <pt x="299" y="932" on="1"/>
        <pt x="299" y="879" on="1"/>
        <pt x="299" y="860" on="0"/>
        <pt x="317" y="860" on="1"/>
        <pt x="400" y="859" on="1"/>
        <pt x="522" y="858" on="1"/>
        <pt x="631" y="858" on="0"/>
        <pt x="680" y="948" on="1"/>
        <pt x="698" y="981" on="0"/>
        <pt x="698" y="1080" on="0"/>
        <pt x="667" y="1145" on="0"/>
        <pt x="645" y="1164" on="1"/>
        <pt x="605" y="1200" on="0"/>
        <pt x="561" y="1200" on="1"/>
      </contour>
    </TTGlyph>
    <TTGlyph name="Racute" xMin="51" yMin="-16" xMax="825" yMax="1982">
      <component glyphName="R" x="0" y="0" flags="0x1204"/>
      <component glyphName="acute" x="47" y="481" flags="0x1004"/>
    </TTGlyph>
    <TTGlyph name="Rcaron" xMin="51" yMin="-16" xMax="825" yMax="1974">
      <component glyphName="R" x="0" y="0" flags="0x1204"/>
      <component glyphName="caron" x="-24" y="481" flags="0x1004"/>
    </TTGlyph>
    <TTGlyph name="Rcommaaccent" xMin="51" yMin="-461" xMax="825" yMax="1536">
      <component glyphName="R" x="0" y="0" flags="0x1204"/>
      <component glyphName="commaaccent" x="49" y="0" flags="0x1004"/>
    </TTGlyph>
    <TTGlyph name="S" xMin="61" yMin="-8" xMax="709" yMax="1544">
      <contour>
        <pt x="87" y="1104" on="1"/>
        <pt x="88" y="1307" on="1"/>
        <pt x="88" y="1511" on="0"/>
        <pt x="266" y="1536" on="1"/>
        <pt x="317" y="1544" on="0"/>
        <pt x="376" y="1544" on="1"/>
        <pt x="472" y="1544" on="0"/>
        <pt x="540" y="1503" on="1"/>
        <pt x="569" y="1485" on="0"/>
        <pt x="586" y="1462" on="1"/>
        <pt x="594" y="1462" on="1"/>
        <pt x="594" y="1536" on="1"/>
        <pt x="672" y="1536" on="1"/>
        <pt x="668" y="995" on="1"/>
        <pt x="596" y="995" on="1"/>
        <pt x="596" y="1122" on="1"/>
        <pt x="596" y="1167" on="0"/>
        <pt x="543" y="1217" on="0"/>
        <pt x="492" y="1217" on="1"/>
        <pt x="266" y="1217" on="1"/>
        <pt x="223" y="1217" on="0"/>
        <pt x="164" y="1167" on="0"/>
        <pt x="164" y="1075" on="0"/>
        <pt x="160" y="986" on="0"/>
        <pt x="163" y="904" on="0"/>
        <pt x="179" y="861" on="0"/>
        <pt x="194" y="850" on="1"/>
        <pt x="218" y="831" on="0"/>
        <pt x="289" y="831" on="1"/>
        <pt x="477" y="831" on="1"/>
        <pt x="589" y="831" on="0"/>
        <pt x="654" y="749" on="1"/>
        <pt x="709" y="679" on="0"/>
        <pt x="709" y="580" on="1"/>
        <pt x="709" y="250" on="1"/>
        <pt x="709" y="109" on="0"/>
        <pt x="642" y="52" on="1"/>
        <pt x="571" y="-8" on="0"/>
        <pt x="395" y="-8" on="1"/>
        <pt x="223" y="-8" on="0"/>
        <pt x="147" y="104" on="1"/>
        <pt x="135" y="104" on="1"/>
        <pt x="135" y="0" on="1"/>
        <pt x="61" y="0" on="1"/>
        <pt x="76" y="635" on="1"/>
        <pt x="145" y="633" on="1"/>
        <pt x="144" y="587" on="0"/>
        <pt x="143" y="505" on="0"/>
        <pt x="143" y="464" on="1"/>
        <pt x="143" y="393" on="1"/>
        <pt x="143" y="334" on="0"/>
        <pt x="158" y="319" on="1"/>
        <pt x="181" y="295" on="0"/>
        <pt x="225" y="295" on="1"/>
        <pt x="349" y="294" on="1"/>
        <pt x="524" y="293" on="1"/>
        <pt x="618" y="293" on="0"/>
        <pt x="630" y="368" on="1"/>
        <pt x="633" y="391" on="0"/>
        <pt x="633" y="420" on="1"/>
        <pt x="633" y="569" on="1"/>
        <pt x="633" y="745" on="0"/>
        <pt x="446" y="745" on="1"/>
        <pt x="293" y="745" on="1"/>
        <pt x="200" y="745" on="0"/>
        <pt x="164" y="768" on="1"/>
        <pt x="86" y="819" on="0"/>
        <pt x="86" y="967" on="1"/>
      </contour>
    </TTGlyph>
    <TTGlyph name="Sacute" xMin="61" yMin="-8" xMax="709" yMax="1982">
      <component glyphName="S" x="0" y="0" flags="0x1204"/>
      <component glyphName="acute" x="31" y="481" flags="0x1004"/>
    </TTGlyph>
    <TTGlyph name="Scaron" xMin="61" yMin="-8" xMax="709" yMax="1974">
      <component glyphName="S" x="0" y="0" flags="0x1204"/>
      <component glyphName="caron" x="-40" y="481" flags="0x1004"/>
    </TTGlyph>
    <TTGlyph name="Scedilla" xMin="61" yMin="-473" xMax="709" yMax="1544">
      <contour>
        <pt x="87" y="1104" on="1"/>
        <pt x="88" y="1307" on="1"/>
        <pt x="88" y="1511" on="0"/>
        <pt x="266" y="1536" on="1"/>
        <pt x="317" y="1544" on="0"/>
        <pt x="376" y="1544" on="1"/>
        <pt x="472" y="1544" on="0"/>
        <pt x="540" y="1503" on="1"/>
        <pt x="569" y="1485" on="0"/>
        <pt x="586" y="1462" on="1"/>
        <pt x="594" y="1462" on="1"/>
        <pt x="594" y="1536" on="1"/>
        <pt x="672" y="1536" on="1"/>
        <pt x="668" y="995" on="1"/>
        <pt x="596" y="995" on="1"/>
        <pt x="596" y="1122" on="1"/>
        <pt x="596" y="1167" on="0"/>
        <pt x="543" y="1217" on="0"/>
        <pt x="492" y="1217" on="1"/>
        <pt x="266" y="1217" on="1"/>
        <pt x="223" y="1217" on="0"/>
        <pt x="164" y="1167" on="0"/>
        <pt x="164" y="1075" on="0"/>
        <pt x="160" y="986" on="0"/>
        <pt x="163" y="904" on="0"/>
        <pt x="179" y="861" on="0"/>
        <pt x="194" y="850" on="1"/>
        <pt x="218" y="831" on="0"/>
        <pt x="289" y="831" on="1"/>
        <pt x="477" y="831" on="1"/>
        <pt x="589" y="831" on="0"/>
        <pt x="654" y="749" on="1"/>
        <pt x="709" y="679" on="0"/>
        <pt x="709" y="580" on="1"/>
        <pt x="709" y="250" on="1"/>
        <pt x="709" y="111" on="0"/>
        <pt x="644" y="54" on="1"/>
        <pt x="575" y="-6" on="0"/>
        <pt x="408" y="-8" on="1"/>
        <pt x="408" y="-121" on="1"/>
        <pt x="440" y="-117" on="0"/>
        <pt x="498" y="-117" on="0"/>
        <pt x="563" y="-136" on="0"/>
        <pt x="588" y="-155" on="1"/>
        <pt x="647" y="-199" on="0"/>
        <pt x="647" y="-312" on="0"/>
        <pt x="618" y="-387" on="0"/>
        <pt x="588" y="-414" on="1"/>
        <pt x="524" y="-473" on="0"/>
        <pt x="260" y="-473" on="0"/>
        <pt x="133" y="-416" on="1"/>
        <pt x="135" y="-328" on="1"/>
        <pt x="284" y="-391" on="0"/>
        <pt x="387" y="-391" on="1"/>
        <pt x="565" y="-391" on="0"/>
        <pt x="565" y="-281" on="1"/>
        <pt x="565" y="-202" on="0"/>
        <pt x="468" y="-196" on="1"/>
        <pt x="442" y="-195" on="0"/>
        <pt x="404" y="-195" on="0"/>
        <pt x="328" y="-203" on="1"/>
        <pt x="326" y="-2" on="1"/>
        <pt x="201" y="18" on="0"/>
        <pt x="147" y="104" on="1"/>
        <pt x="135" y="104" on="1"/>
        <pt x="135" y="0" on="1"/>
        <pt x="61" y="0" on="1"/>
        <pt x="76" y="635" on="1"/>
        <pt x="145" y="633" on="1"/>
        <pt x="144" y="587" on="0"/>
        <pt x="143" y="505" on="0"/>
        <pt x="143" y="464" on="1"/>
        <pt x="143" y="393" on="1"/>
        <pt x="143" y="334" on="0"/>
        <pt x="158" y="319" on="1"/>
        <pt x="181" y="295" on="0"/>
        <pt x="225" y="295" on="1"/>
        <pt x="349" y="294" on="1"/>
        <pt x="524" y="293" on="1"/>
        <pt x="618" y="293" on="0"/>
        <pt x="630" y="368" on="1"/>
        <pt x="633" y="391" on="0"/>
        <pt x="633" y="420" on="1"/>
        <pt x="633" y="569" on="1"/>
        <pt x="633" y="745" on="0"/>
        <pt x="446" y="745" on="1"/>
        <pt x="293" y="745" on="1"/>
        <pt x="200" y="745" on="0"/>
        <pt x="164" y="768" on="1"/>
        <pt x="86" y="819" on="0"/>
        <pt x="86" y="967" on="1"/>
      </contour>
    </TTGlyph>
    <TTGlyph name="Scircumflex" xMin="61" yMin="-8" xMax="709" yMax="1974">
      <component glyphName="S" x="0" y="0" flags="0x1204"/>
      <component glyphName="circumflex" x="-62" y="481" flags="0x1004"/>
    </TTGlyph>
    <TTGlyph name="T" xMin="31" yMin="0" xMax="694" yMax="1536">
      <contour>
        <pt x="154" y="1206" on="1"/>
        <pt x="100" y="1206" on="0"/>
        <pt x="100" y="1141" on="1"/>
        <pt x="100" y="930" on="1"/>
        <pt x="31" y="930" on="1"/>
        <pt x="31" y="1530" on="1"/>
        <pt x="289" y="1536" on="0"/>
        <pt x="694" y="1536" on="1"/>
        <pt x="694" y="961" on="1"/>
        <pt x="625" y="963" on="1"/>
        <pt x="625" y="1153" on="1"/>
        <pt x="625" y="1204" on="0"/>
        <pt x="591" y="1210" on="1"/>
        <pt x="580" y="1212" on="0"/>
        <pt x="567" y="1212" on="1"/>
        <pt x="416" y="1212" on="1"/>
        <pt x="397" y="1212" on="0"/>
        <pt x="397" y="1190" on="1"/>
        <pt x="397" y="1190" on="0"/>
        <pt x="397" y="1153" on="1"/>
        <pt x="393" y="414" on="1"/>
        <pt x="393" y="373" on="1"/>
        <pt x="393" y="356" on="0"/>
        <pt x="409" y="346" on="0"/>
        <pt x="428" y="346" on="1"/>
        <pt x="551" y="346" on="1"/>
        <pt x="551" y="0" on="1"/>
        <pt x="162" y="0" on="1"/>
        <pt x="164" y="342" on="1"/>
        <pt x="194" y="342" on="0"/>
        <pt x="220" y="343" on="1"/>
        <pt x="291" y="344" on="1"/>
        <pt x="319" y="344" on="0"/>
        <pt x="319" y="387" on="1"/>
        <pt x="319" y="1182" on="1"/>
        <pt x="319" y="1206" on="0"/>
        <pt x="297" y="1206" on="1"/>
      </contour>
    </TTGlyph>
    <TTGlyph name="Tbar" xMin="31" yMin="0" xMax="694" yMax="1536">
      <contour>
        <pt x="154" y="1206" on="1"/>
        <pt x="100" y="1206" on="0"/>
        <pt x="100" y="1141" on="1"/>
        <pt x="100" y="930" on="1"/>
        <pt x="31" y="930" on="1"/>
        <pt x="31" y="1530" on="1"/>
        <pt x="289" y="1536" on="0"/>
        <pt x="694" y="1536" on="1"/>
        <pt x="694" y="961" on="1"/>
        <pt x="625" y="963" on="1"/>
        <pt x="625" y="1153" on="1"/>
        <pt x="625" y="1204" on="0"/>
        <pt x="591" y="1210" on="1"/>
        <pt x="580" y="1212" on="0"/>
        <pt x="567" y="1212" on="1"/>
        <pt x="416" y="1212" on="1"/>
        <pt x="397" y="1212" on="0"/>
        <pt x="397" y="1190" on="1"/>
        <pt x="397" y="1190" on="0"/>
        <pt x="396" y="1078" on="1"/>
        <pt x="396" y="1078" on="0"/>
        <pt x="395" y="834" on="1"/>
        <pt x="600" y="834" on="1"/>
        <pt x="600" y="762" on="1"/>
        <pt x="393" y="762" on="1"/>
        <pt x="393" y="373" on="1"/>
        <pt x="393" y="356" on="0"/>
        <pt x="409" y="346" on="0"/>
        <pt x="428" y="346" on="1"/>
        <pt x="551" y="346" on="1"/>
        <pt x="551" y="0" on="1"/>
        <pt x="162" y="0" on="1"/>
        <pt x="164" y="342" on="1"/>
        <pt x="194" y="342" on="0"/>
        <pt x="220" y="343" on="1"/>
        <pt x="291" y="344" on="1"/>
        <pt x="319" y="344" on="0"/>
        <pt x="319" y="387" on="1"/>
        <pt x="319" y="762" on="1"/>
        <pt x="111" y="762" on="1"/>
        <pt x="109" y="834" on="1"/>
        <pt x="319" y="834" on="1"/>
        <pt x="319" y="1182" on="1"/>
        <pt x="319" y="1206" on="0"/>
        <pt x="297" y="1206" on="1"/>
      </contour>
    </TTGlyph>
    <TTGlyph name="Tcaron" xMin="31" yMin="0" xMax="694" yMax="1974">
      <component glyphName="T" x="0" y="0" flags="0x1204"/>
      <component glyphName="caron" x="-54" y="481" flags="0x1004"/>
    </TTGlyph>
    <TTGlyph name="Tcommaaccent" xMin="31" yMin="-461" xMax="694" yMax="1536">
      <component glyphName="T" x="0" y="0" flags="0x1204"/>
      <component glyphName="commaaccent" x="-71" y="0" flags="0x1004"/>
    </TTGlyph>
    <TTGlyph name="Thorn" xMin="51" yMin="0" xMax="780" yMax="1536">
      <contour>
        <pt x="219" y="365" on="1"/>
        <pt x="225" y="989" on="1"/>
        <pt x="225" y="1155" on="1"/>
        <pt x="225" y="1198" on="0"/>
        <pt x="186" y="1198" on="1"/>
        <pt x="70" y="1198" on="1"/>
        <pt x="70" y="1474" on="0"/>
        <pt x="76" y="1528" on="1"/>
        <pt x="114" y="1530" on="0"/>
        <pt x="150" y="1532" on="1"/>
        <pt x="222" y="1536" on="0"/>
        <pt x="295" y="1536" on="1"/>
        <pt x="360" y="1536" on="0"/>
        <pt x="496" y="1532" on="1"/>
        <pt x="477" y="1204" on="1"/>
        <pt x="356" y="1204" on="1"/>
        <pt x="317" y="1204" on="0"/>
        <pt x="310" y="1197" on="1"/>
        <pt x="299" y="1187" on="0"/>
        <pt x="297" y="1130" on="0"/>
        <pt x="304" y="1100" on="0"/>
        <pt x="326" y="1100" on="1"/>
        <pt x="451" y="1100" on="1"/>
        <pt x="548" y="1100" on="0"/>
        <pt x="638" y="1054" on="1"/>
        <pt x="721" y="1012" on="0"/>
        <pt x="760" y="922" on="1"/>
        <pt x="780" y="873" on="0"/>
        <pt x="780" y="736" on="0"/>
        <pt x="743" y="639" on="0"/>
        <pt x="685" y="574" on="0"/>
        <pt x="615" y="535" on="0"/>
        <pt x="582" y="526" on="1"/>
        <pt x="529" y="510" on="0"/>
        <pt x="487" y="510" on="1"/>
        <pt x="319" y="510" on="1"/>
        <pt x="307" y="510" on="0"/>
        <pt x="305" y="499" on="0"/>
        <pt x="305" y="494" on="1"/>
        <pt x="304" y="432" on="1"/>
        <pt x="303" y="362" on="1"/>
        <pt x="303" y="350" on="0"/>
        <pt x="314" y="346" on="0"/>
        <pt x="324" y="346" on="1"/>
        <pt x="477" y="346" on="1"/>
        <pt x="483" y="0" on="1"/>
        <pt x="51" y="0" on="1"/>
        <pt x="59" y="344" on="1"/>
        <pt x="97" y="344" on="0"/>
        <pt x="128" y="345" on="1"/>
        <pt x="203" y="346" on="1"/>
        <pt x="219" y="346" on="0"/>
      </contour>
      <contour>
        <pt x="299" y="618" on="1"/>
        <pt x="299" y="586" on="0"/>
        <pt x="340" y="586" on="1"/>
        <pt x="475" y="586" on="1"/>
        <pt x="590" y="586" on="0"/>
        <pt x="646" y="691" on="1"/>
        <pt x="670" y="736" on="0"/>
        <pt x="670" y="855" on="0"/>
        <pt x="643" y="920" on="0"/>
        <pt x="600" y="965" on="0"/>
        <pt x="547" y="993" on="0"/>
        <pt x="521" y="1001" on="1"/>
        <pt x="479" y="1014" on="0"/>
        <pt x="438" y="1014" on="1"/>
        <pt x="344" y="1014" on="1"/>
        <pt x="315" y="1014" on="0"/>
        <pt x="305" y="999" on="0"/>
        <pt x="305" y="979" on="1"/>
        <pt x="304" y="955" on="1"/>
        <pt x="304" y="931" on="0"/>
        <pt x="303" y="856" on="0"/>
        <pt x="301" y="767" on="0"/>
        <pt x="300" y="686" on="0"/>
        <pt x="299" y="626" on="0"/>
      </contour>
    </TTGlyph>
    <TTGlyph name="U" xMin="59" yMin="0" xMax="906" yMax="1536">
      <contour>
        <pt x="197" y="184" on="1"/>
        <pt x="195" y="1163" on="1"/>
        <pt x="195" y="1200" on="0"/>
        <pt x="160" y="1200" on="1"/>
        <pt x="59" y="1200" on="1"/>
        <pt x="61" y="1532" on="1"/>
        <pt x="418" y="1536" on="1"/>
        <pt x="416" y="1210" on="1"/>
        <pt x="388" y="1209" on="0"/>
        <pt x="366" y="1208" on="1"/>
        <pt x="323" y="1206" on="0"/>
        <pt x="301" y="1206" on="1"/>
        <pt x="270" y="1206" on="0"/>
        <pt x="270" y="1171" on="1"/>
        <pt x="270" y="457" on="1"/>
        <pt x="270" y="392" on="0"/>
        <pt x="310" y="360" on="1"/>
        <pt x="338" y="336" on="0"/>
        <pt x="377" y="336" on="1"/>
        <pt x="586" y="336" on="1"/>
        <pt x="657" y="336" on="0"/>
        <pt x="684" y="404" on="1"/>
        <pt x="693" y="427" on="0"/>
        <pt x="693" y="451" on="1"/>
        <pt x="693" y="602" on="1"/>
        <pt x="691" y="1062" on="1"/>
        <pt x="691" y="1174" on="1"/>
        <pt x="691" y="1206" on="0"/>
        <pt x="652" y="1206" on="1"/>
        <pt x="554" y="1206" on="1"/>
        <pt x="546" y="1534" on="1"/>
        <pt x="902" y="1536" on="1"/>
        <pt x="906" y="1206" on="1"/>
        <pt x="882" y="1205" on="0"/>
        <pt x="843" y="1204" on="0"/>
        <pt x="824" y="1204" on="1"/>
        <pt x="797" y="1204" on="1"/>
        <pt x="767" y="1204" on="0"/>
        <pt x="767" y="1169" on="1"/>
        <pt x="772" y="448" on="1"/>
        <pt x="773" y="190" on="1"/>
        <pt x="773" y="88" on="0"/>
        <pt x="726" y="23" on="0"/>
        <pt x="668" y="0" on="0"/>
        <pt x="623" y="0" on="1"/>
        <pt x="350" y="0" on="1"/>
        <pt x="197" y="0" on="0"/>
      </contour>
    </TTGlyph>
    <TTGlyph name="Uacute" xMin="59" yMin="0" xMax="906" yMax="1982">
      <component glyphName="U" x="0" y="0" flags="0x1204"/>
      <component glyphName="acute" x="181" y="481" flags="0x1004"/>
    </TTGlyph>
    <TTGlyph name="Ubreve" xMin="59" yMin="0" xMax="906" yMax="1935">
      <component glyphName="U" x="0" y="0" flags="0x1204"/>
      <component glyphName="breve" x="59" y="481" flags="0x1004"/>
    </TTGlyph>
    <TTGlyph name="Ucircumflex" xMin="59" yMin="0" xMax="906" yMax="1974">
      <component glyphName="U" x="0" y="0" flags="0x1204"/>
      <component glyphName="circumflex" x="46" y="481" flags="0x1004"/>
    </TTGlyph>
    <TTGlyph name="Udieresis" xMin="59" yMin="0" xMax="906" yMax="1855">
      <component glyphName="U" x="0" y="0" flags="0x1204"/>
      <component glyphName="dieresis" x="54" y="481" flags="0x1004"/>
    </TTGlyph>
    <TTGlyph name="Ugrave" xMin="59" yMin="0" xMax="906" yMax="1982">
      <component glyphName="U" x="0" y="0" flags="0x1204"/>
      <component glyphName="grave" x="-71" y="481" flags="0x1004"/>
    </TTGlyph>
    <TTGlyph name="Uhungarumlaut" xMin="59" yMin="0" xMax="906" yMax="1982">
      <component glyphName="U" x="0" y="0" flags="0x1204"/>
      <component glyphName="hungarumlaut" x="116" y="481" flags="0x1004"/>
    </TTGlyph>
    <TTGlyph name="Umacron" xMin="59" yMin="0" xMax="906" yMax="1804">
      <component glyphName="U" x="0" y="0" flags="0x1204"/>
      <component glyphName="macron" x="53" y="481" flags="0x1004"/>
    </TTGlyph>
    <TTGlyph name="Uogonek" xMin="59" yMin="-446" xMax="906" yMax="1536">
      <contour>
        <pt x="197" y="184" on="1"/>
        <pt x="195" y="1163" on="1"/>
        <pt x="195" y="1200" on="0"/>
        <pt x="160" y="1200" on="1"/>
        <pt x="59" y="1200" on="1"/>
        <pt x="61" y="1532" on="1"/>
        <pt x="428" y="1536" on="1"/>
        <pt x="426" y="1210" on="1"/>
        <pt x="396" y="1209" on="0"/>
        <pt x="372" y="1208" on="1"/>
        <pt x="324" y="1206" on="0"/>
        <pt x="301" y="1206" on="1"/>
        <pt x="270" y="1206" on="0"/>
        <pt x="270" y="1171" on="1"/>
        <pt x="270" y="457" on="1"/>
        <pt x="270" y="392" on="0"/>
        <pt x="310" y="360" on="1"/>
        <pt x="338" y="336" on="0"/>
        <pt x="377" y="336" on="1"/>
        <pt x="586" y="336" on="1"/>
        <pt x="657" y="336" on="0"/>
        <pt x="684" y="404" on="1"/>
        <pt x="693" y="427" on="0"/>
        <pt x="693" y="451" on="1"/>
        <pt x="693" y="602" on="1"/>
        <pt x="691" y="1062" on="1"/>
        <pt x="691" y="1174" on="1"/>
        <pt x="691" y="1206" on="0"/>
        <pt x="652" y="1206" on="1"/>
        <pt x="544" y="1206" on="1"/>
        <pt x="536" y="1534" on="1"/>
        <pt x="902" y="1536" on="1"/>
        <pt x="906" y="1206" on="1"/>
        <pt x="882" y="1205" on="0"/>
        <pt x="843" y="1204" on="0"/>
        <pt x="824" y="1204" on="1"/>
        <pt x="797" y="1204" on="1"/>
        <pt x="767" y="1204" on="0"/>
        <pt x="767" y="1169" on="1"/>
        <pt x="772" y="448" on="1"/>
        <pt x="773" y="190" on="1"/>
        <pt x="773" y="88" on="0"/>
        <pt x="726" y="23" on="0"/>
        <pt x="668" y="0" on="0"/>
        <pt x="623" y="0" on="1"/>
        <pt x="546" y="0" on="1"/>
        <pt x="447" y="-70" on="0"/>
        <pt x="409" y="-112" on="1"/>
        <pt x="335" y="-194" on="0"/>
        <pt x="335" y="-260" on="1"/>
        <pt x="335" y="-365" on="0"/>
        <pt x="471" y="-365" on="1"/>
        <pt x="579" y="-365" on="0"/>
        <pt x="671" y="-287" on="1"/>
        <pt x="673" y="-381" on="1"/>
        <pt x="594" y="-446" on="0"/>
        <pt x="365" y="-446" on="0"/>
        <pt x="253" y="-350" on="0"/>
        <pt x="253" y="-266" on="1"/>
        <pt x="253" y="-130" on="0"/>
        <pt x="432" y="0" on="1"/>
        <pt x="350" y="0" on="1"/>
        <pt x="197" y="0" on="0"/>
      </contour>
    </TTGlyph>
    <TTGlyph name="Uring" xMin="59" yMin="0" xMax="906" yMax="1986">
      <component glyphName="U" x="0" y="0" flags="0x1204"/>
      <component glyphName="ring" x="46" y="481" flags="0x1004"/>
    </TTGlyph>
    <TTGlyph name="Utilde" xMin="59" yMin="0" xMax="906" yMax="1962">
      <component glyphName="U" x="0" y="0" flags="0x1204"/>
      <component glyphName="tilde" x="50" y="481" flags="0x1004"/>
    </TTGlyph>
    <TTGlyph name="V" xMin="20" yMin="-2" xMax="934" yMax="1536">
      <contour>
        <pt x="143" y="1196" on="1"/>
        <pt x="79" y="1195" on="1"/>
        <pt x="55" y="1194" on="0"/>
        <pt x="27" y="1194" on="1"/>
        <pt x="20" y="1534" on="1"/>
        <pt x="397" y="1536" on="1"/>
        <pt x="391" y="1202" on="1"/>
        <pt x="363" y="1201" on="0"/>
        <pt x="341" y="1200" on="1"/>
        <pt x="297" y="1198" on="0"/>
        <pt x="256" y="1198" on="0"/>
        <pt x="251" y="1185" on="0"/>
        <pt x="255" y="1163" on="0"/>
        <pt x="272" y="1087" on="0"/>
        <pt x="297" y="973" on="0"/>
        <pt x="328" y="832" on="0"/>
        <pt x="360" y="686" on="0"/>
        <pt x="391" y="547" on="0"/>
        <pt x="403" y="492" on="1"/>
        <pt x="425" y="392" on="0"/>
        <pt x="431" y="371" on="1"/>
        <pt x="439" y="342" on="0"/>
        <pt x="459" y="342" on="1"/>
        <pt x="491" y="341" on="1"/>
        <pt x="502" y="340" on="0"/>
        <pt x="514" y="340" on="1"/>
        <pt x="535" y="340" on="0"/>
        <pt x="543" y="371" on="1"/>
        <pt x="543" y="373" on="0"/>
        <pt x="585" y="554" on="0"/>
        <pt x="617" y="697" on="0"/>
        <pt x="652" y="846" on="0"/>
        <pt x="685" y="990" on="0"/>
        <pt x="698" y="1048" on="1"/>
        <pt x="723" y="1157" on="0"/>
        <pt x="734" y="1197" on="0"/>
        <pt x="717" y="1200" on="0"/>
        <pt x="705" y="1200" on="1"/>
        <pt x="565" y="1200" on="1"/>
        <pt x="557" y="1534" on="1"/>
        <pt x="595" y="1534" on="0"/>
        <pt x="632" y="1535" on="1"/>
        <pt x="764" y="1536" on="1"/>
        <pt x="934" y="1536" on="1"/>
        <pt x="920" y="1200" on="1"/>
        <pt x="904" y="1200" on="0"/>
        <pt x="889" y="1201" on="1"/>
        <pt x="842" y="1202" on="1"/>
        <pt x="819" y="1202" on="0"/>
        <pt x="813" y="1176" on="1"/>
        <pt x="614" y="358" on="1"/>
        <pt x="614" y="350" on="0"/>
        <pt x="619" y="346" on="0"/>
        <pt x="631" y="346" on="0"/>
        <pt x="707" y="342" on="1"/>
        <pt x="705" y="-2" on="1"/>
        <pt x="256" y="2" on="1"/>
        <pt x="246" y="348" on="1"/>
        <pt x="328" y="348" on="1"/>
        <pt x="346" y="348" on="0"/>
        <pt x="356" y="357" on="0"/>
        <pt x="353" y="368" on="0"/>
        <pt x="337" y="441" on="0"/>
        <pt x="310" y="555" on="0"/>
        <pt x="277" y="700" on="0"/>
        <pt x="243" y="850" on="0"/>
        <pt x="210" y="994" on="0"/>
        <pt x="197" y="1050" on="1"/>
        <pt x="168" y="1177" on="0"/>
        <pt x="164" y="1196" on="0"/>
      </contour>
    </TTGlyph>
    <TTGlyph name="W" xMin="31" yMin="-6" xMax="1049" yMax="1536">
      <contour>
        <pt x="147" y="1116" on="0"/>
        <pt x="135" y="1185" on="0"/>
        <pt x="131" y="1204" on="0"/>
        <pt x="119" y="1204" on="1"/>
        <pt x="37" y="1204" on="1"/>
        <pt x="31" y="1532" on="1"/>
        <pt x="367" y="1536" on="1"/>
        <pt x="369" y="1202" on="1"/>
        <pt x="225" y="1202" on="1"/>
        <pt x="207" y="1202" on="0"/>
        <pt x="211" y="1182" on="1"/>
        <pt x="212" y="1179" on="0"/>
        <pt x="223" y="1116" on="0"/>
        <pt x="241" y="1015" on="0"/>
        <pt x="263" y="888" on="0"/>
        <pt x="302" y="667" on="0"/>
        <pt x="336" y="471" on="1"/>
        <pt x="530" y="1280" on="1"/>
        <pt x="598" y="1278" on="1"/>
        <pt x="729" y="506" on="1"/>
        <pt x="818" y="906" on="0"/>
        <pt x="866" y="1117" on="0"/>
        <pt x="880" y="1179" on="0"/>
        <pt x="881" y="1182" on="1"/>
        <pt x="884" y="1198" on="0"/>
        <pt x="866" y="1198" on="1"/>
        <pt x="727" y="1198" on="1"/>
        <pt x="727" y="1536" on="1"/>
        <pt x="1049" y="1536" on="1"/>
        <pt x="1047" y="1200" on="1"/>
        <pt x="981" y="1200" on="1"/>
        <pt x="960" y="1200" on="0"/>
        <pt x="956" y="1182" on="1"/>
        <pt x="956" y="1181" on="0"/>
        <pt x="940" y="1111" on="0"/>
        <pt x="915" y="999" on="0"/>
        <pt x="883" y="855" on="0"/>
        <pt x="850" y="704" on="0"/>
        <pt x="818" y="559" on="0"/>
        <pt x="805" y="501" on="1"/>
        <pt x="779" y="385" on="0"/>
        <pt x="775" y="370" on="1"/>
        <pt x="769" y="344" on="0"/>
        <pt x="788" y="344" on="1"/>
        <pt x="899" y="344" on="1"/>
        <pt x="901" y="4" on="1"/>
        <pt x="598" y="-6" on="1"/>
        <pt x="586" y="346" on="1"/>
        <pt x="670" y="346" on="1"/>
        <pt x="685" y="346" on="0"/>
        <pt x="682" y="400" on="0"/>
        <pt x="561" y="1026" on="1"/>
        <pt x="551" y="1026" on="1"/>
        <pt x="466" y="709" on="0"/>
        <pt x="416" y="515" on="0"/>
        <pt x="391" y="419" on="0"/>
        <pt x="376" y="359" on="0"/>
        <pt x="374" y="355" on="1"/>
        <pt x="370" y="344" on="0"/>
        <pt x="389" y="344" on="1"/>
        <pt x="483" y="344" on="1"/>
        <pt x="483" y="-2" on="1"/>
        <pt x="141" y="4" on="1"/>
        <pt x="141" y="342" on="1"/>
        <pt x="264" y="342" on="1"/>
        <pt x="284" y="342" on="0"/>
        <pt x="274" y="383" on="1"/>
        <pt x="265" y="428" on="0"/>
        <pt x="216" y="718" on="0"/>
        <pt x="190" y="865" on="0"/>
        <pt x="166" y="1005" on="0"/>
      </contour>
    </TTGlyph>
    <TTGlyph name="Wacute" xMin="31" yMin="-6" xMax="1049" yMax="1982">
      <component glyphName="W" x="0" y="0" flags="0x1204"/>
      <component glyphName="acute" x="213" y="481" flags="0x1004"/>
    </TTGlyph>
    <TTGlyph name="Wcircumflex" xMin="31" yMin="-6" xMax="1049" yMax="1974">
      <component glyphName="W" x="0" y="0" flags="0x1204"/>
      <component glyphName="circumflex" x="119" y="481" flags="0x1004"/>
    </TTGlyph>
    <TTGlyph name="Wdieresis" xMin="31" yMin="-6" xMax="1049" yMax="1855">
      <component glyphName="W" x="0" y="0" flags="0x1204"/>
      <component glyphName="dieresis" x="117" y="481" flags="0x1004"/>
    </TTGlyph>
    <TTGlyph name="Wgrave" xMin="31" yMin="-6" xMax="1049" yMax="1982">
      <component glyphName="W" x="0" y="0" flags="0x1204"/>
      <component glyphName="grave" x="31" y="481" flags="0x1004"/>
    </TTGlyph>
    <TTGlyph name="X" xMin="41" yMin="0" xMax="905" yMax="1536">
      <contour>
        <pt x="893" y="1206" on="1"/>
        <pt x="809" y="1202" on="0"/>
        <pt x="770" y="1202" on="0"/>
        <pt x="759" y="1179" on="0"/>
        <pt x="737" y="1141" on="0"/>
        <pt x="720" y="1112" on="1"/>
        <pt x="663" y="1016" on="0"/>
        <pt x="581" y="880" on="0"/>
        <pt x="514" y="768" on="1"/>
        <pt x="566" y="665" on="0"/>
        <pt x="626" y="547" on="0"/>
        <pt x="661" y="478" on="0"/>
        <pt x="675" y="450" on="1"/>
        <pt x="706" y="387" on="0"/>
        <pt x="720" y="362" on="0"/>
        <pt x="733" y="344" on="0"/>
        <pt x="752" y="344" on="1"/>
        <pt x="895" y="344" on="1"/>
        <pt x="905" y="0" on="1"/>
        <pt x="535" y="0" on="1"/>
        <pt x="532" y="340" on="1"/>
        <pt x="627" y="340" on="1"/>
        <pt x="637" y="340" on="0"/>
        <pt x="637" y="353" on="0"/>
        <pt x="635" y="358" on="1"/>
        <pt x="469" y="692" on="1"/>
        <pt x="443" y="651" on="0"/>
        <pt x="383" y="551" on="0"/>
        <pt x="354" y="504" on="1"/>
        <pt x="288" y="396" on="0"/>
        <pt x="273" y="374" on="1"/>
        <pt x="252" y="344" on="0"/>
        <pt x="281" y="344" on="1"/>
        <pt x="414" y="344" on="1"/>
        <pt x="416" y="0" on="1"/>
        <pt x="47" y="0" on="1"/>
        <pt x="41" y="344" on="1"/>
        <pt x="143" y="344" on="1"/>
        <pt x="168" y="344" on="0"/>
        <pt x="188" y="369" on="1"/>
        <pt x="190" y="372" on="0"/>
        <pt x="214" y="407" on="0"/>
        <pt x="249" y="463" on="0"/>
        <pt x="270" y="497" on="1"/>
        <pt x="321" y="576" on="0"/>
        <pt x="430" y="754" on="1"/>
        <pt x="307" y="988" on="0"/>
        <pt x="257" y="1082" on="0"/>
        <pt x="224" y="1144" on="0"/>
        <pt x="203" y="1185" on="0"/>
        <pt x="200" y="1190" on="1"/>
        <pt x="192" y="1202" on="0"/>
        <pt x="168" y="1202" on="1"/>
        <pt x="84" y="1202" on="1"/>
        <pt x="84" y="1536" on="1"/>
        <pt x="434" y="1536" on="1"/>
        <pt x="434" y="1202" on="1"/>
        <pt x="311" y="1202" on="1"/>
        <pt x="289" y="1202" on="0"/>
        <pt x="295" y="1184" on="1"/>
        <pt x="295" y="1182" on="0"/>
        <pt x="312" y="1150" on="0"/>
        <pt x="337" y="1100" on="0"/>
        <pt x="370" y="1037" on="0"/>
        <pt x="427" y="927" on="0"/>
        <pt x="477" y="831" on="1"/>
        <pt x="528" y="921" on="0"/>
        <pt x="585" y="1026" on="0"/>
        <pt x="619" y="1088" on="0"/>
        <pt x="647" y="1139" on="0"/>
        <pt x="667" y="1174" on="0"/>
        <pt x="675" y="1192" on="0"/>
        <pt x="660" y="1202" on="0"/>
        <pt x="647" y="1202" on="1"/>
        <pt x="557" y="1202" on="1"/>
        <pt x="551" y="1536" on="1"/>
        <pt x="893" y="1536" on="1"/>
      </contour>
    </TTGlyph>
    <TTGlyph name="Y" xMin="20" yMin="0" xMax="907" yMax="1536">
      <contour>
        <pt x="397" y="418" on="1"/>
        <pt x="399" y="591" on="1"/>
        <pt x="400" y="668" on="0"/>
        <pt x="401" y="762" on="1"/>
        <pt x="346" y="863" on="0"/>
        <pt x="282" y="983" on="0"/>
        <pt x="244" y="1052" on="0"/>
        <pt x="212" y="1110" on="0"/>
        <pt x="190" y="1151" on="0"/>
        <pt x="180" y="1166" on="1"/>
        <pt x="155" y="1202" on="0"/>
        <pt x="129" y="1202" on="1"/>
        <pt x="108" y="1202" on="1"/>
        <pt x="91" y="1202" on="0"/>
        <pt x="50" y="1203" on="0"/>
        <pt x="23" y="1204" on="1"/>
        <pt x="20" y="1534" on="1"/>
        <pt x="389" y="1536" on="1"/>
        <pt x="381" y="1206" on="1"/>
        <pt x="285" y="1210" on="0"/>
        <pt x="263" y="1210" on="0"/>
        <pt x="249" y="1200" on="0"/>
        <pt x="250" y="1192" on="1"/>
        <pt x="251" y="1181" on="0"/>
        <pt x="272" y="1146" on="0"/>
        <pt x="288" y="1116" on="0"/>
        <pt x="312" y="1070" on="0"/>
        <pt x="342" y="1014" on="0"/>
        <pt x="392" y="919" on="0"/>
        <pt x="436" y="836" on="1"/>
        <pt x="482" y="906" on="0"/>
        <pt x="536" y="989" on="0"/>
        <pt x="568" y="1037" on="0"/>
        <pt x="594" y="1078" on="0"/>
        <pt x="613" y="1107" on="0"/>
        <pt x="621" y="1120" on="1"/>
        <pt x="653" y="1170" on="0"/>
        <pt x="653" y="1200" on="0"/>
        <pt x="612" y="1200" on="1"/>
        <pt x="543" y="1200" on="1"/>
        <pt x="541" y="1536" on="1"/>
        <pt x="907" y="1528" on="1"/>
        <pt x="895" y="1190" on="1"/>
        <pt x="797" y="1190" on="1"/>
        <pt x="745" y="1190" on="0"/>
        <pt x="719" y="1147" on="1"/>
        <pt x="715" y="1141" on="0"/>
        <pt x="691" y="1102" on="0"/>
        <pt x="673" y="1074" on="1"/>
        <pt x="547" y="882" on="0"/>
        <pt x="475" y="770" on="1"/>
        <pt x="472" y="618" on="0"/>
        <pt x="470" y="497" on="0"/>
        <pt x="469" y="441" on="0"/>
        <pt x="469" y="422" on="1"/>
        <pt x="469" y="395" on="1"/>
        <pt x="469" y="369" on="0"/>
        <pt x="498" y="350" on="0"/>
        <pt x="526" y="350" on="1"/>
        <pt x="653" y="350" on="1"/>
        <pt x="641" y="0" on="1"/>
        <pt x="217" y="0" on="1"/>
        <pt x="211" y="342" on="1"/>
        <pt x="336" y="342" on="1"/>
        <pt x="397" y="342" on="0"/>
        <pt x="397" y="393" on="1"/>
      </contour>
    </TTGlyph>
    <TTGlyph name="Yacute" xMin="20" yMin="0" xMax="907" yMax="1982">
      <component glyphName="Y" x="0" y="0" flags="0x1204"/>
      <component glyphName="acute" x="115" y="481" flags="0x1004"/>
    </TTGlyph>
    <TTGlyph name="Ycircumflex" xMin="20" yMin="0" xMax="907" yMax="1974">
      <component glyphName="Y" x="0" y="0" flags="0x1204"/>
      <component glyphName="circumflex" x="20" y="481" flags="0x1004"/>
    </TTGlyph>
    <TTGlyph name="Ydieresis" xMin="20" yMin="0" xMax="907" yMax="1855">
      <component glyphName="Y" x="0" y="0" flags="0x1204"/>
      <component glyphName="dieresis" x="18" y="481" flags="0x1004"/>
    </TTGlyph>
    <TTGlyph name="Ygrave" xMin="20" yMin="0" xMax="907" yMax="1982">
      <component glyphName="Y" x="0" y="0" flags="0x1204"/>
      <component glyphName="grave" x="-67" y="481" flags="0x1004"/>
    </TTGlyph>
    <TTGlyph name="Z" xMin="72" yMin="-8" xMax="727" yMax="1536">
      <contour>
        <pt x="170" y="1151" on="1"/>
        <pt x="169" y="1076" on="1"/>
        <pt x="168" y="1054" on="0"/>
        <pt x="168" y="1030" on="1"/>
        <pt x="96" y="1030" on="1"/>
        <pt x="94" y="1528" on="1"/>
        <pt x="157" y="1528" on="0"/>
        <pt x="216" y="1529" on="1"/>
        <pt x="596" y="1536" on="1"/>
        <pt x="715" y="1536" on="1"/>
        <pt x="705" y="1221" on="1"/>
        <pt x="174" y="328" on="1"/>
        <pt x="596" y="340" on="1"/>
        <pt x="621" y="340" on="0"/>
        <pt x="653" y="375" on="0"/>
        <pt x="653" y="395" on="1"/>
        <pt x="653" y="436" on="1"/>
        <pt x="653" y="458" on="0"/>
        <pt x="654" y="504" on="0"/>
        <pt x="655" y="530" on="1"/>
        <pt x="727" y="530" on="1"/>
        <pt x="725" y="2" on="1"/>
        <pt x="650" y="1" on="0"/>
        <pt x="586" y="1" on="1"/>
        <pt x="476" y="0" on="1"/>
        <pt x="437" y="0" on="0"/>
        <pt x="397" y="0" on="1"/>
        <pt x="364" y="0" on="0"/>
        <pt x="72" y="-8" on="1"/>
        <pt x="72" y="307" on="1"/>
        <pt x="608" y="1208" on="1"/>
        <pt x="335" y="1202" on="0"/>
        <pt x="294" y="1202" on="1"/>
        <pt x="246" y="1202" on="1"/>
        <pt x="170" y="1202" on="0"/>
      </contour>
    </TTGlyph>
    <TTGlyph name="Zacute" xMin="72" yMin="-8" xMax="727" yMax="1982">
      <component glyphName="Z" x="0" y="0" flags="0x1204"/>
      <component glyphName="acute" x="74" y="481" flags="0x1004"/>
    </TTGlyph>
    <TTGlyph name="Zcaron" xMin="72" yMin="-8" xMax="727" yMax="1974">
      <component glyphName="Z" x="0" y="0" flags="0x1204"/>
      <component glyphName="caron" x="2" y="481" flags="0x1004"/>
    </TTGlyph>
    <TTGlyph name="Zdotaccent" xMin="72" yMin="-8" xMax="727" yMax="1896">
      <component glyphName="Z" x="0" y="0" flags="0x1204"/>
      <component glyphName="dotaccent" x="-17" y="481" flags="0x1004"/>
    </TTGlyph>
    <TTGlyph name="a" xMin="61" yMin="-10" xMax="799" yMax="1038">
      <contour>
        <pt x="604" y="645" on="1"/>
        <pt x="604" y="745" on="0"/>
        <pt x="164" y="745" on="0"/>
        <pt x="164" y="645" on="1"/>
        <pt x="164" y="610" on="1"/>
        <pt x="94" y="606" on="1"/>
        <pt x="100" y="1038" on="1"/>
        <pt x="168" y="1036" on="1"/>
        <pt x="168" y="928" on="1"/>
        <pt x="217" y="985" on="0"/>
        <pt x="370" y="1032" on="0"/>
        <pt x="511" y="1032" on="0"/>
        <pt x="602" y="990" on="0"/>
        <pt x="628" y="960" on="1"/>
        <pt x="676" y="905" on="0"/>
        <pt x="676" y="838" on="1"/>
        <pt x="677" y="691" on="1"/>
        <pt x="679" y="467" on="1"/>
        <pt x="680" y="340" on="1"/>
        <pt x="680" y="299" on="0"/>
        <pt x="713" y="299" on="1"/>
        <pt x="799" y="299" on="1"/>
        <pt x="797" y="0" on="1"/>
        <pt x="578" y="-2" on="1"/>
        <pt x="578" y="133" on="1"/>
        <pt x="557" y="84" on="0"/>
        <pt x="508" y="52" on="1"/>
        <pt x="415" y="-10" on="0"/>
        <pt x="322" y="-10" on="1"/>
        <pt x="61" y="-10" on="0"/>
        <pt x="61" y="274" on="1"/>
        <pt x="61" y="420" on="0"/>
        <pt x="139" y="496" on="1"/>
        <pt x="198" y="553" on="0"/>
        <pt x="281" y="553" on="1"/>
        <pt x="545" y="553" on="1"/>
        <pt x="576" y="553" on="0"/>
        <pt x="587" y="568" on="1"/>
        <pt x="604" y="589" on="0"/>
        <pt x="604" y="610" on="1"/>
      </contour>
      <contour>
        <pt x="354" y="276" on="1"/>
        <pt x="604" y="276" on="0"/>
        <pt x="604" y="444" on="1"/>
        <pt x="604" y="461" on="0"/>
        <pt x="586" y="489" on="0"/>
        <pt x="573" y="489" on="1"/>
        <pt x="472" y="488" on="1"/>
        <pt x="289" y="487" on="1"/>
        <pt x="204" y="487" on="0"/>
        <pt x="178" y="422" on="1"/>
        <pt x="170" y="403" on="0"/>
        <pt x="170" y="383" on="1"/>
        <pt x="170" y="276" on="0"/>
      </contour>
    </TTGlyph>
    <TTGlyph name="aacute" xMin="61" yMin="-10" xMax="799" yMax="1501">
      <component glyphName="a" x="0" y="0" flags="0x1204"/>
      <component glyphName="acute" x="35" y="0" flags="0x1004"/>
    </TTGlyph>
    <TTGlyph name="abreve" xMin="61" yMin="-10" xMax="799" yMax="1454">
      <component glyphName="a" x="0" y="0" flags="0x1204"/>
      <component glyphName="breve" x="-46" y="0" flags="0x1004"/>
    </TTGlyph>
    <TTGlyph name="acircumflex" xMin="61" yMin="-10" xMax="799" yMax="1493">
      <component glyphName="a" x="0" y="0" flags="0x1204"/>
      <component glyphName="circumflex" x="-58" y="0" flags="0x1004"/>
    </TTGlyph>
    <TTGlyph name="acute" xMin="274" yMin="1147" xMax="592" yMax="1501">
      <contour>
        <pt x="592" y="1446" on="1"/>
        <pt x="342" y="1147" on="1"/>
        <pt x="274" y="1206" on="1"/>
        <pt x="526" y="1501" on="1"/>
      </contour>
    </TTGlyph>
    <TTGlyph name="adieresis" xMin="61" yMin="-10" xMax="799" yMax="1374">
      <component glyphName="a" x="0" y="0" flags="0x1204"/>
      <component glyphName="dieresis" x="-60" y="0" flags="0x1004"/>
    </TTGlyph>
    <TTGlyph name="ae" xMin="61" yMin="-18" xMax="1224" yMax="1040">
      <contour>
        <pt x="643" y="911" on="1"/>
        <pt x="718" y="1040" on="0"/>
        <pt x="934" y="1040" on="1"/>
        <pt x="1187" y="1040" on="0"/>
        <pt x="1218" y="858" on="1"/>
        <pt x="1224" y="827" on="0"/>
        <pt x="1223" y="772" on="0"/>
        <pt x="1223" y="734" on="0"/>
        <pt x="1214" y="514" on="1"/>
        <pt x="678" y="502" on="1"/>
        <pt x="678" y="430" on="1"/>
        <pt x="678" y="281" on="0"/>
        <pt x="932" y="281" on="1"/>
        <pt x="1037" y="281" on="0"/>
        <pt x="1145" y="325" on="0"/>
        <pt x="1145" y="360" on="1"/>
        <pt x="1145" y="422" on="1"/>
        <pt x="1212" y="430" on="1"/>
        <pt x="1204" y="282" on="0"/>
        <pt x="1204" y="112" on="0"/>
        <pt x="1147" y="33" on="0"/>
        <pt x="1100" y="13" on="1"/>
        <pt x="1028" y="-18" on="0"/>
        <pt x="879" y="-18" on="1"/>
        <pt x="658" y="-18" on="0"/>
        <pt x="614" y="150" on="1"/>
        <pt x="532" y="-10" on="0"/>
        <pt x="322" y="-10" on="1"/>
        <pt x="61" y="-10" on="0"/>
        <pt x="61" y="274" on="1"/>
        <pt x="61" y="433" on="0"/>
        <pt x="139" y="506" on="1"/>
        <pt x="195" y="559" on="0"/>
        <pt x="281" y="559" on="1"/>
        <pt x="545" y="559" on="1"/>
        <pt x="576" y="559" on="0"/>
        <pt x="587" y="574" on="1"/>
        <pt x="604" y="595" on="0"/>
        <pt x="604" y="616" on="1"/>
        <pt x="604" y="645" on="1"/>
        <pt x="604" y="745" on="0"/>
        <pt x="164" y="745" on="0"/>
        <pt x="164" y="645" on="1"/>
        <pt x="164" y="610" on="1"/>
        <pt x="94" y="606" on="1"/>
        <pt x="100" y="1038" on="1"/>
        <pt x="168" y="1036" on="1"/>
        <pt x="168" y="928" on="1"/>
        <pt x="217" y="985" on="0"/>
        <pt x="370" y="1032" on="0"/>
        <pt x="442" y="1032" on="1"/>
        <pt x="599" y="1032" on="0"/>
      </contour>
      <contour>
        <pt x="170" y="383" on="1"/>
        <pt x="170" y="276" on="0"/>
        <pt x="354" y="276" on="1"/>
        <pt x="549" y="276" on="0"/>
        <pt x="592" y="377" on="1"/>
        <pt x="604" y="407" on="0"/>
        <pt x="604" y="436" on="1"/>
        <pt x="604" y="496" on="0"/>
        <pt x="559" y="496" on="1"/>
        <pt x="466" y="495" on="1"/>
        <pt x="289" y="494" on="1"/>
        <pt x="204" y="494" on="0"/>
        <pt x="178" y="423" on="1"/>
        <pt x="170" y="403" on="0"/>
      </contour>
      <contour>
        <pt x="1148" y="596" on="1"/>
        <pt x="1149" y="653" on="1"/>
        <pt x="1149" y="750" on="0"/>
        <pt x="934" y="750" on="1"/>
        <pt x="796" y="750" on="0"/>
        <pt x="730" y="696" on="1"/>
        <pt x="678" y="652" on="0"/>
        <pt x="678" y="575" on="1"/>
        <pt x="725" y="576" on="0"/>
        <pt x="811" y="578" on="0"/>
        <pt x="899" y="579" on="0"/>
        <pt x="964" y="581" on="0"/>
        <pt x="1039" y="582" on="0"/>
        <pt x="1109" y="584" on="0"/>
        <pt x="1147" y="584" on="1"/>
        <pt x="1147" y="587" on="0"/>
      </contour>
    </TTGlyph>
    <TTGlyph name="aeacute" xMin="61" yMin="-18" xMax="1224" yMax="1501">
      <component glyphName="ae" x="0" y="0" flags="0x1204"/>
      <component glyphName="acute" x="313" y="0" flags="0x1004"/>
    </TTGlyph>
    <TTGlyph name="agrave" xMin="61" yMin="-10" xMax="799" yMax="1501">
      <component glyphName="a" x="0" y="0" flags="0x1204"/>
      <component glyphName="grave" x="-146" y="0" flags="0x1004"/>
    </TTGlyph>
    <TTGlyph name="amacron" xMin="61" yMin="-10" xMax="799" yMax="1323">
      <component glyphName="a" x="0" y="0" flags="0x1204"/>
      <component glyphName="macron" x="-52" y="0" flags="0x1004"/>
    </TTGlyph>
    <TTGlyph name="ampersand" xMin="82" yMin="-14" xMax="864" yMax="1536">
      <contour>
        <pt x="177" y="1226" on="1"/>
        <pt x="176" y="1389" on="1"/>
        <pt x="176" y="1463" on="0"/>
        <pt x="230" y="1502" on="1"/>
        <pt x="274" y="1534" on="0"/>
        <pt x="358" y="1534" on="0"/>
        <pt x="383" y="1535" on="1"/>
        <pt x="487" y="1536" on="1"/>
        <pt x="545" y="1536" on="0"/>
        <pt x="589" y="1494" on="1"/>
        <pt x="633" y="1451" on="0"/>
        <pt x="633" y="1395" on="1"/>
        <pt x="634" y="1280" on="1"/>
        <pt x="634" y="1280" on="0"/>
        <pt x="635" y="1124" on="1"/>
        <pt x="635" y="970" on="0"/>
        <pt x="539" y="922" on="1"/>
        <pt x="508" y="903" on="0"/>
        <pt x="394" y="844" on="0"/>
        <pt x="358" y="825" on="1"/>
        <pt x="369" y="799" on="0"/>
        <pt x="461" y="648" on="0"/>
        <pt x="523" y="546" on="0"/>
        <pt x="578" y="457" on="0"/>
        <pt x="598" y="425" on="1"/>
        <pt x="623" y="385" on="1"/>
        <pt x="636" y="476" on="0"/>
        <pt x="636" y="655" on="0"/>
        <pt x="635" y="670" on="1"/>
        <pt x="709" y="672" on="1"/>
        <pt x="704" y="452" on="0"/>
        <pt x="690" y="299" on="1"/>
        <pt x="864" y="27" on="1"/>
        <pt x="801" y="-14" on="1"/>
        <pt x="777" y="24" on="0"/>
        <pt x="755" y="58" on="1"/>
        <pt x="698" y="144" on="0"/>
        <pt x="674" y="186" on="1"/>
        <pt x="672" y="172" on="0"/>
        <pt x="668" y="111" on="0"/>
        <pt x="654" y="80" on="1"/>
        <pt x="620" y="0" on="0"/>
        <pt x="530" y="0" on="1"/>
        <pt x="250" y="0" on="1"/>
        <pt x="172" y="0" on="0"/>
        <pt x="125" y="52" on="1"/>
        <pt x="82" y="101" on="0"/>
        <pt x="82" y="166" on="1"/>
        <pt x="82" y="530" on="1"/>
        <pt x="82" y="648" on="0"/>
        <pt x="140" y="764" on="0"/>
        <pt x="209" y="830" on="0"/>
        <pt x="260" y="856" on="1"/>
        <pt x="246" y="884" on="1"/>
        <pt x="239" y="898" on="0"/>
        <pt x="221" y="933" on="0"/>
        <pt x="208" y="959" on="1"/>
        <pt x="178" y="1019" on="0"/>
        <pt x="178" y="1104" on="1"/>
      </contour>
      <contour>
        <pt x="569" y="334" on="1"/>
        <pt x="445" y="522" on="0"/>
        <pt x="293" y="791" on="1"/>
        <pt x="189" y="746" on="0"/>
        <pt x="163" y="630" on="1"/>
        <pt x="156" y="599" on="0"/>
        <pt x="156" y="573" on="1"/>
        <pt x="158" y="401" on="1"/>
        <pt x="158" y="322" on="0"/>
        <pt x="252" y="322" on="1"/>
        <pt x="512" y="322" on="1"/>
        <pt x="553" y="322" on="0"/>
      </contour>
      <contour>
        <pt x="561" y="1137" on="1"/>
        <pt x="561" y="1202" on="0"/>
        <pt x="492" y="1202" on="1"/>
        <pt x="326" y="1202" on="1"/>
        <pt x="270" y="1202" on="0"/>
        <pt x="258" y="1162" on="1"/>
        <pt x="254" y="1151" on="0"/>
        <pt x="254" y="1140" on="1"/>
        <pt x="254" y="1110" on="1"/>
        <pt x="254" y="1032" on="0"/>
        <pt x="288" y="966" on="0"/>
        <pt x="304" y="933" on="0"/>
        <pt x="311" y="919" on="1"/>
        <pt x="326" y="889" on="1"/>
        <pt x="382" y="917" on="1"/>
        <pt x="405" y="928" on="0"/>
        <pt x="450" y="952" on="0"/>
        <pt x="512" y="983" on="0"/>
        <pt x="561" y="1034" on="0"/>
        <pt x="561" y="1063" on="1"/>
      </contour>
    </TTGlyph>
    <TTGlyph name="aogonek" xMin="61" yMin="-446" xMax="860" yMax="1038">
      <contour>
        <pt x="604" y="645" on="1"/>
        <pt x="604" y="745" on="0"/>
        <pt x="164" y="745" on="0"/>
        <pt x="164" y="645" on="1"/>
        <pt x="164" y="610" on="1"/>
        <pt x="94" y="606" on="1"/>
        <pt x="100" y="1038" on="1"/>
        <pt x="168" y="1036" on="1"/>
        <pt x="168" y="928" on="1"/>
        <pt x="217" y="985" on="0"/>
        <pt x="370" y="1032" on="0"/>
        <pt x="511" y="1032" on="0"/>
        <pt x="602" y="990" on="0"/>
        <pt x="628" y="960" on="1"/>
        <pt x="676" y="905" on="0"/>
        <pt x="676" y="838" on="1"/>
        <pt x="677" y="691" on="1"/>
        <pt x="679" y="467" on="1"/>
        <pt x="680" y="340" on="1"/>
        <pt x="680" y="299" on="0"/>
        <pt x="713" y="299" on="1"/>
        <pt x="799" y="299" on="1"/>
        <pt x="797" y="0" on="1"/>
        <pt x="608" y="-67" on="0"/>
        <pt x="543" y="-185" on="1"/>
        <pt x="522" y="-223" on="0"/>
        <pt x="522" y="-281" on="0"/>
        <pt x="536" y="-320" on="0"/>
        <pt x="552" y="-334" on="1"/>
        <pt x="587" y="-365" on="0"/>
        <pt x="657" y="-365" on="1"/>
        <pt x="766" y="-365" on="0"/>
        <pt x="858" y="-287" on="1"/>
        <pt x="860" y="-381" on="1"/>
        <pt x="781" y="-446" on="0"/>
        <pt x="552" y="-446" on="0"/>
        <pt x="440" y="-350" on="0"/>
        <pt x="440" y="-266" on="1"/>
        <pt x="440" y="-187" on="0"/>
        <pt x="510" y="-110" on="1"/>
        <pt x="573" y="-41" on="0"/>
        <pt x="670" y="-2" on="1"/>
        <pt x="578" y="-2" on="1"/>
        <pt x="578" y="133" on="1"/>
        <pt x="557" y="84" on="0"/>
        <pt x="508" y="52" on="1"/>
        <pt x="415" y="-10" on="0"/>
        <pt x="322" y="-10" on="1"/>
        <pt x="61" y="-10" on="0"/>
        <pt x="61" y="274" on="1"/>
        <pt x="61" y="420" on="0"/>
        <pt x="139" y="496" on="1"/>
        <pt x="198" y="553" on="0"/>
        <pt x="281" y="553" on="1"/>
        <pt x="545" y="553" on="1"/>
        <pt x="576" y="553" on="0"/>
        <pt x="587" y="568" on="1"/>
        <pt x="604" y="589" on="0"/>
        <pt x="604" y="610" on="1"/>
      </contour>
      <contour>
        <pt x="354" y="276" on="1"/>
        <pt x="604" y="276" on="0"/>
        <pt x="604" y="444" on="1"/>
        <pt x="604" y="461" on="0"/>
        <pt x="586" y="489" on="0"/>
        <pt x="573" y="489" on="1"/>
        <pt x="472" y="488" on="1"/>
        <pt x="289" y="487" on="1"/>
        <pt x="204" y="487" on="0"/>
        <pt x="178" y="422" on="1"/>
        <pt x="170" y="403" on="0"/>
        <pt x="170" y="383" on="1"/>
        <pt x="170" y="276" on="0"/>
      </contour>
    </TTGlyph>
    <TTGlyph name="approxequal" xMin="86" yMin="434" xMax="629" yMax="866">
      <contour>
        <pt x="629" y="864" on="1"/>
        <pt x="629" y="864" on="0"/>
        <pt x="629" y="842" on="1"/>
        <pt x="629" y="771" on="0"/>
        <pt x="587" y="722" on="1"/>
        <pt x="550" y="680" on="0"/>
        <pt x="439" y="680" on="0"/>
        <pt x="374" y="715" on="0"/>
        <pt x="321" y="758" on="0"/>
        <pt x="270" y="793" on="0"/>
        <pt x="204" y="793" on="0"/>
        <pt x="160" y="738" on="0"/>
        <pt x="160" y="688" on="1"/>
        <pt x="86" y="688" on="1"/>
        <pt x="86" y="807" on="0"/>
        <pt x="176" y="852" on="1"/>
        <pt x="204" y="866" on="0"/>
        <pt x="281" y="866" on="0"/>
        <pt x="339" y="831" on="0"/>
        <pt x="389" y="789" on="0"/>
        <pt x="442" y="754" on="0"/>
        <pt x="499" y="754" on="0"/>
        <pt x="527" y="763" on="0"/>
        <pt x="536" y="775" on="1"/>
        <pt x="557" y="801" on="0"/>
        <pt x="557" y="864" on="1"/>
      </contour>
      <contour>
        <pt x="629" y="618" on="1"/>
        <pt x="634" y="573" on="0"/>
        <pt x="616" y="529" on="1"/>
        <pt x="575" y="434" on="0"/>
        <pt x="487" y="434" on="1"/>
        <pt x="417" y="434" on="0"/>
        <pt x="348" y="490" on="1"/>
        <pt x="321" y="512" on="0"/>
        <pt x="270" y="547" on="0"/>
        <pt x="204" y="547" on="0"/>
        <pt x="160" y="492" on="0"/>
        <pt x="160" y="442" on="1"/>
        <pt x="86" y="442" on="1"/>
        <pt x="86" y="564" on="0"/>
        <pt x="176" y="608" on="1"/>
        <pt x="204" y="621" on="0"/>
        <pt x="278" y="621" on="0"/>
        <pt x="335" y="586" on="0"/>
        <pt x="387" y="543" on="0"/>
        <pt x="442" y="508" on="0"/>
        <pt x="499" y="508" on="0"/>
        <pt x="527" y="517" on="0"/>
        <pt x="536" y="529" on="1"/>
        <pt x="557" y="555" on="0"/>
        <pt x="557" y="618" on="1"/>
      </contour>
    </TTGlyph>
    <TTGlyph name="aring" xMin="61" yMin="-10" xMax="799" yMax="1505">
      <component glyphName="a" x="0" y="0" flags="0x1204"/>
      <component glyphName="ring" x="-58" y="0" flags="0x1004"/>
    </TTGlyph>
    <TTGlyph name="asciicircum" xMin="115" yMin="1073" xMax="911" yMax="1536">
      <contour>
        <pt x="846" y="1073" on="1"/>
        <pt x="510" y="1405" on="1"/>
        <pt x="180" y="1081" on="1"/>
        <pt x="115" y="1141" on="1"/>
        <pt x="512" y="1536" on="1"/>
        <pt x="911" y="1133" on="1"/>
      </contour>
    </TTGlyph>
    <TTGlyph name="asciitilde" xMin="66" yMin="520" xMax="651" yMax="768">
      <contour>
        <pt x="504" y="594" on="1"/>
        <pt x="578" y="594" on="0"/>
        <pt x="578" y="684" on="1"/>
        <pt x="578" y="766" on="1"/>
        <pt x="651" y="766" on="1"/>
        <pt x="651" y="707" on="1"/>
        <pt x="651" y="586" on="0"/>
        <pt x="579" y="540" on="1"/>
        <pt x="549" y="520" on="0"/>
        <pt x="468" y="520" on="0"/>
        <pt x="414" y="546" on="0"/>
        <pt x="367" y="584" on="0"/>
        <pt x="324" y="630" on="0"/>
        <pt x="304" y="649" on="1"/>
        <pt x="255" y="694" on="0"/>
        <pt x="181" y="694" on="0"/>
        <pt x="139" y="635" on="0"/>
        <pt x="139" y="586" on="1"/>
        <pt x="139" y="520" on="1"/>
        <pt x="66" y="520" on="1"/>
        <pt x="66" y="592" on="1"/>
        <pt x="66" y="673" on="0"/>
        <pt x="148" y="768" on="0"/>
        <pt x="219" y="768" on="1"/>
        <pt x="294" y="768" on="0"/>
        <pt x="449" y="594" on="0"/>
      </contour>
    </TTGlyph>
    <TTGlyph name="asterisk" xMin="82" yMin="967" xMax="604" yMax="1536">
      <contour>
        <pt x="371" y="1534" on="1"/>
        <pt x="367" y="1309" on="1"/>
        <pt x="571" y="1427" on="1"/>
        <pt x="604" y="1372" on="1"/>
        <pt x="391" y="1249" on="1"/>
        <pt x="588" y="1135" on="1"/>
        <pt x="551" y="1075" on="1"/>
        <pt x="369" y="1184" on="1"/>
        <pt x="371" y="969" on="1"/>
        <pt x="305" y="967" on="1"/>
        <pt x="301" y="1182" on="1"/>
        <pt x="113" y="1063" on="1"/>
        <pt x="82" y="1124" on="1"/>
        <pt x="289" y="1247" on="1"/>
        <pt x="82" y="1366" on="1"/>
        <pt x="111" y="1421" on="1"/>
        <pt x="303" y="1317" on="1"/>
        <pt x="295" y="1536" on="1"/>
      </contour>
    </TTGlyph>
    <TTGlyph name="at" xMin="102" yMin="-45" xMax="1100" yMax="1559">
      <contour>
        <pt x="111" y="371" on="1"/>
        <pt x="102" y="1092" on="1"/>
        <pt x="102" y="1366" on="0"/>
        <pt x="274" y="1478" on="1"/>
        <pt x="398" y="1559" on="0"/>
        <pt x="616" y="1559" on="1"/>
        <pt x="841" y="1559" on="0"/>
        <pt x="962" y="1470" on="1"/>
        <pt x="1093" y="1373" on="0"/>
        <pt x="1097" y="1196" on="1"/>
        <pt x="1098" y="1155" on="0"/>
        <pt x="1098" y="1130" on="1"/>
        <pt x="1098" y="1064" on="1"/>
        <pt x="1100" y="622" on="1"/>
        <pt x="1100" y="526" on="1"/>
        <pt x="1100" y="428" on="0"/>
        <pt x="1044" y="376" on="1"/>
        <pt x="998" y="332" on="0"/>
        <pt x="886" y="332" on="0"/>
        <pt x="827" y="360" on="0"/>
        <pt x="809" y="377" on="1"/>
        <pt x="783" y="402" on="0"/>
        <pt x="774" y="428" on="1"/>
        <pt x="772" y="426" on="0"/>
        <pt x="749" y="392" on="0"/>
        <pt x="725" y="372" on="1"/>
        <pt x="661" y="319" on="0"/>
        <pt x="565" y="319" on="1"/>
        <pt x="362" y="319" on="0"/>
        <pt x="362" y="565" on="1"/>
        <pt x="362" y="741" on="0"/>
        <pt x="490" y="782" on="1"/>
        <pt x="529" y="795" on="0"/>
        <pt x="573" y="795" on="1"/>
        <pt x="764" y="795" on="1"/>
        <pt x="764" y="887" on="1"/>
        <pt x="764" y="929" on="0"/>
        <pt x="695" y="973" on="0"/>
        <pt x="598" y="973" on="0"/>
        <pt x="528" y="961" on="0"/>
        <pt x="502" y="952" on="1"/>
        <pt x="446" y="931" on="0"/>
        <pt x="446" y="901" on="1"/>
        <pt x="446" y="854" on="1"/>
        <pt x="379" y="852" on="1"/>
        <pt x="381" y="1180" on="1"/>
        <pt x="451" y="1180" on="1"/>
        <pt x="449" y="1108" on="1"/>
        <pt x="557" y="1180" on="0"/>
        <pt x="676" y="1180" on="1"/>
        <pt x="834" y="1180" on="0"/>
        <pt x="834" y="1028" on="1"/>
        <pt x="834" y="976" on="1"/>
        <pt x="831" y="570" on="1"/>
        <pt x="831" y="514" on="1"/>
        <pt x="831" y="468" on="0"/>
        <pt x="880" y="403" on="0"/>
        <pt x="930" y="403" on="1"/>
        <pt x="1024" y="403" on="0"/>
        <pt x="1024" y="516" on="1"/>
        <pt x="1024" y="1135" on="1"/>
        <pt x="1024" y="1244" on="0"/>
        <pt x="988" y="1344" on="0"/>
        <pt x="935" y="1410" on="0"/>
        <pt x="890" y="1434" on="1"/>
        <pt x="796" y="1485" on="0"/>
        <pt x="492" y="1485" on="0"/>
        <pt x="320" y="1430" on="0"/>
        <pt x="270" y="1379" on="1"/>
        <pt x="178" y="1287" on="0"/>
        <pt x="178" y="1092" on="1"/>
        <pt x="180" y="365" on="1"/>
        <pt x="180" y="172" on="0"/>
        <pt x="282" y="94" on="1"/>
        <pt x="370" y="27" on="0"/>
        <pt x="772" y="27" on="0"/>
        <pt x="909" y="125" on="1"/>
        <pt x="944" y="57" on="1"/>
        <pt x="842" y="-9" on="0"/>
        <pt x="684" y="-36" on="1"/>
        <pt x="628" y="-45" on="0"/>
        <pt x="440" y="-45" on="0"/>
        <pt x="266" y="5" on="0"/>
        <pt x="212" y="56" on="1"/>
        <pt x="111" y="153" on="0"/>
      </contour>
      <contour>
        <pt x="682" y="726" on="1"/>
        <pt x="559" y="727" on="1"/>
        <pt x="500" y="727" on="0"/>
        <pt x="436" y="666" on="0"/>
        <pt x="436" y="606" on="0"/>
        <pt x="447" y="568" on="0"/>
        <pt x="462" y="552" on="1"/>
        <pt x="494" y="514" on="0"/>
        <pt x="613" y="514" on="0"/>
        <pt x="686" y="537" on="0"/>
        <pt x="711" y="556" on="1"/>
        <pt x="762" y="593" on="0"/>
        <pt x="762" y="645" on="1"/>
        <pt x="762" y="725" on="1"/>
        <pt x="721" y="725" on="0"/>
      </contour>
    </TTGlyph>
    <TTGlyph name="atilde" xMin="61" yMin="-10" xMax="799" yMax="1481">
      <component glyphName="a" x="0" y="0" flags="0x1204"/>
      <component glyphName="tilde" x="-54" y="0" flags="0x1004"/>
    </TTGlyph>
    <TTGlyph name="b" xMin="-41" yMin="-16" xMax="725" yMax="1536">
      <contour>
        <pt x="125" y="1169" on="1"/>
        <pt x="125" y="1236" on="0"/>
        <pt x="78" y="1234" on="1"/>
        <pt x="66" y="1233" on="0"/>
        <pt x="59" y="1233" on="1"/>
        <pt x="-41" y="1233" on="1"/>
        <pt x="-35" y="1534" on="1"/>
        <pt x="203" y="1536" on="1"/>
        <pt x="197" y="852" on="1"/>
        <pt x="224" y="971" on="0"/>
        <pt x="340" y="1016" on="1"/>
        <pt x="384" y="1032" on="0"/>
        <pt x="512" y="1032" on="0"/>
        <pt x="607" y="1005" on="0"/>
        <pt x="669" y="960" on="0"/>
        <pt x="704" y="905" on="0"/>
        <pt x="712" y="876" on="1"/>
        <pt x="725" y="835" on="0"/>
        <pt x="725" y="776" on="1"/>
        <pt x="725" y="240" on="1"/>
        <pt x="725" y="56" on="0"/>
        <pt x="568" y="2" on="1"/>
        <pt x="514" y="-16" on="0"/>
        <pt x="377" y="-16" on="0"/>
        <pt x="294" y="4" on="0"/>
        <pt x="266" y="24" on="1"/>
        <pt x="214" y="63" on="0"/>
        <pt x="193" y="143" on="1"/>
        <pt x="184" y="-2" on="1"/>
        <pt x="98" y="0" on="1"/>
        <pt x="96" y="0" on="0"/>
        <pt x="105" y="44" on="0"/>
        <pt x="110" y="84" on="1"/>
        <pt x="125" y="204" on="0"/>
        <pt x="125" y="297" on="1"/>
      </contour>
      <contour>
        <pt x="429" y="752" on="1"/>
        <pt x="361" y="752" on="0"/>
        <pt x="270" y="731" on="0"/>
        <pt x="244" y="712" on="1"/>
        <pt x="197" y="676" on="0"/>
        <pt x="197" y="596" on="1"/>
        <pt x="197" y="401" on="1"/>
        <pt x="197" y="325" on="0"/>
        <pt x="246" y="291" on="1"/>
        <pt x="301" y="252" on="0"/>
        <pt x="432" y="252" on="1"/>
        <pt x="614" y="252" on="0"/>
        <pt x="644" y="338" on="1"/>
        <pt x="653" y="364" on="0"/>
        <pt x="653" y="393" on="1"/>
        <pt x="653" y="596" on="1"/>
        <pt x="653" y="672" on="0"/>
        <pt x="608" y="708" on="1"/>
        <pt x="555" y="752" on="0"/>
      </contour>
    </TTGlyph>
    <TTGlyph name="backslash" xMin="41" yMin="0" xMax="635" yMax="1536">
      <contour>
        <pt x="563" y="0" on="1"/>
        <pt x="41" y="1511" on="1"/>
        <pt x="113" y="1536" on="1"/>
        <pt x="635" y="23" on="1"/>
      </contour>
    </TTGlyph>
    <TTGlyph name="bar" xMin="299" yMin="-512" xMax="375" yMax="1536">
      <contour>
        <pt x="299" y="-512" on="1"/>
        <pt x="299" y="1536" on="1"/>
        <pt x="375" y="1536" on="1"/>
        <pt x="375" y="-510" on="1"/>
      </contour>
    </TTGlyph>
    <TTGlyph name="braceleft" xMin="59" yMin="-160" xMax="512" yMax="1536">
      <contour>
        <pt x="512" y="-160" on="1"/>
        <pt x="344" y="-160" on="0"/>
        <pt x="211" y="-93" on="0"/>
        <pt x="147" y="10" on="0"/>
        <pt x="147" y="146" on="0"/>
        <pt x="174" y="248" on="0"/>
        <pt x="190" y="302" on="1"/>
        <pt x="233" y="445" on="0"/>
        <pt x="233" y="550" on="0"/>
        <pt x="218" y="593" on="0"/>
        <pt x="206" y="608" on="1"/>
        <pt x="158" y="668" on="0"/>
        <pt x="59" y="672" on="1"/>
        <pt x="63" y="731" on="1"/>
        <pt x="186" y="745" on="0"/>
        <pt x="216" y="836" on="1"/>
        <pt x="223" y="857" on="0"/>
        <pt x="223" y="935" on="0"/>
        <pt x="203" y="1020" on="0"/>
        <pt x="190" y="1058" on="1"/>
        <pt x="158" y="1157" on="0"/>
        <pt x="158" y="1288" on="0"/>
        <pt x="198" y="1407" on="0"/>
        <pt x="240" y="1449" on="1"/>
        <pt x="327" y="1536" on="0"/>
        <pt x="504" y="1536" on="1"/>
        <pt x="512" y="1464" on="1"/>
        <pt x="387" y="1464" on="0"/>
        <pt x="276" y="1399" on="0"/>
        <pt x="221" y="1307" on="0"/>
        <pt x="221" y="1194" on="0"/>
        <pt x="245" y="1112" on="0"/>
        <pt x="259" y="1069" on="1"/>
        <pt x="297" y="952" on="0"/>
        <pt x="297" y="849" on="0"/>
        <pt x="263" y="780" on="0"/>
        <pt x="241" y="757" on="1"/>
        <pt x="209" y="723" on="0"/>
        <pt x="176" y="707" on="1"/>
        <pt x="178" y="706" on="0"/>
        <pt x="220" y="688" on="0"/>
        <pt x="244" y="666" on="1"/>
        <pt x="307" y="608" on="0"/>
        <pt x="307" y="456" on="0"/>
        <pt x="280" y="361" on="0"/>
        <pt x="264" y="312" on="1"/>
        <pt x="221" y="180" on="0"/>
        <pt x="221" y="74" on="1"/>
        <pt x="221" y="-57" on="0"/>
        <pt x="363" y="-83" on="1"/>
        <pt x="425" y="-95" on="0"/>
        <pt x="506" y="-86" on="1"/>
      </contour>
    </TTGlyph>
    <TTGlyph name="braceright" xMin="102" yMin="-162" xMax="555" yMax="1534">
      <contour>
        <pt x="102" y="1534" on="1"/>
        <pt x="270" y="1534" on="0"/>
        <pt x="403" y="1467" on="0"/>
        <pt x="467" y="1364" on="0"/>
        <pt x="467" y="1228" on="0"/>
        <pt x="440" y="1126" on="0"/>
        <pt x="424" y="1072" on="1"/>
        <pt x="381" y="929" on="0"/>
        <pt x="381" y="852" on="1"/>
        <pt x="381" y="758" on="0"/>
        <pt x="468" y="721" on="1"/>
        <pt x="506" y="704" on="0"/>
        <pt x="555" y="702" on="1"/>
        <pt x="551" y="643" on="1"/>
        <pt x="464" y="633" on="0"/>
        <pt x="416" y="574" on="1"/>
        <pt x="391" y="544" on="0"/>
        <pt x="391" y="439" on="0"/>
        <pt x="412" y="355" on="0"/>
        <pt x="424" y="316" on="1"/>
        <pt x="457" y="211" on="0"/>
        <pt x="457" y="86" on="0"/>
        <pt x="417" y="-33" on="0"/>
        <pt x="374" y="-75" on="1"/>
        <pt x="286" y="-162" on="0"/>
        <pt x="111" y="-162" on="1"/>
        <pt x="102" y="-90" on="1"/>
        <pt x="228" y="-90" on="0"/>
        <pt x="338" y="-25" on="0"/>
        <pt x="393" y="68" on="0"/>
        <pt x="393" y="181" on="0"/>
        <pt x="369" y="262" on="0"/>
        <pt x="355" y="306" on="1"/>
        <pt x="317" y="424" on="0"/>
        <pt x="317" y="525" on="0"/>
        <pt x="351" y="594" on="0"/>
        <pt x="372" y="618" on="1"/>
        <pt x="404" y="652" on="0"/>
        <pt x="436" y="668" on="1"/>
        <pt x="434" y="669" on="0"/>
        <pt x="393" y="687" on="0"/>
        <pt x="370" y="708" on="1"/>
        <pt x="307" y="766" on="0"/>
        <pt x="307" y="918" on="0"/>
        <pt x="334" y="1014" on="0"/>
        <pt x="350" y="1062" on="1"/>
        <pt x="393" y="1193" on="0"/>
        <pt x="393" y="1300" on="1"/>
        <pt x="393" y="1431" on="0"/>
        <pt x="251" y="1457" on="1"/>
        <pt x="189" y="1469" on="0"/>
        <pt x="109" y="1460" on="1"/>
      </contour>
    </TTGlyph>
    <TTGlyph name="bracketleft" xMin="143" yMin="-203" xMax="532" yMax="1536">
      <contour>
        <pt x="526" y="1460" on="1"/>
        <pt x="233" y="1460" on="1"/>
        <pt x="217" y="-129" on="1"/>
        <pt x="502" y="-129" on="1"/>
        <pt x="500" y="-203" on="1"/>
        <pt x="143" y="-199" on="1"/>
        <pt x="160" y="1536" on="1"/>
        <pt x="532" y="1534" on="1"/>
      </contour>
    </TTGlyph>
    <TTGlyph name="bracketright" xMin="82" yMin="-203" xMax="471" yMax="1536">
      <contour>
        <pt x="88" y="-127" on="1"/>
        <pt x="381" y="-127" on="1"/>
        <pt x="397" y="1462" on="1"/>
        <pt x="113" y="1462" on="1"/>
        <pt x="115" y="1536" on="1"/>
        <pt x="471" y="1532" on="1"/>
        <pt x="455" y="-203" on="1"/>
        <pt x="82" y="-201" on="1"/>
      </contour>
    </TTGlyph>
    <TTGlyph name="breve" xMin="145" yMin="1167" xMax="721" yMax="1454">
      <contour>
        <pt x="721" y="1444" on="1"/>
        <pt x="721" y="1341" on="0"/>
        <pt x="652" y="1262" on="1"/>
        <pt x="570" y="1167" on="0"/>
        <pt x="424" y="1167" on="1"/>
        <pt x="272" y="1167" on="0"/>
        <pt x="198" y="1274" on="1"/>
        <pt x="145" y="1353" on="0"/>
        <pt x="145" y="1454" on="1"/>
        <pt x="229" y="1454" on="1"/>
        <pt x="229" y="1329" on="0"/>
        <pt x="322" y="1274" on="1"/>
        <pt x="360" y="1251" on="0"/>
        <pt x="486" y="1251" on="0"/>
        <pt x="567" y="1296" on="0"/>
        <pt x="591" y="1327" on="1"/>
        <pt x="631" y="1378" on="0"/>
        <pt x="637" y="1444" on="1"/>
      </contour>
    </TTGlyph>
    <TTGlyph name="brokenbar" xMin="299" yMin="-348" xMax="375" yMax="1372">
      <contour>
        <pt x="299" y="635" on="1"/>
        <pt x="299" y="1372" on="1"/>
        <pt x="375" y="1372" on="1"/>
        <pt x="375" y="637" on="1"/>
      </contour>
      <contour>
        <pt x="299" y="-348" on="1"/>
        <pt x="299" y="389" on="1"/>
        <pt x="375" y="389" on="1"/>
        <pt x="375" y="-346" on="1"/>
      </contour>
    </TTGlyph>
    <TTGlyph name="bullet" xMin="61" yMin="547" xMax="592" yMax="1042">
      <contour>
        <pt x="61" y="792" on="1"/>
        <pt x="61" y="831" on="0"/>
        <pt x="83" y="917" on="0"/>
        <pt x="112" y="954" on="1"/>
        <pt x="183" y="1042" on="0"/>
        <pt x="330" y="1042" on="1"/>
        <pt x="456" y="1042" on="0"/>
        <pt x="529" y="958" on="1"/>
        <pt x="592" y="887" on="0"/>
        <pt x="592" y="797" on="1"/>
        <pt x="592" y="701" on="0"/>
        <pt x="532" y="631" on="1"/>
        <pt x="461" y="547" on="0"/>
        <pt x="326" y="547" on="1"/>
        <pt x="192" y="547" on="0"/>
        <pt x="120" y="628" on="1"/>
        <pt x="61" y="695" on="0"/>
      </contour>
    </TTGlyph>
    <TTGlyph name="c" xMin="61" yMin="-14" xMax="664" yMax="1040">
      <contour>
        <pt x="68" y="215" on="1"/>
        <pt x="61" y="799" on="1"/>
        <pt x="61" y="921" on="0"/>
        <pt x="148" y="984" on="1"/>
        <pt x="227" y="1040" on="0"/>
        <pt x="520" y="1040" on="0"/>
        <pt x="596" y="934" on="1"/>
        <pt x="596" y="1038" on="1"/>
        <pt x="664" y="1038" on="1"/>
        <pt x="655" y="573" on="1"/>
        <pt x="588" y="573" on="1"/>
        <pt x="588" y="653" on="1"/>
        <pt x="588" y="742" on="0"/>
        <pt x="422" y="750" on="1"/>
        <pt x="382" y="752" on="0"/>
        <pt x="295" y="752" on="0"/>
        <pt x="212" y="737" on="0"/>
        <pt x="186" y="719" on="1"/>
        <pt x="135" y="684" on="0"/>
        <pt x="135" y="594" on="1"/>
        <pt x="134" y="500" on="1"/>
        <pt x="133" y="385" on="1"/>
        <pt x="133" y="314" on="0"/>
        <pt x="178" y="286" on="1"/>
        <pt x="229" y="252" on="0"/>
        <pt x="365" y="252" on="1"/>
        <pt x="580" y="252" on="0"/>
        <pt x="586" y="354" on="1"/>
        <pt x="588" y="434" on="1"/>
        <pt x="657" y="436" on="1"/>
        <pt x="656" y="399" on="0"/>
        <pt x="655" y="364" on="1"/>
        <pt x="653" y="296" on="0"/>
        <pt x="653" y="137" on="0"/>
        <pt x="607" y="42" on="0"/>
        <pt x="567" y="19" on="1"/>
        <pt x="510" y="-14" on="0"/>
        <pt x="264" y="-14" on="0"/>
        <pt x="152" y="18" on="0"/>
        <pt x="121" y="48" on="1"/>
        <pt x="68" y="98" on="0"/>
      </contour>
    </TTGlyph>
    <TTGlyph name="cacute" xMin="61" yMin="-14" xMax="664" yMax="1501">
      <component glyphName="c" x="0" y="0" flags="0x1204"/>
      <component glyphName="acute" x="12" y="0" flags="0x1004"/>
    </TTGlyph>
    <TTGlyph name="caron" xMin="145" yMin="1147" xMax="721" yMax="1493">
      <contour>
        <pt x="416" y="1147" on="1"/>
        <pt x="145" y="1434" on="1"/>
        <pt x="213" y="1493" on="1"/>
        <pt x="422" y="1268" on="1"/>
        <pt x="659" y="1491" on="1"/>
        <pt x="721" y="1423" on="1"/>
      </contour>
    </TTGlyph>
    <TTGlyph name="ccaron" xMin="61" yMin="-14" xMax="664" yMax="1493">
      <component glyphName="c" x="0" y="0" flags="0x1204"/>
      <component glyphName="caron" x="-58" y="0" flags="0x1004"/>
    </TTGlyph>
    <TTGlyph name="ccedilla" xMin="61" yMin="-473" xMax="664" yMax="1040">
      <contour>
        <pt x="68" y="215" on="1"/>
        <pt x="61" y="799" on="1"/>
        <pt x="61" y="921" on="0"/>
        <pt x="148" y="984" on="1"/>
        <pt x="227" y="1040" on="0"/>
        <pt x="520" y="1040" on="0"/>
        <pt x="596" y="934" on="1"/>
        <pt x="596" y="1038" on="1"/>
        <pt x="664" y="1038" on="1"/>
        <pt x="655" y="573" on="1"/>
        <pt x="588" y="573" on="1"/>
        <pt x="588" y="653" on="1"/>
        <pt x="588" y="742" on="0"/>
        <pt x="422" y="750" on="1"/>
        <pt x="382" y="752" on="0"/>
        <pt x="295" y="752" on="0"/>
        <pt x="212" y="737" on="0"/>
        <pt x="186" y="719" on="1"/>
        <pt x="135" y="684" on="0"/>
        <pt x="135" y="594" on="1"/>
        <pt x="134" y="500" on="1"/>
        <pt x="133" y="385" on="1"/>
        <pt x="133" y="314" on="0"/>
        <pt x="178" y="286" on="1"/>
        <pt x="229" y="252" on="0"/>
        <pt x="365" y="252" on="1"/>
        <pt x="580" y="252" on="0"/>
        <pt x="586" y="354" on="1"/>
        <pt x="588" y="434" on="1"/>
        <pt x="657" y="436" on="1"/>
        <pt x="656" y="399" on="0"/>
        <pt x="655" y="364" on="1"/>
        <pt x="653" y="296" on="0"/>
        <pt x="653" y="141" on="0"/>
        <pt x="612" y="48" on="0"/>
        <pt x="576" y="24" on="1"/>
        <pt x="521" y="-12" on="0"/>
        <pt x="381" y="-14" on="1"/>
        <pt x="381" y="-121" on="1"/>
        <pt x="413" y="-117" on="0"/>
        <pt x="471" y="-117" on="0"/>
        <pt x="536" y="-136" on="0"/>
        <pt x="562" y="-155" on="1"/>
        <pt x="621" y="-198" on="0"/>
        <pt x="621" y="-312" on="0"/>
        <pt x="592" y="-387" on="0"/>
        <pt x="562" y="-414" on="1"/>
        <pt x="498" y="-473" on="0"/>
        <pt x="236" y="-473" on="0"/>
        <pt x="106" y="-416" on="1"/>
        <pt x="109" y="-328" on="1"/>
        <pt x="258" y="-391" on="0"/>
        <pt x="455" y="-391" on="0"/>
        <pt x="539" y="-328" on="0"/>
        <pt x="539" y="-249" on="0"/>
        <pt x="510" y="-214" on="0"/>
        <pt x="488" y="-206" on="1"/>
        <pt x="459" y="-195" on="0"/>
        <pt x="377" y="-195" on="0"/>
        <pt x="301" y="-203" on="1"/>
        <pt x="299" y="-12" on="1"/>
        <pt x="104" y="-1" on="0"/>
        <pt x="76" y="126" on="1"/>
        <pt x="68" y="166" on="0"/>
      </contour>
    </TTGlyph>
    <TTGlyph name="ccircumflex" xMin="61" yMin="-14" xMax="664" yMax="1493">
      <component glyphName="c" x="0" y="0" flags="0x1204"/>
      <component glyphName="circumflex" x="-81" y="0" flags="0x1004"/>
    </TTGlyph>
    <TTGlyph name="cdotaccent" xMin="61" yMin="-14" xMax="664" yMax="1415">
      <component glyphName="c" x="0" y="0" flags="0x1204"/>
      <component glyphName="dotaccent" x="-79" y="0" flags="0x1004"/>
    </TTGlyph>
    <TTGlyph name="cedilla" xMin="176" yMin="-473" xMax="690" yMax="23">
      <contour>
        <pt x="510" y="-196" on="1"/>
        <pt x="485" y="-195" on="0"/>
        <pt x="447" y="-195" on="0"/>
        <pt x="371" y="-203" on="1"/>
        <pt x="369" y="23" on="1"/>
        <pt x="451" y="20" on="1"/>
        <pt x="451" y="-121" on="1"/>
        <pt x="483" y="-117" on="0"/>
        <pt x="541" y="-117" on="0"/>
        <pt x="606" y="-136" on="0"/>
        <pt x="632" y="-155" on="1"/>
        <pt x="690" y="-199" on="0"/>
        <pt x="690" y="-312" on="0"/>
        <pt x="661" y="-387" on="0"/>
        <pt x="631" y="-414" on="1"/>
        <pt x="567" y="-473" on="0"/>
        <pt x="303" y="-473" on="0"/>
        <pt x="176" y="-416" on="1"/>
        <pt x="178" y="-328" on="1"/>
        <pt x="327" y="-391" on="0"/>
        <pt x="430" y="-391" on="1"/>
        <pt x="608" y="-391" on="0"/>
        <pt x="608" y="-281" on="1"/>
        <pt x="608" y="-202" on="0"/>
      </contour>
    </TTGlyph>
    <TTGlyph name="cent" xMin="61" yMin="-94" xMax="616" yMax="1444">
      <contour>
        <pt x="616" y="608" on="1"/>
        <pt x="612" y="488" on="0"/>
        <pt x="612" y="336" on="0"/>
        <pt x="578" y="243" on="0"/>
        <pt x="546" y="218" on="1"/>
        <pt x="497" y="180" on="0"/>
        <pt x="371" y="178" on="1"/>
        <pt x="371" y="-92" on="1"/>
        <pt x="307" y="-94" on="1"/>
        <pt x="307" y="178" on="1"/>
        <pt x="158" y="182" on="0"/>
        <pt x="106" y="244" on="1"/>
        <pt x="68" y="290" on="0"/>
        <pt x="68" y="408" on="1"/>
        <pt x="61" y="991" on="1"/>
        <pt x="61" y="1218" on="0"/>
        <pt x="307" y="1231" on="1"/>
        <pt x="307" y="1444" on="1"/>
        <pt x="371" y="1444" on="1"/>
        <pt x="371" y="1233" on="1"/>
        <pt x="490" y="1228" on="0"/>
        <pt x="532" y="1198" on="1"/>
        <pt x="614" y="1139" on="0"/>
        <pt x="614" y="1004" on="1"/>
        <pt x="614" y="786" on="1"/>
        <pt x="547" y="786" on="1"/>
        <pt x="547" y="866" on="1"/>
        <pt x="547" y="945" on="0"/>
        <pt x="432" y="960" on="1"/>
        <pt x="400" y="964" on="0"/>
        <pt x="371" y="965" on="1"/>
        <pt x="371" y="424" on="1"/>
        <pt x="539" y="429" on="0"/>
        <pt x="545" y="526" on="1"/>
        <pt x="547" y="606" on="1"/>
      </contour>
      <contour>
        <pt x="135" y="807" on="1"/>
        <pt x="133" y="557" on="1"/>
        <pt x="133" y="488" on="0"/>
        <pt x="156" y="467" on="1"/>
        <pt x="197" y="428" on="0"/>
        <pt x="307" y="424" on="1"/>
        <pt x="307" y="965" on="1"/>
        <pt x="206" y="961" on="0"/>
        <pt x="135" y="894" on="0"/>
      </contour>
    </TTGlyph>
    <TTGlyph name="circumflex" xMin="145" yMin="1147" xMax="721" yMax="1493">
      <contour>
        <pt x="451" y="1493" on="1"/>
        <pt x="721" y="1206" on="1"/>
        <pt x="653" y="1147" on="1"/>
        <pt x="444" y="1372" on="1"/>
        <pt x="207" y="1149" on="1"/>
        <pt x="145" y="1217" on="1"/>
      </contour>
    </TTGlyph>
    <TTGlyph name="colon" xMin="102" yMin="-10" xMax="442" yMax="922">
      <contour>
        <pt x="102" y="146" on="1"/>
        <pt x="102" y="172" on="0"/>
        <pt x="116" y="227" on="0"/>
        <pt x="135" y="251" on="1"/>
        <pt x="179" y="307" on="0"/>
        <pt x="274" y="307" on="1"/>
        <pt x="355" y="307" on="0"/>
        <pt x="402" y="254" on="1"/>
        <pt x="442" y="207" on="0"/>
        <pt x="442" y="124" on="0"/>
        <pt x="424" y="67" on="0"/>
        <pt x="404" y="44" on="1"/>
        <pt x="358" y="-10" on="0"/>
        <pt x="272" y="-10" on="1"/>
        <pt x="186" y="-10" on="0"/>
        <pt x="140" y="42" on="1"/>
        <pt x="102" y="84" on="0"/>
      </contour>
      <contour>
        <pt x="102" y="760" on="1"/>
        <pt x="102" y="786" on="0"/>
        <pt x="116" y="841" on="0"/>
        <pt x="135" y="865" on="1"/>
        <pt x="180" y="922" on="0"/>
        <pt x="274" y="922" on="1"/>
        <pt x="353" y="922" on="0"/>
        <pt x="402" y="868" on="1"/>
        <pt x="442" y="823" on="0"/>
        <pt x="442" y="738" on="0"/>
        <pt x="424" y="681" on="0"/>
        <pt x="404" y="658" on="1"/>
        <pt x="358" y="604" on="0"/>
        <pt x="272" y="604" on="1"/>
        <pt x="186" y="604" on="0"/>
        <pt x="140" y="656" on="1"/>
        <pt x="102" y="698" on="0"/>
      </contour>
    </TTGlyph>
    <TTGlyph name="comma" xMin="61" yMin="-256" xMax="418" yMax="309">
      <contour>
        <pt x="305" y="6" on="1"/>
        <pt x="305" y="18" on="0"/>
        <pt x="290" y="18" on="0"/>
        <pt x="276" y="9" on="0"/>
        <pt x="264" y="4" on="1"/>
        <pt x="178" y="-34" on="0"/>
        <pt x="110" y="26" on="1"/>
        <pt x="61" y="70" on="0"/>
        <pt x="61" y="184" on="0"/>
        <pt x="92" y="246" on="0"/>
        <pt x="116" y="267" on="1"/>
        <pt x="164" y="309" on="0"/>
        <pt x="261" y="309" on="0"/>
        <pt x="330" y="287" on="0"/>
        <pt x="357" y="262" on="1"/>
        <pt x="418" y="207" on="0"/>
        <pt x="418" y="35" on="0"/>
        <pt x="360" y="-78" on="0"/>
        <pt x="316" y="-122" on="1"/>
        <pt x="246" y="-194" on="0"/>
        <pt x="123" y="-256" on="1"/>
        <pt x="86" y="-195" on="1"/>
        <pt x="189" y="-157" on="0"/>
        <pt x="254" y="-85" on="1"/>
        <pt x="305" y="-30" on="0"/>
      </contour>
    </TTGlyph>
    <TTGlyph name="commaaccent" xMin="334" yMin="-461" xMax="537" yMax="-102">
      <contour>
        <pt x="537" y="-102" on="1"/>
        <pt x="532" y="-262" on="1"/>
        <pt x="532" y="-391" on="0"/>
        <pt x="383" y="-461" on="1"/>
        <pt x="348" y="-403" on="1"/>
        <pt x="440" y="-373" on="0"/>
        <pt x="453" y="-297" on="1"/>
        <pt x="340" y="-297" on="1"/>
        <pt x="334" y="-102" on="1"/>
      </contour>
    </TTGlyph>
    <TTGlyph name="copyright" xMin="102" yMin="-49" xMax="1098" yMax="1538">
      <contour>
        <pt x="109" y="397" on="1"/>
        <pt x="109" y="397" on="0"/>
        <pt x="102" y="1071" on="1"/>
        <pt x="102" y="1345" on="0"/>
        <pt x="269" y="1456" on="1"/>
        <pt x="391" y="1538" on="0"/>
        <pt x="610" y="1538" on="1"/>
        <pt x="836" y="1538" on="0"/>
        <pt x="958" y="1446" on="1"/>
        <pt x="1050" y="1377" on="0"/>
        <pt x="1082" y="1258" on="1"/>
        <pt x="1098" y="1199" on="0"/>
        <pt x="1098" y="1102" on="1"/>
        <pt x="1098" y="389" on="1"/>
        <pt x="1098" y="292" on="0"/>
        <pt x="1069" y="183" on="0"/>
        <pt x="1012" y="83" on="0"/>
        <pt x="958" y="42" on="1"/>
        <pt x="836" y="-49" on="0"/>
        <pt x="610" y="-49" on="1"/>
        <pt x="293" y="-49" on="0"/>
        <pt x="183" y="108" on="1"/>
        <pt x="123" y="192" on="0"/>
        <pt x="114" y="302" on="1"/>
        <pt x="109" y="353" on="0"/>
      </contour>
      <contour>
        <pt x="178" y="1071" on="1"/>
        <pt x="180" y="391" on="1"/>
        <pt x="180" y="199" on="0"/>
        <pt x="268" y="118" on="1"/>
        <pt x="368" y="25" on="0"/>
        <pt x="616" y="25" on="1"/>
        <pt x="990" y="25" on="0"/>
        <pt x="1020" y="334" on="1"/>
        <pt x="1024" y="382" on="0"/>
        <pt x="1024" y="426" on="1"/>
        <pt x="1024" y="1106" on="1"/>
        <pt x="1024" y="1213" on="0"/>
        <pt x="986" y="1318" on="0"/>
        <pt x="931" y="1386" on="0"/>
        <pt x="886" y="1411" on="1"/>
        <pt x="789" y="1464" on="0"/>
        <pt x="485" y="1464" on="0"/>
        <pt x="316" y="1409" on="0"/>
        <pt x="266" y="1358" on="1"/>
        <pt x="178" y="1267" on="0"/>
      </contour>
      <contour>
        <pt x="367" y="478" on="1"/>
        <pt x="365" y="966" on="1"/>
        <pt x="365" y="1065" on="1"/>
        <pt x="365" y="1174" on="0"/>
        <pt x="440" y="1226" on="1"/>
        <pt x="494" y="1262" on="0"/>
        <pt x="567" y="1262" on="1"/>
        <pt x="643" y="1262" on="1"/>
        <pt x="709" y="1262" on="0"/>
        <pt x="750" y="1223" on="1"/>
        <pt x="765" y="1208" on="0"/>
        <pt x="778" y="1181" on="0"/>
        <pt x="780" y="1178" on="1"/>
        <pt x="776" y="1257" on="1"/>
        <pt x="846" y="1257" on="1"/>
        <pt x="844" y="870" on="1"/>
        <pt x="780" y="868" on="1"/>
        <pt x="780" y="911" on="1"/>
        <pt x="780" y="959" on="0"/>
        <pt x="724" y="1016" on="0"/>
        <pt x="672" y="1016" on="1"/>
        <pt x="551" y="1016" on="1"/>
        <pt x="501" y="1016" on="0"/>
        <pt x="432" y="957" on="0"/>
        <pt x="432" y="903" on="1"/>
        <pt x="436" y="578" on="1"/>
        <pt x="436" y="467" on="0"/>
        <pt x="535" y="467" on="1"/>
        <pt x="682" y="467" on="1"/>
        <pt x="728" y="467" on="0"/>
        <pt x="778" y="514" on="0"/>
        <pt x="778" y="549" on="1"/>
        <pt x="778" y="631" on="1"/>
        <pt x="842" y="631" on="1"/>
        <pt x="842" y="610" on="0"/>
        <pt x="843" y="579" on="1"/>
        <pt x="844" y="420" on="1"/>
        <pt x="844" y="314" on="0"/>
        <pt x="762" y="219" on="0"/>
        <pt x="694" y="219" on="1"/>
        <pt x="660" y="219" on="1"/>
        <pt x="627" y="218" on="1"/>
        <pt x="582" y="217" on="1"/>
        <pt x="532" y="217" on="1"/>
        <pt x="367" y="217" on="0"/>
        <pt x="367" y="406" on="1"/>
      </contour>
    </TTGlyph>
    <TTGlyph name="currency" xMin="66" yMin="381" xMax="600" yMax="1079">
      <contour>
        <pt x="571" y="717" on="1"/>
        <pt x="571" y="595" on="0"/>
        <pt x="516" y="537" on="1"/>
        <pt x="600" y="410" on="1"/>
        <pt x="541" y="381" on="1"/>
        <pt x="469" y="502" on="1"/>
        <pt x="421" y="475" on="0"/>
        <pt x="244" y="475" on="0"/>
        <pt x="197" y="506" on="1"/>
        <pt x="123" y="381" on="1"/>
        <pt x="66" y="412" on="1"/>
        <pt x="150" y="543" on="1"/>
        <pt x="102" y="597" on="0"/>
        <pt x="102" y="721" on="1"/>
        <pt x="102" y="725" on="1"/>
        <pt x="102" y="849" on="0"/>
        <pt x="152" y="911" on="1"/>
        <pt x="66" y="1049" on="1"/>
        <pt x="123" y="1079" on="1"/>
        <pt x="197" y="950" on="1"/>
        <pt x="250" y="981" on="0"/>
        <pt x="415" y="981" on="0"/>
        <pt x="467" y="954" on="1"/>
        <pt x="541" y="1079" on="1"/>
        <pt x="600" y="1051" on="1"/>
        <pt x="514" y="918" on="1"/>
        <pt x="571" y="856" on="0"/>
        <pt x="571" y="741" on="1"/>
      </contour>
      <contour>
        <pt x="168" y="719" on="1"/>
        <pt x="168" y="632" on="0"/>
        <pt x="204" y="594" on="1"/>
        <pt x="243" y="551" on="0"/>
        <pt x="397" y="551" on="0"/>
        <pt x="462" y="582" on="0"/>
        <pt x="478" y="607" on="1"/>
        <pt x="504" y="646" on="0"/>
        <pt x="504" y="723" on="1"/>
        <pt x="504" y="739" on="1"/>
        <pt x="504" y="814" on="0"/>
        <pt x="481" y="844" on="1"/>
        <pt x="436" y="903" on="0"/>
        <pt x="338" y="903" on="1"/>
        <pt x="200" y="903" on="0"/>
        <pt x="176" y="798" on="1"/>
        <pt x="168" y="765" on="0"/>
        <pt x="168" y="725" on="1"/>
      </contour>
    </TTGlyph>
    <TTGlyph name="d" xMin="61" yMin="-16" xMax="827" yMax="1536">
      <contour>
        <pt x="662" y="360" on="1"/>
        <pt x="662" y="297" on="0"/>
        <pt x="705" y="297" on="1"/>
        <pt x="827" y="297" on="1"/>
        <pt x="827" y="2" on="1"/>
        <pt x="604" y="-2" on="1"/>
        <pt x="604" y="143" on="1"/>
        <pt x="570" y="21" on="0"/>
        <pt x="452" y="-6" on="1"/>
        <pt x="409" y="-16" on="0"/>
        <pt x="272" y="-16" on="0"/>
        <pt x="163" y="21" on="0"/>
        <pt x="128" y="55" on="1"/>
        <pt x="61" y="120" on="0"/>
        <pt x="61" y="240" on="1"/>
        <pt x="61" y="776" on="1"/>
        <pt x="61" y="1032" on="0"/>
        <pt x="342" y="1032" on="1"/>
        <pt x="451" y="1032" on="0"/>
        <pt x="519" y="973" on="1"/>
        <pt x="573" y="926" on="0"/>
        <pt x="590" y="852" on="1"/>
        <pt x="588" y="1174" on="1"/>
        <pt x="586" y="1233" on="0"/>
        <pt x="540" y="1233" on="1"/>
        <pt x="422" y="1233" on="1"/>
        <pt x="428" y="1534" on="1"/>
        <pt x="666" y="1536" on="1"/>
        <pt x="662" y="1171" on="1"/>
      </contour>
      <contour>
        <pt x="133" y="596" on="1"/>
        <pt x="133" y="393" on="1"/>
        <pt x="133" y="326" on="0"/>
        <pt x="176" y="293" on="1"/>
        <pt x="228" y="252" on="0"/>
        <pt x="423" y="252" on="0"/>
        <pt x="514" y="272" on="0"/>
        <pt x="541" y="291" on="1"/>
        <pt x="590" y="325" on="0"/>
        <pt x="590" y="401" on="1"/>
        <pt x="590" y="596" on="1"/>
        <pt x="590" y="677" on="0"/>
        <pt x="542" y="712" on="1"/>
        <pt x="487" y="752" on="0"/>
        <pt x="388" y="752" on="1"/>
        <pt x="231" y="752" on="0"/>
        <pt x="133" y="672" on="0"/>
      </contour>
    </TTGlyph>
    <TTGlyph name="dagger" xMin="82" yMin="-117" xMax="737" yMax="1454">
      <contour>
        <pt x="379" y="1169" on="1"/>
        <pt x="379" y="1210" on="0"/>
        <pt x="348" y="1210" on="1"/>
        <pt x="238" y="1210" on="1"/>
        <pt x="236" y="1454" on="1"/>
        <pt x="586" y="1448" on="1"/>
        <pt x="580" y="1208" on="1"/>
        <pt x="481" y="1208" on="1"/>
        <pt x="469" y="1208" on="0"/>
        <pt x="453" y="1192" on="0"/>
        <pt x="453" y="1180" on="1"/>
        <pt x="452" y="1102" on="1"/>
        <pt x="451" y="911" on="1"/>
        <pt x="608" y="911" on="1"/>
        <pt x="625" y="911" on="0"/>
        <pt x="655" y="936" on="0"/>
        <pt x="658" y="983" on="0"/>
        <pt x="658" y="1000" on="1"/>
        <pt x="658" y="1032" on="1"/>
        <pt x="658" y="1049" on="0"/>
        <pt x="657" y="1065" on="1"/>
        <pt x="731" y="1069" on="1"/>
        <pt x="737" y="676" on="1"/>
        <pt x="666" y="676" on="1"/>
        <pt x="669" y="718" on="0"/>
        <pt x="655" y="802" on="0"/>
        <pt x="638" y="826" on="0"/>
        <pt x="628" y="832" on="1"/>
        <pt x="611" y="842" on="0"/>
        <pt x="590" y="842" on="1"/>
        <pt x="449" y="840" on="1"/>
        <pt x="446" y="636" on="0"/>
        <pt x="446" y="542" on="1"/>
        <pt x="444" y="292" on="0"/>
        <pt x="441" y="49" on="0"/>
        <pt x="440" y="-117" on="1"/>
        <pt x="365" y="-115" on="1"/>
        <pt x="367" y="298" on="0"/>
        <pt x="375" y="840" on="1"/>
        <pt x="296" y="841" on="1"/>
        <pt x="229" y="842" on="1"/>
        <pt x="172" y="842" on="0"/>
        <pt x="160" y="782" on="1"/>
        <pt x="154" y="742" on="0"/>
        <pt x="153" y="692" on="0"/>
        <pt x="154" y="676" on="1"/>
        <pt x="82" y="676" on="1"/>
        <pt x="88" y="1069" on="1"/>
        <pt x="162" y="1065" on="1"/>
        <pt x="161" y="1049" on="0"/>
        <pt x="161" y="1034" on="1"/>
        <pt x="161" y="1000" on="1"/>
        <pt x="161" y="938" on="0"/>
        <pt x="194" y="911" on="0"/>
        <pt x="211" y="911" on="1"/>
        <pt x="377" y="911" on="1"/>
        <pt x="379" y="1017" on="0"/>
        <pt x="379" y="1070" on="1"/>
      </contour>
    </TTGlyph>
    <TTGlyph name="daggerdbl" xMin="82" yMin="-117" xMax="737" yMax="1454">
      <contour>
        <pt x="379" y="1169" on="1"/>
        <pt x="379" y="1210" on="0"/>
        <pt x="348" y="1210" on="1"/>
        <pt x="238" y="1210" on="1"/>
        <pt x="236" y="1454" on="1"/>
        <pt x="586" y="1448" on="1"/>
        <pt x="580" y="1208" on="1"/>
        <pt x="481" y="1208" on="1"/>
        <pt x="469" y="1208" on="0"/>
        <pt x="453" y="1192" on="0"/>
        <pt x="453" y="1180" on="1"/>
        <pt x="452" y="1108" on="1"/>
        <pt x="451" y="932" on="1"/>
        <pt x="608" y="932" on="1"/>
        <pt x="625" y="932" on="0"/>
        <pt x="655" y="956" on="0"/>
        <pt x="658" y="1003" on="0"/>
        <pt x="658" y="1017" on="1"/>
        <pt x="658" y="1042" on="1"/>
        <pt x="658" y="1054" on="0"/>
        <pt x="657" y="1065" on="1"/>
        <pt x="731" y="1069" on="1"/>
        <pt x="737" y="717" on="1"/>
        <pt x="666" y="717" on="1"/>
        <pt x="668" y="741" on="0"/>
        <pt x="655" y="823" on="0"/>
        <pt x="638" y="846" on="0"/>
        <pt x="628" y="852" on="1"/>
        <pt x="611" y="862" on="0"/>
        <pt x="590" y="862" on="1"/>
        <pt x="449" y="860" on="1"/>
        <pt x="446" y="440" on="1"/>
        <pt x="608" y="440" on="1"/>
        <pt x="625" y="440" on="0"/>
        <pt x="655" y="465" on="0"/>
        <pt x="658" y="512" on="0"/>
        <pt x="658" y="526" on="1"/>
        <pt x="658" y="551" on="1"/>
        <pt x="658" y="563" on="0"/>
        <pt x="657" y="573" on="1"/>
        <pt x="731" y="578" on="1"/>
        <pt x="737" y="225" on="1"/>
        <pt x="666" y="225" on="1"/>
        <pt x="668" y="249" on="0"/>
        <pt x="655" y="331" on="0"/>
        <pt x="638" y="355" on="0"/>
        <pt x="628" y="361" on="1"/>
        <pt x="611" y="371" on="0"/>
        <pt x="590" y="371" on="1"/>
        <pt x="510" y="370" on="1"/>
        <pt x="444" y="369" on="1"/>
        <pt x="443" y="269" on="0"/>
        <pt x="442" y="94" on="0"/>
        <pt x="440" y="-51" on="0"/>
        <pt x="440" y="-117" on="1"/>
        <pt x="365" y="-115" on="1"/>
        <pt x="365" y="-23" on="0"/>
        <pt x="369" y="369" on="1"/>
        <pt x="341" y="371" on="0"/>
        <pt x="305" y="371" on="1"/>
        <pt x="267" y="371" on="0"/>
        <pt x="229" y="371" on="1"/>
        <pt x="154" y="371" on="0"/>
        <pt x="154" y="249" on="1"/>
        <pt x="153" y="236" on="0"/>
        <pt x="154" y="225" on="1"/>
        <pt x="82" y="225" on="1"/>
        <pt x="88" y="578" on="1"/>
        <pt x="162" y="573" on="1"/>
        <pt x="161" y="563" on="0"/>
        <pt x="161" y="552" on="1"/>
        <pt x="161" y="526" on="1"/>
        <pt x="161" y="468" on="0"/>
        <pt x="194" y="440" on="0"/>
        <pt x="211" y="440" on="1"/>
        <pt x="371" y="440" on="1"/>
        <pt x="375" y="658" on="0"/>
        <pt x="375" y="860" on="1"/>
        <pt x="296" y="861" on="1"/>
        <pt x="229" y="862" on="1"/>
        <pt x="172" y="862" on="0"/>
        <pt x="160" y="803" on="1"/>
        <pt x="154" y="764" on="0"/>
        <pt x="153" y="728" on="0"/>
        <pt x="154" y="717" on="1"/>
        <pt x="82" y="717" on="1"/>
        <pt x="88" y="1069" on="1"/>
        <pt x="162" y="1065" on="1"/>
        <pt x="161" y="1054" on="0"/>
        <pt x="161" y="1042" on="1"/>
        <pt x="161" y="1017" on="1"/>
        <pt x="161" y="958" on="0"/>
        <pt x="194" y="932" on="0"/>
        <pt x="211" y="932" on="1"/>
        <pt x="377" y="932" on="1"/>
        <pt x="378" y="1095" on="1"/>
      </contour>
    </TTGlyph>
    <TTGlyph name="dcaron" xMin="61" yMin="-16" xMax="932" yMax="1536">
      <component glyphName="d" x="0" y="0" flags="0x1004"/>
      <component glyphName="commaaccent" x="395" y="1638" flags="0x1004"/>
    </TTGlyph>
    <TTGlyph name="dcroat" xMin="61" yMin="-16" xMax="827" yMax="1536">
      <contour>
        <pt x="662" y="360" on="1"/>
        <pt x="662" y="297" on="0"/>
        <pt x="705" y="297" on="1"/>
        <pt x="827" y="297" on="1"/>
        <pt x="827" y="2" on="1"/>
        <pt x="604" y="-2" on="1"/>
        <pt x="604" y="143" on="1"/>
        <pt x="570" y="21" on="0"/>
        <pt x="452" y="-6" on="1"/>
        <pt x="409" y="-16" on="0"/>
        <pt x="272" y="-16" on="0"/>
        <pt x="163" y="21" on="0"/>
        <pt x="128" y="55" on="1"/>
        <pt x="61" y="120" on="0"/>
        <pt x="61" y="240" on="1"/>
        <pt x="61" y="776" on="1"/>
        <pt x="61" y="1032" on="0"/>
        <pt x="342" y="1032" on="1"/>
        <pt x="451" y="1032" on="0"/>
        <pt x="519" y="973" on="1"/>
        <pt x="573" y="926" on="0"/>
        <pt x="590" y="852" on="1"/>
        <pt x="588" y="1110" on="1"/>
        <pt x="381" y="1110" on="1"/>
        <pt x="379" y="1182" on="1"/>
        <pt x="588" y="1182" on="1"/>
        <pt x="588" y="1202" on="1"/>
        <pt x="586" y="1262" on="0"/>
        <pt x="540" y="1262" on="1"/>
        <pt x="422" y="1262" on="1"/>
        <pt x="428" y="1534" on="1"/>
        <pt x="666" y="1536" on="1"/>
        <pt x="662" y="1200" on="1"/>
        <pt x="662" y="1182" on="1"/>
        <pt x="809" y="1182" on="1"/>
        <pt x="809" y="1110" on="1"/>
        <pt x="662" y="1110" on="1"/>
      </contour>
      <contour>
        <pt x="133" y="596" on="1"/>
        <pt x="133" y="393" on="1"/>
        <pt x="133" y="326" on="0"/>
        <pt x="176" y="293" on="1"/>
        <pt x="228" y="252" on="0"/>
        <pt x="423" y="252" on="0"/>
        <pt x="514" y="272" on="0"/>
        <pt x="541" y="291" on="1"/>
        <pt x="590" y="325" on="0"/>
        <pt x="590" y="401" on="1"/>
        <pt x="590" y="596" on="1"/>
        <pt x="590" y="677" on="0"/>
        <pt x="542" y="712" on="1"/>
        <pt x="487" y="752" on="0"/>
        <pt x="388" y="752" on="1"/>
        <pt x="231" y="752" on="0"/>
        <pt x="133" y="672" on="0"/>
      </contour>
    </TTGlyph>
    <TTGlyph name="degree" xMin="74" yMin="1006" xMax="457" yMax="1380">
      <contour>
        <pt x="264" y="1006" on="1"/>
        <pt x="217" y="1006" on="0"/>
        <pt x="144" y="1039" on="0"/>
        <pt x="120" y="1066" on="1"/>
        <pt x="72" y="1120" on="0"/>
        <pt x="74" y="1196" on="1"/>
        <pt x="77" y="1318" on="0"/>
        <pt x="183" y="1364" on="1"/>
        <pt x="218" y="1380" on="0"/>
        <pt x="264" y="1380" on="1"/>
        <pt x="351" y="1380" on="0"/>
        <pt x="406" y="1322" on="1"/>
        <pt x="457" y="1270" on="0"/>
        <pt x="457" y="1196" on="1"/>
        <pt x="457" y="1125" on="0"/>
        <pt x="408" y="1070" on="1"/>
        <pt x="351" y="1006" on="0"/>
      </contour>
      <contour>
        <pt x="188" y="1100" on="0"/>
        <pt x="234" y="1079" on="0"/>
        <pt x="296" y="1079" on="0"/>
        <pt x="340" y="1102" on="0"/>
        <pt x="354" y="1120" on="1"/>
        <pt x="379" y="1153" on="0"/>
        <pt x="379" y="1198" on="1"/>
        <pt x="379" y="1267" on="0"/>
        <pt x="316" y="1297" on="1"/>
        <pt x="294" y="1307" on="0"/>
        <pt x="235" y="1307" on="0"/>
        <pt x="191" y="1289" on="0"/>
        <pt x="176" y="1274" on="1"/>
        <pt x="147" y="1244" on="0"/>
        <pt x="143" y="1175" on="0"/>
        <pt x="158" y="1133" on="0"/>
      </contour>
    </TTGlyph>
    <TTGlyph name="dieresis" xMin="178" yMin="1190" xMax="690" yMax="1374">
      <contour>
        <pt x="367" y="1370" on="1"/>
        <pt x="358" y="1192" on="1"/>
        <pt x="184" y="1190" on="1"/>
        <pt x="178" y="1370" on="1"/>
      </contour>
      <contour>
        <pt x="690" y="1374" on="1"/>
        <pt x="690" y="1190" on="1"/>
        <pt x="518" y="1196" on="1"/>
        <pt x="510" y="1368" on="1"/>
      </contour>
    </TTGlyph>
    <TTGlyph name="divide" xMin="86" yMin="360" xMax="633" yMax="926">
      <contour>
        <pt x="629" y="680" on="1"/>
        <pt x="633" y="608" on="1"/>
        <pt x="86" y="602" on="1"/>
        <pt x="88" y="678" on="1"/>
      </contour>
      <contour>
        <pt x="285" y="397" on="0"/>
        <pt x="276" y="425" on="0"/>
        <pt x="276" y="451" on="0"/>
        <pt x="283" y="478" on="0"/>
        <pt x="292" y="490" on="1"/>
        <pt x="315" y="518" on="0"/>
        <pt x="384" y="518" on="0"/>
        <pt x="415" y="503" on="0"/>
        <pt x="425" y="492" on="1"/>
        <pt x="444" y="470" on="0"/>
        <pt x="444" y="427" on="0"/>
        <pt x="436" y="399" on="0"/>
        <pt x="426" y="387" on="1"/>
        <pt x="404" y="360" on="0"/>
        <pt x="337" y="360" on="0"/>
        <pt x="305" y="374" on="0"/>
      </contour>
      <contour>
        <pt x="288" y="805" on="0"/>
        <pt x="279" y="833" on="0"/>
        <pt x="279" y="859" on="0"/>
        <pt x="286" y="886" on="0"/>
        <pt x="295" y="898" on="1"/>
        <pt x="316" y="926" on="0"/>
        <pt x="386" y="926" on="0"/>
        <pt x="417" y="911" on="0"/>
        <pt x="427" y="900" on="1"/>
        <pt x="446" y="878" on="0"/>
        <pt x="446" y="835" on="0"/>
        <pt x="438" y="807" on="0"/>
        <pt x="428" y="795" on="1"/>
        <pt x="406" y="768" on="0"/>
        <pt x="339" y="768" on="0"/>
        <pt x="307" y="782" on="0"/>
      </contour>
    </TTGlyph>
    <TTGlyph name="dollar" xMin="72" yMin="-156" xMax="639" yMax="1505">
      <contour>
        <pt x="383" y="1358" on="1"/>
        <pt x="485" y="1343" on="0"/>
        <pt x="524" y="1286" on="1"/>
        <pt x="532" y="1286" on="1"/>
        <pt x="532" y="1352" on="1"/>
        <pt x="602" y="1352" on="1"/>
        <pt x="602" y="889" on="1"/>
        <pt x="537" y="889" on="1"/>
        <pt x="537" y="971" on="1"/>
        <pt x="537" y="1011" on="0"/>
        <pt x="489" y="1065" on="0"/>
        <pt x="444" y="1065" on="1"/>
        <pt x="383" y="1065" on="1"/>
        <pt x="383" y="741" on="1"/>
        <pt x="432" y="741" on="1"/>
        <pt x="532" y="741" on="0"/>
        <pt x="590" y="669" on="1"/>
        <pt x="639" y="607" on="0"/>
        <pt x="639" y="518" on="1"/>
        <pt x="639" y="285" on="1"/>
        <pt x="639" y="92" on="0"/>
        <pt x="504" y="36" on="1"/>
        <pt x="455" y="15" on="0"/>
        <pt x="383" y="12" on="1"/>
        <pt x="383" y="-154" on="1"/>
        <pt x="319" y="-156" on="1"/>
        <pt x="319" y="14" on="1"/>
        <pt x="240" y="22" on="0"/>
        <pt x="187" y="69" on="1"/>
        <pt x="165" y="89" on="0"/>
        <pt x="154" y="113" on="1"/>
        <pt x="141" y="113" on="1"/>
        <pt x="141" y="20" on="1"/>
        <pt x="72" y="20" on="1"/>
        <pt x="72" y="547" on="1"/>
        <pt x="141" y="545" on="1"/>
        <pt x="140" y="531" on="0"/>
        <pt x="139" y="498" on="0"/>
        <pt x="139" y="476" on="1"/>
        <pt x="139" y="428" on="1"/>
        <pt x="139" y="374" on="0"/>
        <pt x="171" y="328" on="0"/>
        <pt x="209" y="328" on="1"/>
        <pt x="319" y="328" on="1"/>
        <pt x="319" y="668" on="1"/>
        <pt x="276" y="668" on="1"/>
        <pt x="194" y="668" on="0"/>
        <pt x="138" y="702" on="0"/>
        <pt x="124" y="724" on="1"/>
        <pt x="92" y="770" on="0"/>
        <pt x="92" y="864" on="1"/>
        <pt x="92" y="906" on="1"/>
        <pt x="93" y="964" on="1"/>
        <pt x="94" y="1046" on="1"/>
        <pt x="94" y="1120" on="1"/>
        <pt x="94" y="1350" on="0"/>
        <pt x="319" y="1360" on="1"/>
        <pt x="319" y="1505" on="1"/>
        <pt x="383" y="1505" on="1"/>
      </contour>
      <contour>
        <pt x="383" y="668" on="1"/>
        <pt x="383" y="328" on="1"/>
        <pt x="467" y="328" on="1"/>
        <pt x="552" y="328" on="0"/>
        <pt x="562" y="404" on="1"/>
        <pt x="565" y="427" on="0"/>
        <pt x="565" y="453" on="1"/>
        <pt x="565" y="510" on="1"/>
        <pt x="565" y="585" on="0"/>
        <pt x="539" y="614" on="1"/>
        <pt x="492" y="668" on="0"/>
        <pt x="403" y="668" on="1"/>
      </contour>
      <contour>
        <pt x="168" y="958" on="1"/>
        <pt x="166" y="834" on="1"/>
        <pt x="168" y="774" on="0"/>
        <pt x="188" y="760" on="1"/>
        <pt x="215" y="741" on="0"/>
        <pt x="279" y="741" on="1"/>
        <pt x="319" y="741" on="1"/>
        <pt x="319" y="1065" on="1"/>
        <pt x="258" y="1065" on="1"/>
        <pt x="220" y="1065" on="0"/>
        <pt x="168" y="1009" on="0"/>
      </contour>
    </TTGlyph>
    <TTGlyph name="dotaccent" xMin="326" yMin="1208" xMax="543" yMax="1415">
      <contour>
        <pt x="543" y="1415" on="1"/>
        <pt x="532" y="1210" on="1"/>
        <pt x="334" y="1208" on="1"/>
        <pt x="326" y="1415" on="1"/>
      </contour>
    </TTGlyph>
    <TTGlyph name="dotlessi" xMin="39" yMin="0" xMax="438" yMax="1024">
      <contour>
        <pt x="158" y="297" on="1"/>
        <pt x="205" y="297" on="0"/>
        <pt x="205" y="342" on="1"/>
        <pt x="205" y="682" on="1"/>
        <pt x="205" y="702" on="0"/>
        <pt x="183" y="717" on="0"/>
        <pt x="154" y="717" on="1"/>
        <pt x="39" y="717" on="1"/>
        <pt x="39" y="1024" on="1"/>
        <pt x="283" y="1024" on="1"/>
        <pt x="276" y="398" on="0"/>
        <pt x="276" y="370" on="1"/>
        <pt x="276" y="332" on="1"/>
        <pt x="276" y="321" on="0"/>
        <pt x="294" y="297" on="0"/>
        <pt x="309" y="297" on="1"/>
        <pt x="438" y="297" on="1"/>
        <pt x="438" y="0" on="1"/>
        <pt x="39" y="0" on="1"/>
        <pt x="43" y="297" on="1"/>
      </contour>
    </TTGlyph>
    <TTGlyph name="dotlessj" xMin="-41" yMin="-485" xMax="362" yMax="1024">
      <contour>
        <pt x="246" y="719" on="1"/>
        <pt x="152" y="718" on="1"/>
        <pt x="118" y="717" on="0"/>
        <pt x="76" y="717" on="1"/>
        <pt x="76" y="1020" on="1"/>
        <pt x="362" y="1024" on="1"/>
        <pt x="346" y="-112" on="0"/>
        <pt x="346" y="-287" on="0"/>
        <pt x="309" y="-396" on="0"/>
        <pt x="276" y="-428" on="1"/>
        <pt x="219" y="-485" on="0"/>
        <pt x="106" y="-485" on="1"/>
        <pt x="-21" y="-485" on="0"/>
        <pt x="-32" y="-448" on="1"/>
        <pt x="-35" y="-437" on="0"/>
        <pt x="-35" y="-426" on="1"/>
        <pt x="-38" y="-229" on="1"/>
        <pt x="-40" y="-151" on="0"/>
        <pt x="-41" y="-55" on="1"/>
        <pt x="33" y="-55" on="1"/>
        <pt x="33" y="-135" on="1"/>
        <pt x="33" y="-164" on="0"/>
        <pt x="90" y="-188" on="0"/>
        <pt x="187" y="-188" on="0"/>
        <pt x="232" y="-170" on="0"/>
        <pt x="246" y="-157" on="1"/>
        <pt x="272" y="-131" on="0"/>
        <pt x="272" y="-100" on="1"/>
        <pt x="279" y="684" on="1"/>
        <pt x="279" y="719" on="0"/>
      </contour>
    </TTGlyph>
    <TTGlyph name="e" xMin="61" yMin="-18" xMax="681" yMax="1040">
      <contour>
        <pt x="61" y="246" on="1"/>
        <pt x="70" y="788" on="1"/>
        <pt x="70" y="922" on="0"/>
        <pt x="174" y="987" on="1"/>
        <pt x="259" y="1040" on="0"/>
        <pt x="470" y="1040" on="0"/>
        <pt x="575" y="1007" on="0"/>
        <pt x="639" y="955" on="0"/>
        <pt x="670" y="890" on="0"/>
        <pt x="681" y="827" on="0"/>
        <pt x="680" y="772" on="0"/>
        <pt x="680" y="708" on="0"/>
        <pt x="672" y="520" on="1"/>
        <pt x="672" y="520" on="0"/>
        <pt x="137" y="508" on="1"/>
        <pt x="137" y="430" on="1"/>
        <pt x="137" y="281" on="0"/>
        <pt x="389" y="281" on="1"/>
        <pt x="494" y="281" on="0"/>
        <pt x="602" y="325" on="0"/>
        <pt x="602" y="360" on="1"/>
        <pt x="602" y="422" on="1"/>
        <pt x="670" y="430" on="1"/>
        <pt x="662" y="282" on="0"/>
        <pt x="662" y="112" on="0"/>
        <pt x="605" y="33" on="0"/>
        <pt x="558" y="13" on="1"/>
        <pt x="486" y="-18" on="0"/>
        <pt x="336" y="-18" on="1"/>
        <pt x="61" y="-18" on="0"/>
      </contour>
      <contour>
        <pt x="605" y="599" on="1"/>
        <pt x="606" y="653" on="1"/>
        <pt x="606" y="750" on="0"/>
        <pt x="391" y="750" on="1"/>
        <pt x="135" y="750" on="0"/>
        <pt x="135" y="582" on="1"/>
        <pt x="604" y="590" on="1"/>
        <pt x="604" y="592" on="0"/>
      </contour>
    </TTGlyph>
    <TTGlyph name="eacute" xMin="61" yMin="-18" xMax="681" yMax="1501">
      <component glyphName="e" x="0" y="0" flags="0x1204"/>
      <component glyphName="acute" x="35" y="0" flags="0x1004"/>
    </TTGlyph>
    <TTGlyph name="ebreve" xMin="61" yMin="-18" xMax="681" yMax="1454">
      <component glyphName="e" x="0" y="0" flags="0x1204"/>
      <component glyphName="breve" x="-46" y="0" flags="0x1004"/>
    </TTGlyph>
    <TTGlyph name="ecaron" xMin="61" yMin="-18" xMax="685" yMax="1493">
      <component glyphName="e" x="0" y="0" flags="0x1204"/>
      <component glyphName="caron" x="-36" y="0" flags="0x1004"/>
    </TTGlyph>
    <TTGlyph name="ecircumflex" xMin="61" yMin="-18" xMax="681" yMax="1493">
      <component glyphName="e" x="0" y="0" flags="0x1204"/>
      <component glyphName="circumflex" x="-58" y="0" flags="0x1004"/>
    </TTGlyph>
    <TTGlyph name="edieresis" xMin="61" yMin="-18" xMax="681" yMax="1374">
      <component glyphName="e" x="0" y="0" flags="0x1204"/>
      <component glyphName="dieresis" x="-60" y="0" flags="0x1004"/>
    </TTGlyph>
    <TTGlyph name="edotaccent" xMin="61" yMin="-18" xMax="681" yMax="1415">
      <component glyphName="e" x="0" y="0" flags="0x1204"/>
      <component glyphName="dotaccent" x="-56" y="0" flags="0x1004"/>
    </TTGlyph>
    <TTGlyph name="egrave" xMin="61" yMin="-18" xMax="681" yMax="1501">
      <component glyphName="e" x="0" y="0" flags="0x1204"/>
      <component glyphName="grave" x="-146" y="0" flags="0x1004"/>
    </TTGlyph>
    <TTGlyph name="eight" xMin="61" yMin="0" xMax="655" yMax="1378">
      <contour>
        <pt x="67" y="1002" on="1"/>
        <pt x="68" y="1198" on="1"/>
        <pt x="68" y="1290" on="0"/>
        <pt x="132" y="1338" on="1"/>
        <pt x="185" y="1378" on="0"/>
        <pt x="260" y="1378" on="1"/>
        <pt x="494" y="1378" on="1"/>
        <pt x="612" y="1378" on="0"/>
        <pt x="645" y="1268" on="1"/>
        <pt x="655" y="1234" on="0"/>
        <pt x="655" y="1194" on="1"/>
        <pt x="655" y="872" on="1"/>
        <pt x="655" y="750" on="0"/>
        <pt x="590" y="705" on="1"/>
        <pt x="616" y="691" on="0"/>
        <pt x="655" y="620" on="0"/>
        <pt x="655" y="569" on="1"/>
        <pt x="655" y="178" on="1"/>
        <pt x="655" y="94" on="0"/>
        <pt x="602" y="43" on="1"/>
        <pt x="557" y="0" on="0"/>
        <pt x="496" y="0" on="1"/>
        <pt x="236" y="0" on="1"/>
        <pt x="152" y="0" on="0"/>
        <pt x="104" y="56" on="1"/>
        <pt x="61" y="105" on="0"/>
        <pt x="61" y="184" on="1"/>
        <pt x="61" y="563" on="1"/>
        <pt x="61" y="669" on="0"/>
        <pt x="110" y="696" on="1"/>
        <pt x="121" y="702" on="0"/>
        <pt x="127" y="705" on="1"/>
        <pt x="121" y="712" on="0"/>
        <pt x="100" y="729" on="0"/>
        <pt x="90" y="746" on="1"/>
        <pt x="66" y="790" on="0"/>
        <pt x="66" y="872" on="1"/>
      </contour>
      <contour>
        <pt x="217" y="662" on="1"/>
        <pt x="163" y="662" on="0"/>
        <pt x="144" y="620" on="1"/>
        <pt x="135" y="597" on="0"/>
        <pt x="135" y="549" on="1"/>
        <pt x="135" y="403" on="1"/>
        <pt x="135" y="368" on="0"/>
        <pt x="179" y="330" on="0"/>
        <pt x="217" y="330" on="1"/>
        <pt x="498" y="330" on="1"/>
        <pt x="577" y="330" on="0"/>
        <pt x="581" y="397" on="1"/>
        <pt x="582" y="413" on="0"/>
        <pt x="582" y="424" on="1"/>
        <pt x="582" y="573" on="1"/>
        <pt x="582" y="617" on="0"/>
        <pt x="568" y="633" on="1"/>
        <pt x="543" y="662" on="0"/>
        <pt x="485" y="662" on="1"/>
      </contour>
      <contour>
        <pt x="528" y="1037" on="1"/>
        <pt x="511" y="1044" on="0"/>
        <pt x="439" y="1043" on="0"/>
        <pt x="350" y="1042" on="0"/>
        <pt x="308" y="1042" on="1"/>
        <pt x="238" y="1042" on="1"/>
        <pt x="162" y="1042" on="0"/>
        <pt x="144" y="981" on="1"/>
        <pt x="139" y="966" on="0"/>
        <pt x="139" y="954" on="1"/>
        <pt x="139" y="827" on="1"/>
        <pt x="139" y="769" on="0"/>
        <pt x="176" y="746" on="1"/>
        <pt x="196" y="733" on="0"/>
        <pt x="223" y="733" on="1"/>
        <pt x="498" y="733" on="1"/>
        <pt x="534" y="733" on="0"/>
        <pt x="552" y="754" on="1"/>
        <pt x="582" y="790" on="0"/>
        <pt x="582" y="815" on="1"/>
        <pt x="582" y="965" on="1"/>
        <pt x="582" y="1016" on="0"/>
      </contour>
    </TTGlyph>
</ttFont>
